SplineFontDB: 3.2
FontName: HighwayShieldsB
FullName: HighwayShieldsB
FamilyName: HighwayShieldsB
Weight: Regular
Copyright: (c) 2023, Anirudh Vemula
UComments: "Created with FontForge (https://fontforge.org) and Inkscape (https://inkscape.org/)"
Version: 1.000
ItalicAngle: 0
UnderlinePosition: -100
UnderlineWidth: 50
Ascent: 800
Descent: 200
InvalidEm: 0
LayerCount: 2
Layer: 0 0 "Back" 1
Layer: 1 0 "Fore" 0
XUID: [1021 472 -1304494659 11358]
StyleMap: 0x0000
FSType: 0
OS2Version: 0
OS2_WeightWidthSlopeOnly: 0
OS2_UseTypoMetrics: 1
CreationTime: 1675149693
ModificationTime: 1675412962
PfmFamily: 17
TTFWeight: 400
TTFWidth: 5
LineGap: 90
VLineGap: 90
OS2TypoAscent: 0
OS2TypoAOffset: 1
OS2TypoDescent: 0
OS2TypoDOffset: 1
OS2TypoLinegap: 90
OS2WinAscent: 0
OS2WinAOffset: 1
OS2WinDescent: 0
OS2WinDOffset: 1
HheadAscent: 0
HheadAOffset: 1
HheadDescent: 0
HheadDOffset: 1
OS2Vendor: 'PfEd'
MarkAttachClasses: 1
DEI: 91125
LangName: 1033
Encoding: ISO8859-1
UnicodeInterp: none
NameList: AGL For New Fonts
DisplaySize: -48
AntiAlias: 1
FitToEm: 0
WinInfo: 0 38 14
BeginPrivate: 0
EndPrivate
TeXData: 1 0 0 346030 173015 115343 0 1048576 115343 783286 444596 497025 792723 393216 433062 380633 303038 157286 324010 404750 52429 2506097 1059062 262144
BeginChars: 256 96

StartChar: A
Encoding: 65 65 0
Width: 1000
Flags: H
LayerCount: 2
Fore
SplineSet
48.8251953125 401.25 m 0
 48.8251953125 129.412109375 241.413085938 -98.9755859375 500.326171875 -151.53125 c 1
 759.2109375 -98.9814453125 951.828125 129.3828125 951.828125 401.25 c 0
 951.828125 487.20703125 931.908203125 622.604492188 829.73828125 751.734375 c 1
 769.164363443 733.245479429 712.835249481 727.093239724 664.482956401 727.093239724 c 0
 568.281507601 727.093239724 503.656189801 751.446792319 499.999550594 751.446792319 c 0
 497.819672621 751.446792319 430.687599765 727.044388538 335.703516577 727.044388538 c 0
 284.219697464 727.044388538 228.659505523 734.108745886 170.9140625 751.734375 c 1
 143.68359375 717.318359375 48.8251953125 593.043945312 48.8251953125 401.25 c 0
500.326171875 -148.469726562 m 1
 244.404296875 -96.375 51.8251953125 129.943359375 51.8251953125 401.25 c 0
 51.8251953125 532.263671875 96.734375 652.788085938 171.997070312 748.267578125 c 1
 194.121661625 741.559163245 254.578454531 724.094496785 336.220980821 724.094496785 c 0
 384.658994327 724.094496785 440.554336446 730.24201854 500.326171875 748.430664062 c 1
 522.480517123 741.689132437 583.154560557 724.093873153 665.096293754 724.093873153 c 0
 713.402839117 724.093873153 769.100704143 730.20888552 828.655273438 748.267578125 c 1
 903.919921875 652.788085938 948.828125 532.263671875 948.828125 401.25 c 0
 948.828125 129.943359375 756.248046875 -96.375 500.326171875 -148.469726562 c 1
335.891601562 727.084960938 m 0
 240.107421875 727.084960938 174.219726562 751.500976562 171.455078125 751.500976562 c 0
 170.977539062 751.500976562 170.552734375 751.27734375 170.27734375 750.930664062 c 0
 94.228515625 654.811523438 48.8251953125 533.33203125 48.8251953125 401.25 c 0
 48.8251953125 128.388671875 242.5859375 -99.2138671875 500.026367188 -151.470703125 c 0
 500.133789062 -151.4921875 500.35546875 -151.525390625 500.625976562 -151.470703125 c 0
 758.06640625 -99.2138671875 951.828125 128.388671875 951.828125 401.25 c 0
 951.828125 533.33203125 906.42578125 654.811523438 830.375 750.930664062 c 0
 830.099609375 751.27734375 829.674804688 751.500976562 829.198242188 751.500976562 c 0
 826.43359375 751.500976562 760.544921875 727.084960938 664.76171875 727.084960938 c 0
 568.981445312 727.084960938 503.091796875 751.499023438 500.326171875 751.499023438 c 0
 497.551757812 751.499023438 431.6796875 727.084960938 335.891601562 727.084960938 c 0
500.326171875 -148.469726562 m 1
 244.404296875 -96.375 51.8251953125 129.943359375 51.8251953125 401.25 c 0
 51.8251953125 532.263671875 96.734375 652.788085938 171.997070312 748.267578125 c 1
 194.121661625 741.559163245 254.578454531 724.094496785 336.220980821 724.094496785 c 0
 384.658994327 724.094496785 440.554336446 730.24201854 500.326171875 748.430664062 c 1
 522.480517123 741.689132437 583.154560557 724.093873153 665.096293754 724.093873153 c 0
 713.402839117 724.093873153 769.100704143 730.20888552 828.655273438 748.267578125 c 1
 903.919921875 652.788085938 948.828125 532.263671875 948.828125 401.25 c 0
 948.828125 129.943359375 756.248046875 -96.375 500.326171875 -148.469726562 c 1
94.1953125 562.83984375 m 1
 112.759765625 623.110351562 141.21484375 678.951171875 177.631835938 728.403320312 c 1
 227.776367188 714.369140625 280.59375 706.870117188 335.138671875 706.870117188 c 0
 392.794921875 706.870117188 448.522460938 715.247070312 501.202148438 730.870117188 c 1
 553.8828125 715.247070312 609.609375 706.870117188 667.266601562 706.870117188 c 0
 721.810546875 706.870117188 774.62890625 714.369140625 824.7734375 728.403320312 c 1
 861.189453125 678.951171875 889.64453125 623.110351562 908.208984375 562.83984375 c 1
 94.1953125 562.83984375 l 1
652.943359375 80.8974609375 m 1
 592.763671875 80.8974609375 l 1
 557.30078125 181.913085938 l 1
 445.002929688 181.913085938 l 1
 409.540039062 80.8974609375 l 1
 348.823242188 80.8974609375 l 1
 472.405273438 440.8984375 l 1
 529.361328125 440.8984375 l 1
 652.943359375 80.8974609375 l 1
536.883789062 239.942382812 m 1
 501.420898438 340.958007812 l 1
 464.8828125 239.942382812 l 1
 536.883789062 239.942382812 l 1
EndSplineSet
EndChar

StartChar: B
Encoding: 66 66 1
Width: 1000
Flags: H
LayerCount: 2
Fore
SplineSet
48.8251953125 401.25 m 0
 48.8251953125 129.412109375 241.413085938 -98.9755859375 500.326171875 -151.53125 c 1
 759.2109375 -98.9814453125 951.828125 129.3828125 951.828125 401.25 c 0
 951.828125 487.20703125 931.908203125 622.604492188 829.73828125 751.734375 c 1
 769.164363443 733.245479429 712.835249481 727.093239724 664.482956401 727.093239724 c 0
 568.281507601 727.093239724 503.656189801 751.446792319 499.999550594 751.446792319 c 0
 497.819672621 751.446792319 430.687599765 727.044388538 335.703516577 727.044388538 c 0
 284.219697464 727.044388538 228.659505523 734.108745886 170.9140625 751.734375 c 1
 143.68359375 717.318359375 48.8251953125 593.043945312 48.8251953125 401.25 c 0
500.326171875 -148.469726562 m 1
 244.404296875 -96.375 51.8251953125 129.943359375 51.8251953125 401.25 c 0
 51.8251953125 532.263671875 96.734375 652.788085938 171.997070312 748.267578125 c 1
 194.121661625 741.559163245 254.578454531 724.094496785 336.220980821 724.094496785 c 0
 384.658994327 724.094496785 440.554336446 730.24201854 500.326171875 748.430664062 c 1
 522.480517123 741.689132437 583.154560557 724.093873153 665.096293754 724.093873153 c 0
 713.402839117 724.093873153 769.100704143 730.20888552 828.655273438 748.267578125 c 1
 903.919921875 652.788085938 948.828125 532.263671875 948.828125 401.25 c 0
 948.828125 129.943359375 756.248046875 -96.375 500.326171875 -148.469726562 c 1
335.891601562 727.084960938 m 0
 240.107421875 727.084960938 174.219726562 751.500976562 171.455078125 751.500976562 c 0
 170.977539062 751.500976562 170.552734375 751.27734375 170.27734375 750.930664062 c 0
 94.228515625 654.811523438 48.8251953125 533.33203125 48.8251953125 401.25 c 0
 48.8251953125 128.388671875 242.5859375 -99.2138671875 500.026367188 -151.470703125 c 0
 500.133789062 -151.4921875 500.35546875 -151.525390625 500.625976562 -151.470703125 c 0
 758.06640625 -99.2138671875 951.828125 128.388671875 951.828125 401.25 c 0
 951.828125 533.33203125 906.42578125 654.811523438 830.375 750.930664062 c 0
 830.099609375 751.27734375 829.674804688 751.500976562 829.198242188 751.500976562 c 0
 826.43359375 751.500976562 760.544921875 727.084960938 664.76171875 727.084960938 c 0
 568.981445312 727.084960938 503.091796875 751.499023438 500.326171875 751.499023438 c 0
 497.551757812 751.499023438 431.6796875 727.084960938 335.891601562 727.084960938 c 0
500.326171875 -148.469726562 m 1
 244.404296875 -96.375 51.8251953125 129.943359375 51.8251953125 401.25 c 0
 51.8251953125 532.263671875 96.734375 652.788085938 171.997070312 748.267578125 c 1
 194.121661625 741.559163245 254.578454531 724.094496785 336.220980821 724.094496785 c 0
 384.658994327 724.094496785 440.554336446 730.24201854 500.326171875 748.430664062 c 1
 522.480517123 741.689132437 583.154560557 724.093873153 665.096293754 724.093873153 c 0
 713.402839117 724.093873153 769.100704143 730.20888552 828.655273438 748.267578125 c 1
 903.919921875 652.788085938 948.828125 532.263671875 948.828125 401.25 c 0
 948.828125 129.943359375 756.248046875 -96.375 500.326171875 -148.469726562 c 1
93.1806640625 562.182617188 m 1
 111.745117188 622.454101562 140.19921875 678.294921875 176.6171875 727.747070312 c 1
 226.760742188 713.711914062 279.579101562 706.212890625 334.123046875 706.212890625 c 0
 391.780273438 706.212890625 447.506835938 714.590820312 500.1875 730.212890625 c 1
 552.8671875 714.590820312 608.594726562 706.212890625 666.250976562 706.212890625 c 0
 720.794921875 706.212890625 773.614257812 713.711914062 823.7578125 727.747070312 c 1
 860.173828125 678.294921875 888.629882812 622.454101562 907.194335938 562.182617188 c 1
 93.1806640625 562.182617188 l 1
627.71875 186.360351562 m 0
 627.71875 157.345703125 619.032226562 132.181640625 601.659179688 110.868164062 c 0
 584.286132812 89.5546875 558.942382812 78.8974609375 525.62890625 78.8974609375 c 2
 383.778320312 78.8974609375 l 1
 383.778320312 438.8984375 l 1
 520.255859375 438.8984375 l 2
 548.5546875 438.8984375 572.196289062 430.211914062 591.181640625 412.838867188 c 0
 610.166015625 395.465820312 619.659179688 371.196289062 619.659179688 340.032226562 c 0
 619.30078125 303.853515625 607.659179688 278.778320312 584.733398438 264.80859375 c 1
 613.389648438 248.689453125 627.71875 222.540039062 627.71875 186.360351562 c 0
564.852539062 335.734375 m 0
 564.852539062 348.98828125 561.360351562 359.734375 554.375 367.97265625 c 0
 547.390625 376.211914062 537.270507812 380.331054688 524.016601562 380.331054688 c 2
 440.733398438 380.331054688 l 1
 440.733398438 292.749023438 l 1
 523.479492188 292.749023438 l 2
 535.659179688 292.749023438 545.509765625 297.31640625 553.032226562 306.450195312 c 0
 560.5546875 315.584960938 564.494140625 325.345703125 564.852539062 335.734375 c 0
569.151367188 184.749023438 m 0
 568.79296875 198.002929688 564.852539062 209.196289062 557.330078125 218.331054688 c 0
 549.807617188 227.46484375 539.95703125 232.2109375 527.778320312 232.569335938 c 2
 440.196289062 232.569335938 l 1
 440.196289062 135.853515625 l 1
 525.62890625 135.853515625 l 2
 538.8828125 135.853515625 549.44921875 140.868164062 557.330078125 150.897460938 c 0
 565.2109375 160.927734375 569.151367188 172.211914062 569.151367188 184.749023438 c 0
EndSplineSet
EndChar

StartChar: C
Encoding: 67 67 2
Width: 1000
Flags: H
LayerCount: 2
Fore
SplineSet
48.8251953125 401.25 m 0
 48.8251953125 129.412109375 241.413085938 -98.9755859375 500.326171875 -151.53125 c 1
 759.2109375 -98.9814453125 951.828125 129.3828125 951.828125 401.25 c 0
 951.828125 487.20703125 931.908203125 622.604492188 829.73828125 751.734375 c 1
 769.164363443 733.245479429 712.835249481 727.093239724 664.482956401 727.093239724 c 0
 568.281507601 727.093239724 503.656189801 751.446792319 499.999550594 751.446792319 c 0
 497.819672621 751.446792319 430.687599765 727.044388538 335.703516577 727.044388538 c 0
 284.219697464 727.044388538 228.659505523 734.108745886 170.9140625 751.734375 c 1
 143.68359375 717.318359375 48.8251953125 593.043945312 48.8251953125 401.25 c 0
500.326171875 -148.469726562 m 1
 244.404296875 -96.375 51.8251953125 129.943359375 51.8251953125 401.25 c 0
 51.8251953125 532.263671875 96.734375 652.788085938 171.997070312 748.267578125 c 1
 194.121661625 741.559163245 254.578454531 724.094496785 336.220980821 724.094496785 c 0
 384.658994327 724.094496785 440.554336446 730.24201854 500.326171875 748.430664062 c 1
 522.480517123 741.689132437 583.154560557 724.093873153 665.096293754 724.093873153 c 0
 713.402839117 724.093873153 769.100704143 730.20888552 828.655273438 748.267578125 c 1
 903.919921875 652.788085938 948.828125 532.263671875 948.828125 401.25 c 0
 948.828125 129.943359375 756.248046875 -96.375 500.326171875 -148.469726562 c 1
335.891601562 727.084960938 m 0
 240.107421875 727.084960938 174.219726562 751.500976562 171.455078125 751.500976562 c 0
 170.977539062 751.500976562 170.552734375 751.27734375 170.27734375 750.930664062 c 0
 94.228515625 654.811523438 48.8251953125 533.33203125 48.8251953125 401.25 c 0
 48.8251953125 128.388671875 242.5859375 -99.2138671875 500.026367188 -151.470703125 c 0
 500.133789062 -151.4921875 500.35546875 -151.525390625 500.625976562 -151.470703125 c 0
 758.06640625 -99.2138671875 951.828125 128.388671875 951.828125 401.25 c 0
 951.828125 533.33203125 906.42578125 654.811523438 830.375 750.930664062 c 0
 830.099609375 751.27734375 829.674804688 751.500976562 829.198242188 751.500976562 c 0
 826.43359375 751.500976562 760.544921875 727.084960938 664.76171875 727.084960938 c 0
 568.981445312 727.084960938 503.091796875 751.499023438 500.326171875 751.499023438 c 0
 497.551757812 751.499023438 431.6796875 727.084960938 335.891601562 727.084960938 c 0
500.326171875 -148.469726562 m 1
 244.404296875 -96.375 51.8251953125 129.943359375 51.8251953125 401.25 c 0
 51.8251953125 532.263671875 96.734375 652.788085938 171.997070312 748.267578125 c 1
 194.121661625 741.559163245 254.578454531 724.094496785 336.220980821 724.094496785 c 0
 384.658994327 724.094496785 440.554336446 730.24201854 500.326171875 748.430664062 c 1
 522.480517123 741.689132437 583.154560557 724.093873153 665.096293754 724.093873153 c 0
 713.402839117 724.093873153 769.100704143 730.20888552 828.655273438 748.267578125 c 1
 903.919921875 652.788085938 948.828125 532.263671875 948.828125 401.25 c 0
 948.828125 129.943359375 756.248046875 -96.375 500.326171875 -148.469726562 c 1
91.1806640625 561.16796875 m 1
 109.745117188 621.438476562 138.19921875 677.279296875 174.6171875 726.731445312 c 1
 224.760742188 712.697265625 277.579101562 705.198242188 332.123046875 705.198242188 c 0
 389.780273438 705.198242188 445.506835938 713.575195312 498.1875 729.198242188 c 1
 550.8671875 713.575195312 606.594726562 705.198242188 664.250976562 705.198242188 c 0
 718.794921875 705.198242188 771.614257812 712.697265625 821.7578125 726.731445312 c 1
 858.173828125 677.279296875 886.629882812 621.438476562 905.194335938 561.16796875 c 1
 91.1806640625 561.16796875 l 1
509.755859375 133.275390625 m 0
 535.419921875 133.623046875 553.975585938 145.76171875 565.419921875 169.692382812 c 1
 616.922851562 144.200195312 l 1
 595.766601562 101.194335938 560.044921875 79.171875 509.755859375 78.130859375 c 0
 468.830078125 78.130859375 437.356445312 93.9111328125 415.333007812 125.47265625 c 0
 393.310546875 157.033203125 382.298828125 201.252929688 382.298828125 258.131835938 c 0
 382.298828125 315.009765625 393.310546875 359.229492188 415.333007812 390.791015625 c 0
 437.356445312 422.3515625 468.830078125 438.131835938 509.755859375 438.131835938 c 0
 560.044921875 437.090820312 595.766601562 415.068359375 616.922851562 372.0625 c 1
 565.419921875 346.571289062 l 1
 553.975585938 370.501953125 535.419921875 382.640625 509.755859375 382.987304688 c 0
 485.477539062 382.987304688 467.790039062 371.455078125 456.69140625 348.391601562 c 0
 445.59375 325.328125 440.043945312 295.241210938 440.043945312 258.131835938 c 0
 440.043945312 221.021484375 445.59375 190.934570312 456.69140625 167.87109375 c 0
 467.790039062 144.807617188 485.477539062 133.275390625 509.755859375 133.275390625 c 0
EndSplineSet
EndChar

StartChar: D
Encoding: 68 68 3
Width: 1000
Flags: H
LayerCount: 2
Fore
SplineSet
48.8251953125 401.25 m 0
 48.8251953125 129.412109375 241.413085938 -98.9755859375 500.326171875 -151.53125 c 1
 759.2109375 -98.9814453125 951.828125 129.3828125 951.828125 401.25 c 0
 951.828125 487.20703125 931.908203125 622.604492188 829.73828125 751.734375 c 1
 647.094726562 695.986328125 503.04296875 752.397460938 499.888671875 751.434570312 c 0
 414.165039062 725.271484375 297.81640625 713 170.9140625 751.734375 c 1
 143.68359375 717.318359375 48.8251953125 593.043945312 48.8251953125 401.25 c 0
500.326171875 -148.469726562 m 1
 244.404296875 -96.375 51.8251953125 129.943359375 51.8251953125 401.25 c 0
 51.8251953125 532.263671875 96.734375 652.788085938 171.997070312 748.267578125 c 1
 207.248046875 737.579101562 339.80859375 699.584960938 500.326171875 748.430664062 c 1
 535.541015625 737.71484375 668.079101562 699.576171875 828.655273438 748.267578125 c 1
 903.919921875 652.788085938 948.828125 532.263671875 948.828125 401.25 c 0
 948.828125 129.943359375 756.248046875 -96.375 500.326171875 -148.469726562 c 1
335.891601562 727.084960938 m 0
 240.107421875 727.084960938 174.219726562 751.500976562 171.455078125 751.500976562 c 0
 170.977539062 751.500976562 170.552734375 751.27734375 170.27734375 750.930664062 c 0
 94.228515625 654.811523438 48.8251953125 533.33203125 48.8251953125 401.25 c 0
 48.8251953125 128.388671875 242.5859375 -99.2138671875 500.026367188 -151.470703125 c 0
 500.133789062 -151.4921875 500.35546875 -151.525390625 500.625976562 -151.470703125 c 0
 758.06640625 -99.2138671875 951.828125 128.388671875 951.828125 401.25 c 0
 951.828125 533.33203125 906.42578125 654.811523438 830.375 750.930664062 c 0
 830.099609375 751.27734375 829.674804688 751.500976562 829.198242188 751.500976562 c 0
 826.43359375 751.500976562 760.544921875 727.084960938 664.76171875 727.084960938 c 0
 568.981445312 727.084960938 503.091796875 751.499023438 500.326171875 751.499023438 c 0
 497.551757812 751.499023438 431.6796875 727.084960938 335.891601562 727.084960938 c 0
500.326171875 -148.469726562 m 1
 244.404296875 -96.375 51.8251953125 129.943359375 51.8251953125 401.25 c 0
 51.8251953125 532.263671875 96.734375 652.788085938 171.997070312 748.267578125 c 1
 207.248046875 737.579101562 339.80859375 699.584960938 500.326171875 748.430664062 c 1
 535.541015625 737.71484375 668.079101562 699.576171875 828.655273438 748.267578125 c 1
 903.919921875 652.788085938 948.828125 532.263671875 948.828125 401.25 c 0
 948.828125 129.943359375 756.248046875 -96.375 500.326171875 -148.469726562 c 1
91.1806640625 560.510742188 m 1
 109.745117188 620.782226562 138.19921875 676.623046875 174.6171875 726.075195312 c 1
 224.760742188 712.040039062 277.579101562 704.541992188 332.123046875 704.541992188 c 0
 389.780273438 704.541992188 445.506835938 712.918945312 498.1875 728.541015625 c 1
 550.8671875 712.918945312 606.594726562 704.541992188 664.250976562 704.541992188 c 0
 718.794921875 704.541992188 771.614257812 712.040039062 821.7578125 726.075195312 c 1
 858.173828125 676.623046875 886.629882812 620.782226562 905.194335938 560.510742188 c 1
 91.1806640625 560.510742188 l 1
633.794921875 259.2265625 m 0
 633.436523438 196.5390625 620.451171875 150.868164062 594.838867188 122.2109375 c 0
 569.227539062 93.5546875 537.793945312 79.2255859375 500.541015625 79.2255859375 c 2
 388.2421875 79.2255859375 l 1
 388.2421875 439.2265625 l 1
 500.541015625 439.2265625 l 2
 537.793945312 439.2265625 569.227539062 424.8984375 594.838867188 396.241210938 c 0
 620.451171875 367.584960938 633.436523438 321.913085938 633.794921875 259.2265625 c 0
445.197265625 259.2265625 m 1
 445.197265625 136.181640625 l 1
 500.541015625 136.181640625 l 2
 524.541015625 136.897460938 543.256835938 148.360351562 556.690429688 170.569335938 c 0
 570.123046875 192.778320312 577.018554688 222.330078125 577.376953125 259.2265625 c 0
 577.376953125 298.62890625 570.5703125 328.80859375 556.958984375 349.763671875 c 0
 543.346679688 370.71875 524.541015625 381.5546875 500.541015625 382.271484375 c 2
 445.197265625 382.271484375 l 1
 445.197265625 259.2265625 l 1
EndSplineSet
EndChar

StartChar: E
Encoding: 69 69 4
Width: 1000
Flags: H
LayerCount: 2
Fore
SplineSet
48.8251953125 401.25 m 0
 48.8251953125 129.412109375 241.413085938 -98.9755859375 500.326171875 -151.53125 c 1
 759.2109375 -98.9814453125 951.828125 129.3828125 951.828125 401.25 c 0
 951.828125 487.20703125 931.908203125 622.604492188 829.73828125 751.734375 c 1
 769.164363443 733.245479429 712.835249481 727.093239724 664.482956401 727.093239724 c 0
 568.281507601 727.093239724 503.656189801 751.446792319 499.999550594 751.446792319 c 0
 497.819672621 751.446792319 430.687599765 727.044388538 335.703516577 727.044388538 c 0
 284.219697464 727.044388538 228.659505523 734.108745886 170.9140625 751.734375 c 1
 143.68359375 717.318359375 48.8251953125 593.043945312 48.8251953125 401.25 c 0
500.326171875 -148.469726562 m 1
 244.404296875 -96.375 51.8251953125 129.943359375 51.8251953125 401.25 c 0
 51.8251953125 532.263671875 96.734375 652.788085938 171.997070312 748.267578125 c 1
 194.121661625 741.559163245 254.578454531 724.094496785 336.220980821 724.094496785 c 0
 384.658994327 724.094496785 440.554336446 730.24201854 500.326171875 748.430664062 c 1
 522.480517123 741.689132437 583.154560557 724.093873153 665.096293754 724.093873153 c 0
 713.402839117 724.093873153 769.100704143 730.20888552 828.655273438 748.267578125 c 1
 903.919921875 652.788085938 948.828125 532.263671875 948.828125 401.25 c 0
 948.828125 129.943359375 756.248046875 -96.375 500.326171875 -148.469726562 c 1
335.891601562 727.084960938 m 0
 240.107421875 727.084960938 174.219726562 751.500976562 171.455078125 751.500976562 c 0
 170.977539062 751.500976562 170.552734375 751.27734375 170.27734375 750.930664062 c 0
 94.228515625 654.811523438 48.8251953125 533.33203125 48.8251953125 401.25 c 0
 48.8251953125 128.388671875 242.5859375 -99.2138671875 500.026367188 -151.470703125 c 0
 500.133789062 -151.4921875 500.35546875 -151.525390625 500.625976562 -151.470703125 c 0
 758.06640625 -99.2138671875 951.828125 128.388671875 951.828125 401.25 c 0
 951.828125 533.33203125 906.42578125 654.811523438 830.375 750.930664062 c 0
 830.099609375 751.27734375 829.674804688 751.500976562 829.198242188 751.500976562 c 0
 826.43359375 751.500976562 760.544921875 727.084960938 664.76171875 727.084960938 c 0
 568.981445312 727.084960938 503.091796875 751.499023438 500.326171875 751.499023438 c 0
 497.551757812 751.499023438 431.6796875 727.084960938 335.891601562 727.084960938 c 0
500.326171875 -148.469726562 m 1
 244.404296875 -96.375 51.8251953125 129.943359375 51.8251953125 401.25 c 0
 51.8251953125 532.263671875 96.734375 652.788085938 171.997070312 748.267578125 c 1
 194.121661625 741.559163245 254.578454531 724.094496785 336.220980821 724.094496785 c 0
 384.658994327 724.094496785 440.554336446 730.24201854 500.326171875 748.430664062 c 1
 522.480517123 741.689132437 583.154560557 724.093873153 665.096293754 724.093873153 c 0
 713.402839117 724.093873153 769.100704143 730.20888552 828.655273438 748.267578125 c 1
 903.919921875 652.788085938 948.828125 532.263671875 948.828125 401.25 c 0
 948.828125 129.943359375 756.248046875 -96.375 500.326171875 -148.469726562 c 1
619.0546875 79.8828125 m 1
 395.53125 79.8828125 l 1
 395.53125 439.8828125 l 1
 607.770507812 439.8828125 l 1
 607.770507812 382.927734375 l 1
 452.487304688 382.927734375 l 1
 452.487304688 294.270507812 l 1
 557.263671875 294.270507812 l 1
 557.263671875 236.241210938 l 1
 452.487304688 236.241210938 l 1
 452.487304688 137.912109375 l 1
 619.0546875 137.912109375 l 1
 619.0546875 79.8828125 l 1
92.8525390625 561.82421875 m 1
 111.416992188 622.094726562 139.87109375 677.935546875 176.2890625 727.387695312 c 1
 226.432617188 713.353515625 279.250976562 705.854492188 333.794921875 705.854492188 c 0
 391.451171875 705.854492188 447.178710938 714.232421875 499.859375 729.854492188 c 1
 552.5390625 714.232421875 608.266601562 705.854492188 665.922851562 705.854492188 c 0
 720.466796875 705.854492188 773.286132812 713.353515625 823.4296875 727.387695312 c 1
 859.845703125 677.935546875 888.301757812 622.094726562 906.866210938 561.82421875 c 1
 92.8525390625 561.82421875 l 1
EndSplineSet
EndChar

StartChar: F
Encoding: 70 70 5
Width: 1000
Flags: H
LayerCount: 2
Fore
SplineSet
48.8251953125 401.25 m 0
 48.8251953125 129.412109375 241.413085938 -98.9755859375 500.326171875 -151.53125 c 1
 759.2109375 -98.9814453125 951.828125 129.3828125 951.828125 401.25 c 0
 951.828125 487.20703125 931.908203125 622.604492188 829.73828125 751.734375 c 1
 769.164363443 733.245479429 712.835249481 727.093239724 664.482956401 727.093239724 c 0
 568.281507601 727.093239724 503.656189801 751.446792319 499.999550594 751.446792319 c 0
 497.819672621 751.446792319 430.687599765 727.044388538 335.703516577 727.044388538 c 0
 284.219697464 727.044388538 228.659505523 734.108745886 170.9140625 751.734375 c 1
 143.68359375 717.318359375 48.8251953125 593.043945312 48.8251953125 401.25 c 0
500.326171875 -148.469726562 m 1
 244.404296875 -96.375 51.8251953125 129.943359375 51.8251953125 401.25 c 0
 51.8251953125 532.263671875 96.734375 652.788085938 171.997070312 748.267578125 c 1
 194.121661625 741.559163245 254.578454531 724.094496785 336.220980821 724.094496785 c 0
 384.658994327 724.094496785 440.554336446 730.24201854 500.326171875 748.430664062 c 1
 522.480517123 741.689132437 583.154560557 724.093873153 665.096293754 724.093873153 c 0
 713.402839117 724.093873153 769.100704143 730.20888552 828.655273438 748.267578125 c 1
 903.919921875 652.788085938 948.828125 532.263671875 948.828125 401.25 c 0
 948.828125 129.943359375 756.248046875 -96.375 500.326171875 -148.469726562 c 1
335.891601562 727.084960938 m 0
 240.107421875 727.084960938 174.219726562 751.500976562 171.455078125 751.500976562 c 0
 170.977539062 751.500976562 170.552734375 751.27734375 170.27734375 750.930664062 c 0
 94.228515625 654.811523438 48.8251953125 533.33203125 48.8251953125 401.25 c 0
 48.8251953125 128.388671875 242.5859375 -99.2138671875 500.026367188 -151.470703125 c 0
 500.133789062 -151.4921875 500.35546875 -151.525390625 500.625976562 -151.470703125 c 0
 758.06640625 -99.2138671875 951.828125 128.388671875 951.828125 401.25 c 0
 951.828125 533.33203125 906.42578125 654.811523438 830.375 750.930664062 c 0
 830.099609375 751.27734375 829.674804688 751.500976562 829.198242188 751.500976562 c 0
 826.43359375 751.500976562 760.544921875 727.084960938 664.76171875 727.084960938 c 0
 568.981445312 727.084960938 503.091796875 751.499023438 500.326171875 751.499023438 c 0
 497.551757812 751.499023438 431.6796875 727.084960938 335.891601562 727.084960938 c 0
500.326171875 -148.469726562 m 1
 244.404296875 -96.375 51.8251953125 129.943359375 51.8251953125 401.25 c 0
 51.8251953125 532.263671875 96.734375 652.788085938 171.997070312 748.267578125 c 1
 194.121661625 741.559163245 254.578454531 724.094496785 336.220980821 724.094496785 c 0
 384.658994327 724.094496785 440.554336446 730.24201854 500.326171875 748.430664062 c 1
 522.480517123 741.689132437 583.154560557 724.093873153 665.096293754 724.093873153 c 0
 713.402839117 724.093873153 769.100704143 730.20888552 828.655273438 748.267578125 c 1
 903.919921875 652.788085938 948.828125 532.263671875 948.828125 401.25 c 0
 948.828125 129.943359375 756.248046875 -96.375 500.326171875 -148.469726562 c 1
624.069335938 382.599609375 m 1
 457.501953125 382.599609375 l 1
 457.501953125 293.942382812 l 1
 562.278320312 293.942382812 l 1
 562.278320312 235.913085938 l 1
 457.501953125 235.913085938 l 1
 457.501953125 79.5546875 l 1
 400.546875 79.5546875 l 1
 400.546875 439.5546875 l 1
 624.069335938 439.5546875 l 1
 624.069335938 382.599609375 l 1
92.8525390625 561.854492188 m 1
 111.416992188 622.125976562 139.87109375 677.965820312 176.2890625 727.418945312 c 1
 226.432617188 713.383789062 279.250976562 705.884765625 333.794921875 705.884765625 c 0
 391.451171875 705.884765625 447.178710938 714.262695312 499.859375 729.884765625 c 1
 552.5390625 714.262695312 608.266601562 705.884765625 665.922851562 705.884765625 c 0
 720.466796875 705.884765625 773.286132812 713.383789062 823.4296875 727.418945312 c 1
 859.845703125 677.965820312 888.301757812 622.125976562 906.866210938 561.854492188 c 1
 92.8525390625 561.854492188 l 1
EndSplineSet
EndChar

StartChar: G
Encoding: 71 71 6
Width: 1000
Flags: H
LayerCount: 2
Fore
SplineSet
48.8251953125 401.25 m 0
 48.8251953125 129.412109375 241.413085938 -98.9755859375 500.326171875 -151.53125 c 1
 759.2109375 -98.9814453125 951.828125 129.3828125 951.828125 401.25 c 0
 951.828125 487.20703125 931.908203125 622.604492188 829.73828125 751.734375 c 1
 647.094726562 695.986328125 503.04296875 752.397460938 499.888671875 751.434570312 c 0
 414.165039062 725.271484375 297.81640625 713 170.9140625 751.734375 c 1
 143.68359375 717.318359375 48.8251953125 593.043945312 48.8251953125 401.25 c 0
500.326171875 -148.469726562 m 1
 244.404296875 -96.375 51.8251953125 129.943359375 51.8251953125 401.25 c 0
 51.8251953125 532.263671875 96.734375 652.788085938 171.997070312 748.267578125 c 1
 207.248046875 737.579101562 339.80859375 699.584960938 500.326171875 748.430664062 c 1
 535.541015625 737.71484375 668.079101562 699.576171875 828.655273438 748.267578125 c 1
 903.919921875 652.788085938 948.828125 532.263671875 948.828125 401.25 c 0
 948.828125 129.943359375 756.248046875 -96.375 500.326171875 -148.469726562 c 1
335.891601562 727.084960938 m 0
 240.107421875 727.084960938 174.219726562 751.500976562 171.455078125 751.500976562 c 0
 170.977539062 751.500976562 170.552734375 751.27734375 170.27734375 750.930664062 c 0
 94.228515625 654.811523438 48.8251953125 533.33203125 48.8251953125 401.25 c 0
 48.8251953125 128.388671875 242.5859375 -99.2138671875 500.026367188 -151.470703125 c 0
 500.133789062 -151.4921875 500.35546875 -151.525390625 500.625976562 -151.470703125 c 0
 758.06640625 -99.2138671875 951.828125 128.388671875 951.828125 401.25 c 0
 951.828125 533.33203125 906.42578125 654.811523438 830.375 750.930664062 c 0
 830.099609375 751.27734375 829.674804688 751.500976562 829.198242188 751.500976562 c 0
 826.43359375 751.500976562 760.544921875 727.084960938 664.76171875 727.084960938 c 0
 568.981445312 727.084960938 503.091796875 751.499023438 500.326171875 751.499023438 c 0
 497.551757812 751.499023438 431.6796875 727.084960938 335.891601562 727.084960938 c 0
500.326171875 -148.469726562 m 1
 244.404296875 -96.375 51.8251953125 129.943359375 51.8251953125 401.25 c 0
 51.8251953125 532.263671875 96.734375 652.788085938 171.997070312 748.267578125 c 1
 207.248046875 737.579101562 339.80859375 699.584960938 500.326171875 748.430664062 c 1
 535.541015625 737.71484375 668.079101562 699.576171875 828.655273438 748.267578125 c 1
 903.919921875 652.788085938 948.828125 532.263671875 948.828125 401.25 c 0
 948.828125 129.943359375 756.248046875 -96.375 500.326171875 -148.469726562 c 1
94.1953125 562.83984375 m 1
 112.759765625 623.110351562 141.21484375 678.951171875 177.631835938 728.403320312 c 1
 227.776367188 714.369140625 280.59375 706.870117188 335.138671875 706.870117188 c 0
 392.794921875 706.870117188 448.522460938 715.247070312 501.202148438 730.870117188 c 1
 553.8828125 715.247070312 609.609375 706.870117188 667.266601562 706.870117188 c 0
 721.810546875 706.870117188 774.62890625 714.369140625 824.7734375 728.403320312 c 1
 861.189453125 678.951171875 889.64453125 623.110351562 908.208984375 562.83984375 c 1
 94.1953125 562.83984375 l 1
504.963867188 134.883789062 m 0
 536.1328125 135.576171875 554.661132812 157.048828125 560.548828125 199.299804688 c 1
 507.041992188 199.299804688 l 1
 507.041992188 257.481445312 l 1
 623.40625 257.481445312 l 1
 623.40625 242.416992188 l 2
 623.059570312 188.737304688 612.41015625 148.130859375 591.458007812 120.598632812 c 0
 570.505859375 93.0654296875 542.193359375 79.2998046875 506.522460938 79.2998046875 c 0
 464.6171875 79.646484375 432.668945312 95.576171875 410.677734375 127.091796875 c 0
 388.686523438 158.607421875 377.69140625 202.763671875 377.69140625 259.559570312 c 0
 377.69140625 316.356445312 388.686523438 360.51171875 410.677734375 392.02734375 c 0
 432.668945312 423.54296875 464.09765625 439.299804688 504.963867188 439.299804688 c 0
 555.180664062 438.26171875 590.8515625 416.270507812 611.977539062 373.326171875 c 1
 560.548828125 347.87109375 l 1
 549.120117188 371.767578125 530.591796875 383.888671875 504.963867188 384.235351562 c 0
 480.721679688 384.235351562 463.05859375 372.719726562 451.9765625 349.689453125 c 0
 440.89453125 326.659179688 435.353515625 296.616210938 435.353515625 259.559570312 c 0
 435.353515625 222.50390625 440.89453125 192.459960938 451.9765625 169.4296875 c 0
 463.05859375 146.399414062 480.721679688 134.883789062 504.963867188 134.883789062 c 0
EndSplineSet
EndChar

StartChar: H
Encoding: 72 72 7
Width: 1000
Flags: H
LayerCount: 2
Fore
SplineSet
48.8251953125 401.25 m 0
 48.8251953125 129.412109375 241.413085938 -98.9755859375 500.326171875 -151.53125 c 1
 759.2109375 -98.9814453125 951.828125 129.3828125 951.828125 401.25 c 0
 951.828125 487.20703125 931.908203125 622.604492188 829.73828125 751.734375 c 1
 769.164363443 733.245479429 712.835249481 727.093239724 664.482956401 727.093239724 c 0
 568.281507601 727.093239724 503.656189801 751.446792319 499.999550594 751.446792319 c 0
 497.819672621 751.446792319 430.687599765 727.044388538 335.703516577 727.044388538 c 0
 284.219697464 727.044388538 228.659505523 734.108745886 170.9140625 751.734375 c 1
 143.68359375 717.318359375 48.8251953125 593.043945312 48.8251953125 401.25 c 0
500.326171875 -148.469726562 m 1
 244.404296875 -96.375 51.8251953125 129.943359375 51.8251953125 401.25 c 0
 51.8251953125 532.263671875 96.734375 652.788085938 171.997070312 748.267578125 c 1
 194.121661625 741.559163245 254.578454531 724.094496785 336.220980821 724.094496785 c 0
 384.658994327 724.094496785 440.554336446 730.24201854 500.326171875 748.430664062 c 1
 522.480517123 741.689132437 583.154560557 724.093873153 665.096293754 724.093873153 c 0
 713.402839117 724.093873153 769.100704143 730.20888552 828.655273438 748.267578125 c 1
 903.919921875 652.788085938 948.828125 532.263671875 948.828125 401.25 c 0
 948.828125 129.943359375 756.248046875 -96.375 500.326171875 -148.469726562 c 1
335.891601562 727.084960938 m 0
 240.107421875 727.084960938 174.219726562 751.500976562 171.455078125 751.500976562 c 0
 170.977539062 751.500976562 170.552734375 751.27734375 170.27734375 750.930664062 c 0
 94.228515625 654.811523438 48.8251953125 533.33203125 48.8251953125 401.25 c 0
 48.8251953125 128.388671875 242.5859375 -99.2138671875 500.026367188 -151.470703125 c 0
 500.133789062 -151.4921875 500.35546875 -151.525390625 500.625976562 -151.470703125 c 0
 758.06640625 -99.2138671875 951.828125 128.388671875 951.828125 401.25 c 0
 951.828125 533.33203125 906.42578125 654.811523438 830.375 750.930664062 c 0
 830.099609375 751.27734375 829.674804688 751.500976562 829.198242188 751.500976562 c 0
 826.43359375 751.500976562 760.544921875 727.084960938 664.76171875 727.084960938 c 0
 568.981445312 727.084960938 503.091796875 751.499023438 500.326171875 751.499023438 c 0
 497.551757812 751.499023438 431.6796875 727.084960938 335.891601562 727.084960938 c 0
500.326171875 -148.469726562 m 1
 244.404296875 -96.375 51.8251953125 129.943359375 51.8251953125 401.25 c 0
 51.8251953125 532.263671875 96.734375 652.788085938 171.997070312 748.267578125 c 1
 194.121661625 741.559163245 254.578454531 724.094496785 336.220980821 724.094496785 c 0
 384.658994327 724.094496785 440.554336446 730.24201854 500.326171875 748.430664062 c 1
 522.480517123 741.689132437 583.154560557 724.093873153 665.096293754 724.093873153 c 0
 713.402839117 724.093873153 769.100704143 730.20888552 828.655273438 748.267578125 c 1
 903.919921875 652.788085938 948.828125 532.263671875 948.828125 401.25 c 0
 948.828125 129.943359375 756.248046875 -96.375 500.326171875 -148.469726562 c 1
625.08203125 79.2255859375 m 1
 568.126953125 79.2255859375 l 1
 568.126953125 235.584960938 l 1
 437.022460938 235.584960938 l 1
 437.022460938 79.2255859375 l 1
 380.06640625 79.2255859375 l 1
 380.06640625 439.2265625 l 1
 437.022460938 439.2265625 l 1
 437.022460938 293.614257812 l 1
 568.126953125 293.614257812 l 1
 568.126953125 439.2265625 l 1
 625.08203125 439.2265625 l 1
 625.08203125 79.2255859375 l 1
92.8525390625 562.510742188 m 1
 111.416992188 622.782226562 139.87109375 678.623046875 176.2890625 728.075195312 c 1
 226.432617188 714.040039062 279.250976562 706.541992188 333.794921875 706.541992188 c 0
 391.451171875 706.541992188 447.178710938 714.918945312 499.859375 730.541015625 c 1
 552.5390625 714.918945312 608.266601562 706.541992188 665.922851562 706.541992188 c 0
 720.466796875 706.541992188 773.286132812 714.040039062 823.4296875 728.075195312 c 1
 859.845703125 678.623046875 888.301757812 622.782226562 906.866210938 562.510742188 c 1
 92.8525390625 562.510742188 l 1
EndSplineSet
EndChar

StartChar: I
Encoding: 73 73 8
Width: 1000
Flags: H
LayerCount: 2
Fore
SplineSet
48.8251953125 401.25 m 0
 48.8251953125 129.412109375 241.413085938 -98.9755859375 500.326171875 -151.53125 c 1
 759.2109375 -98.9814453125 951.828125 129.3828125 951.828125 401.25 c 0
 951.828125 487.20703125 931.908203125 622.604492188 829.73828125 751.734375 c 1
 769.164363443 733.245479429 712.835249481 727.093239724 664.482956401 727.093239724 c 0
 568.281507601 727.093239724 503.656189801 751.446792319 499.999550594 751.446792319 c 0
 497.819672621 751.446792319 430.687599765 727.044388538 335.703516577 727.044388538 c 0
 284.219697464 727.044388538 228.659505523 734.108745886 170.9140625 751.734375 c 1
 143.68359375 717.318359375 48.8251953125 593.043945312 48.8251953125 401.25 c 0
500.326171875 -148.469726562 m 1
 244.404296875 -96.375 51.8251953125 129.943359375 51.8251953125 401.25 c 0
 51.8251953125 532.263671875 96.734375 652.788085938 171.997070312 748.267578125 c 1
 194.121661625 741.559163245 254.578454531 724.094496785 336.220980821 724.094496785 c 0
 384.658994327 724.094496785 440.554336446 730.24201854 500.326171875 748.430664062 c 1
 522.480517123 741.689132437 583.154560557 724.093873153 665.096293754 724.093873153 c 0
 713.402839117 724.093873153 769.100704143 730.20888552 828.655273438 748.267578125 c 1
 903.919921875 652.788085938 948.828125 532.263671875 948.828125 401.25 c 0
 948.828125 129.943359375 756.248046875 -96.375 500.326171875 -148.469726562 c 1
335.891601562 727.084960938 m 0
 240.107421875 727.084960938 174.219726562 751.500976562 171.455078125 751.500976562 c 0
 170.977539062 751.500976562 170.552734375 751.27734375 170.27734375 750.930664062 c 0
 94.228515625 654.811523438 48.8251953125 533.33203125 48.8251953125 401.25 c 0
 48.8251953125 128.388671875 242.5859375 -99.2138671875 500.026367188 -151.470703125 c 0
 500.133789062 -151.4921875 500.35546875 -151.525390625 500.625976562 -151.470703125 c 0
 758.06640625 -99.2138671875 951.828125 128.388671875 951.828125 401.25 c 0
 951.828125 533.33203125 906.42578125 654.811523438 830.375 750.930664062 c 0
 830.099609375 751.27734375 829.674804688 751.500976562 829.198242188 751.500976562 c 0
 826.43359375 751.500976562 760.544921875 727.084960938 664.76171875 727.084960938 c 0
 568.981445312 727.084960938 503.091796875 751.499023438 500.326171875 751.499023438 c 0
 497.551757812 751.499023438 431.6796875 727.084960938 335.891601562 727.084960938 c 0
500.326171875 -148.469726562 m 1
 244.404296875 -96.375 51.8251953125 129.943359375 51.8251953125 401.25 c 0
 51.8251953125 532.263671875 96.734375 652.788085938 171.997070312 748.267578125 c 1
 194.121661625 741.559163245 254.578454531 724.094496785 336.220980821 724.094496785 c 0
 384.658994327 724.094496785 440.554336446 730.24201854 500.326171875 748.430664062 c 1
 522.480517123 741.689132437 583.154560557 724.093873153 665.096293754 724.093873153 c 0
 713.402839117 724.093873153 769.100704143 730.20888552 828.655273438 748.267578125 c 1
 903.919921875 652.788085938 948.828125 532.263671875 948.828125 401.25 c 0
 948.828125 129.943359375 756.248046875 -96.375 500.326171875 -148.469726562 c 1
93.1806640625 563.49609375 m 1
 111.745117188 623.766601562 140.19921875 679.607421875 176.6171875 729.059570312 c 1
 226.760742188 715.025390625 279.579101562 707.526367188 334.123046875 707.526367188 c 0
 391.780273438 707.526367188 447.506835938 715.904296875 500.1875 731.526367188 c 1
 552.8671875 715.904296875 608.594726562 707.526367188 666.250976562 707.526367188 c 0
 720.794921875 707.526367188 773.614257812 715.025390625 823.7578125 729.059570312 c 1
 860.173828125 679.607421875 888.629882812 623.766601562 907.194335938 563.49609375 c 1
 93.1806640625 563.49609375 l 1
529.340820312 79.5546875 m 1
 471.311523438 79.5546875 l 1
 471.311523438 439.5546875 l 1
 529.340820312 439.5546875 l 1
 529.340820312 79.5546875 l 1
EndSplineSet
EndChar

StartChar: J
Encoding: 74 74 9
Width: 1000
Flags: H
LayerCount: 2
Fore
SplineSet
48.8251953125 401.25 m 0
 48.8251953125 129.412109375 241.413085938 -98.9755859375 500.326171875 -151.53125 c 1
 759.2109375 -98.9814453125 951.828125 129.3828125 951.828125 401.25 c 0
 951.828125 487.20703125 931.908203125 622.604492188 829.73828125 751.734375 c 1
 769.164363443 733.245479429 712.835249481 727.093239724 664.482956401 727.093239724 c 0
 568.281507601 727.093239724 503.656189801 751.446792319 499.999550594 751.446792319 c 0
 497.819672621 751.446792319 430.687599765 727.044388538 335.703516577 727.044388538 c 0
 284.219697464 727.044388538 228.659505523 734.108745886 170.9140625 751.734375 c 1
 143.68359375 717.318359375 48.8251953125 593.043945312 48.8251953125 401.25 c 0
500.326171875 -148.469726562 m 1
 244.404296875 -96.375 51.8251953125 129.943359375 51.8251953125 401.25 c 0
 51.8251953125 532.263671875 96.734375 652.788085938 171.997070312 748.267578125 c 1
 194.121661625 741.559163245 254.578454531 724.094496785 336.220980821 724.094496785 c 0
 384.658994327 724.094496785 440.554336446 730.24201854 500.326171875 748.430664062 c 1
 522.480517123 741.689132437 583.154560557 724.093873153 665.096293754 724.093873153 c 0
 713.402839117 724.093873153 769.100704143 730.20888552 828.655273438 748.267578125 c 1
 903.919921875 652.788085938 948.828125 532.263671875 948.828125 401.25 c 0
 948.828125 129.943359375 756.248046875 -96.375 500.326171875 -148.469726562 c 1
335.891601562 727.084960938 m 0
 240.107421875 727.084960938 174.219726562 751.500976562 171.455078125 751.500976562 c 0
 170.977539062 751.500976562 170.552734375 751.27734375 170.27734375 750.930664062 c 0
 94.228515625 654.811523438 48.8251953125 533.33203125 48.8251953125 401.25 c 0
 48.8251953125 128.388671875 242.5859375 -99.2138671875 500.026367188 -151.470703125 c 0
 500.133789062 -151.4921875 500.35546875 -151.525390625 500.625976562 -151.470703125 c 0
 758.06640625 -99.2138671875 951.828125 128.388671875 951.828125 401.25 c 0
 951.828125 533.33203125 906.42578125 654.811523438 830.375 750.930664062 c 0
 830.099609375 751.27734375 829.674804688 751.500976562 829.198242188 751.500976562 c 0
 826.43359375 751.500976562 760.544921875 727.084960938 664.76171875 727.084960938 c 0
 568.981445312 727.084960938 503.091796875 751.499023438 500.326171875 751.499023438 c 0
 497.551757812 751.499023438 431.6796875 727.084960938 335.891601562 727.084960938 c 0
500.326171875 -148.469726562 m 1
 244.404296875 -96.375 51.8251953125 129.943359375 51.8251953125 401.25 c 0
 51.8251953125 532.263671875 96.734375 652.788085938 171.997070312 748.267578125 c 1
 194.121661625 741.559163245 254.578454531 724.094496785 336.220980821 724.094496785 c 0
 384.658994327 724.094496785 440.554336446 730.24201854 500.326171875 748.430664062 c 1
 522.480517123 741.689132437 583.154560557 724.093873153 665.096293754 724.093873153 c 0
 713.402839117 724.093873153 769.100704143 730.20888552 828.655273438 748.267578125 c 1
 903.919921875 652.788085938 948.828125 532.263671875 948.828125 401.25 c 0
 948.828125 129.943359375 756.248046875 -96.375 500.326171875 -148.469726562 c 1
93.5087890625 562.83984375 m 1
 112.073242188 623.110351562 140.52734375 678.951171875 176.9453125 728.403320312 c 1
 227.08984375 714.369140625 279.907226562 706.870117188 334.451171875 706.870117188 c 0
 392.108398438 706.870117188 447.8359375 715.247070312 500.515625 730.870117188 c 1
 553.1953125 715.247070312 608.922851562 706.870117188 666.579101562 706.870117188 c 0
 721.123046875 706.870117188 773.942382812 714.369140625 824.086914062 728.403320312 c 1
 860.501953125 678.951171875 888.958007812 623.110351562 907.522460938 562.83984375 c 1
 93.5087890625 562.83984375 l 1
607.25390625 203.345703125 m 2
 606.90234375 166.043945312 596.344726562 136.219726562 575.583007812 113.874023438 c 0
 554.8203125 91.5283203125 527.72265625 80.3544921875 494.291992188 80.3544921875 c 0
 436.931640625 81.7626953125 395.934570312 111.146484375 371.30078125 168.5078125 c 1
 426.725585938 191.205078125 l 1
 441.858398438 156.366210938 464.204101562 138.418945312 493.764648438 137.36328125 c 0
 511.359375 137.36328125 525.259765625 143.43359375 535.46484375 155.575195312 c 0
 545.669921875 167.715820312 550.59765625 183.462890625 550.245117188 202.818359375 c 2
 550.245117188 440.35546875 l 1
 607.25390625 440.35546875 l 1
 607.25390625 203.345703125 l 2
EndSplineSet
EndChar

StartChar: K
Encoding: 75 75 10
Width: 1000
Flags: H
LayerCount: 2
Fore
SplineSet
48.8251953125 401.25 m 0
 48.8251953125 129.412109375 241.413085938 -98.9755859375 500.326171875 -151.53125 c 1
 759.2109375 -98.9814453125 951.828125 129.3828125 951.828125 401.25 c 0
 951.828125 487.20703125 931.908203125 622.604492188 829.73828125 751.734375 c 1
 769.164363443 733.245479429 712.835249481 727.093239724 664.482956401 727.093239724 c 0
 568.281507601 727.093239724 503.656189801 751.446792319 499.999550594 751.446792319 c 0
 497.819672621 751.446792319 430.687599765 727.044388538 335.703516577 727.044388538 c 0
 284.219697464 727.044388538 228.659505523 734.108745886 170.9140625 751.734375 c 1
 143.68359375 717.318359375 48.8251953125 593.043945312 48.8251953125 401.25 c 0
500.326171875 -148.469726562 m 1
 244.404296875 -96.375 51.8251953125 129.943359375 51.8251953125 401.25 c 0
 51.8251953125 532.263671875 96.734375 652.788085938 171.997070312 748.267578125 c 1
 194.121661625 741.559163245 254.578454531 724.094496785 336.220980821 724.094496785 c 0
 384.658994327 724.094496785 440.554336446 730.24201854 500.326171875 748.430664062 c 1
 522.480517123 741.689132437 583.154560557 724.093873153 665.096293754 724.093873153 c 0
 713.402839117 724.093873153 769.100704143 730.20888552 828.655273438 748.267578125 c 1
 903.919921875 652.788085938 948.828125 532.263671875 948.828125 401.25 c 0
 948.828125 129.943359375 756.248046875 -96.375 500.326171875 -148.469726562 c 1
335.891601562 727.084960938 m 0
 240.107421875 727.084960938 174.219726562 751.500976562 171.455078125 751.500976562 c 0
 170.977539062 751.500976562 170.552734375 751.27734375 170.27734375 750.930664062 c 0
 94.228515625 654.811523438 48.8251953125 533.33203125 48.8251953125 401.25 c 0
 48.8251953125 128.388671875 242.5859375 -99.2138671875 500.026367188 -151.470703125 c 0
 500.133789062 -151.4921875 500.35546875 -151.525390625 500.625976562 -151.470703125 c 0
 758.06640625 -99.2138671875 951.828125 128.388671875 951.828125 401.25 c 0
 951.828125 533.33203125 906.42578125 654.811523438 830.375 750.930664062 c 0
 830.099609375 751.27734375 829.674804688 751.500976562 829.198242188 751.500976562 c 0
 826.43359375 751.500976562 760.544921875 727.084960938 664.76171875 727.084960938 c 0
 568.981445312 727.084960938 503.091796875 751.499023438 500.326171875 751.499023438 c 0
 497.551757812 751.499023438 431.6796875 727.084960938 335.891601562 727.084960938 c 0
500.326171875 -148.469726562 m 1
 244.404296875 -96.375 51.8251953125 129.943359375 51.8251953125 401.25 c 0
 51.8251953125 532.263671875 96.734375 652.788085938 171.997070312 748.267578125 c 1
 194.121661625 741.559163245 254.578454531 724.094496785 336.220980821 724.094496785 c 0
 384.658994327 724.094496785 440.554336446 730.24201854 500.326171875 748.430664062 c 1
 522.480517123 741.689132437 583.154560557 724.093873153 665.096293754 724.093873153 c 0
 713.402839117 724.093873153 769.100704143 730.20888552 828.655273438 748.267578125 c 1
 903.919921875 652.788085938 948.828125 532.263671875 948.828125 401.25 c 0
 948.828125 129.943359375 756.248046875 -96.375 500.326171875 -148.469726562 c 1
93.1806640625 564.182617188 m 1
 111.745117188 624.454101562 140.19921875 680.294921875 176.6171875 729.747070312 c 1
 226.760742188 715.711914062 279.579101562 708.212890625 334.123046875 708.212890625 c 0
 391.780273438 708.212890625 447.506835938 716.590820312 500.1875 732.212890625 c 1
 552.8671875 716.590820312 608.594726562 708.212890625 666.250976562 708.212890625 c 0
 720.794921875 708.212890625 773.614257812 715.711914062 823.7578125 729.747070312 c 1
 860.173828125 680.294921875 888.629882812 624.454101562 907.194335938 564.182617188 c 1
 93.1806640625 564.182617188 l 1
645.775390625 80.8974609375 m 1
 579.685546875 80.8974609375 l 1
 488.879882812 251.2265625 l 1
 451.267578125 204.48046875 l 1
 451.267578125 80.8974609375 l 1
 394.3125 80.8974609375 l 1
 394.3125 440.8984375 l 1
 451.267578125 440.8984375 l 1
 451.267578125 297.97265625 l 1
 564.640625 440.8984375 l 1
 637.715820312 440.8984375 l 1
 527.029296875 300.659179688 l 1
 645.775390625 80.8974609375 l 1
EndSplineSet
EndChar

StartChar: L
Encoding: 76 76 11
Width: 1000
Flags: H
LayerCount: 2
Fore
SplineSet
48.8251953125 401.25 m 0
 48.8251953125 129.412109375 241.413085938 -98.9755859375 500.326171875 -151.53125 c 1
 759.2109375 -98.9814453125 951.828125 129.3828125 951.828125 401.25 c 0
 951.828125 487.20703125 931.908203125 622.604492188 829.73828125 751.734375 c 1
 647.094726562 695.986328125 503.04296875 752.397460938 499.888671875 751.434570312 c 0
 414.165039062 725.271484375 297.81640625 713 170.9140625 751.734375 c 1
 143.68359375 717.318359375 48.8251953125 593.043945312 48.8251953125 401.25 c 0
500.326171875 -148.469726562 m 1
 244.404296875 -96.375 51.8251953125 129.943359375 51.8251953125 401.25 c 0
 51.8251953125 532.263671875 96.734375 652.788085938 171.997070312 748.267578125 c 1
 207.248046875 737.579101562 339.80859375 699.584960938 500.326171875 748.430664062 c 1
 535.541015625 737.71484375 668.079101562 699.576171875 828.655273438 748.267578125 c 1
 903.919921875 652.788085938 948.828125 532.263671875 948.828125 401.25 c 0
 948.828125 129.943359375 756.248046875 -96.375 500.326171875 -148.469726562 c 1
335.891601562 727.084960938 m 0
 240.107421875 727.084960938 174.219726562 751.500976562 171.455078125 751.500976562 c 0
 170.977539062 751.500976562 170.552734375 751.27734375 170.27734375 750.930664062 c 0
 94.228515625 654.811523438 48.8251953125 533.33203125 48.8251953125 401.25 c 0
 48.8251953125 128.388671875 242.5859375 -99.2138671875 500.026367188 -151.470703125 c 0
 500.133789062 -151.4921875 500.35546875 -151.525390625 500.625976562 -151.470703125 c 0
 758.06640625 -99.2138671875 951.828125 128.388671875 951.828125 401.25 c 0
 951.828125 533.33203125 906.42578125 654.811523438 830.375 750.930664062 c 0
 830.099609375 751.27734375 829.674804688 751.500976562 829.198242188 751.500976562 c 0
 826.43359375 751.500976562 760.544921875 727.084960938 664.76171875 727.084960938 c 0
 568.981445312 727.084960938 503.091796875 751.499023438 500.326171875 751.499023438 c 0
 497.551757812 751.499023438 431.6796875 727.084960938 335.891601562 727.084960938 c 0
500.326171875 -148.469726562 m 1
 244.404296875 -96.375 51.8251953125 129.943359375 51.8251953125 401.25 c 0
 51.8251953125 532.263671875 96.734375 652.788085938 171.997070312 748.267578125 c 1
 207.248046875 737.579101562 339.80859375 699.584960938 500.326171875 748.430664062 c 1
 535.541015625 737.71484375 668.079101562 699.576171875 828.655273438 748.267578125 c 1
 903.919921875 652.788085938 948.828125 532.263671875 948.828125 401.25 c 0
 948.828125 129.943359375 756.248046875 -96.375 500.326171875 -148.469726562 c 1
93.1806640625 562.182617188 m 1
 111.745117188 622.454101562 140.19921875 678.294921875 176.6171875 727.747070312 c 1
 226.760742188 713.711914062 279.579101562 706.212890625 334.123046875 706.212890625 c 0
 391.780273438 706.212890625 447.506835938 714.590820312 500.1875 730.212890625 c 1
 552.8671875 714.590820312 608.594726562 706.212890625 666.250976562 706.212890625 c 0
 720.794921875 706.212890625 773.614257812 713.711914062 823.7578125 727.747070312 c 1
 860.173828125 678.294921875 888.629882812 622.454101562 907.194335938 562.182617188 c 1
 93.1806640625 562.182617188 l 1
619.0546875 79.2255859375 m 1
 395.53125 79.2255859375 l 1
 395.53125 439.2265625 l 1
 452.487304688 439.2265625 l 1
 452.487304688 137.255859375 l 1
 619.0546875 137.255859375 l 1
 619.0546875 79.2255859375 l 1
EndSplineSet
EndChar

StartChar: M
Encoding: 77 77 12
Width: 1000
Flags: H
LayerCount: 2
Fore
SplineSet
48.8251953125 401.25 m 0
 48.8251953125 129.412109375 241.413085938 -98.9755859375 500.326171875 -151.53125 c 1
 759.2109375 -98.9814453125 951.828125 129.3828125 951.828125 401.25 c 0
 951.828125 487.20703125 931.908203125 622.604492188 829.73828125 751.734375 c 1
 647.094726562 695.986328125 503.04296875 752.397460938 499.888671875 751.434570312 c 0
 414.165039062 725.271484375 297.81640625 713 170.9140625 751.734375 c 1
 143.68359375 717.318359375 48.8251953125 593.043945312 48.8251953125 401.25 c 0
500.326171875 -148.469726562 m 1
 244.404296875 -96.375 51.8251953125 129.943359375 51.8251953125 401.25 c 0
 51.8251953125 532.263671875 96.734375 652.788085938 171.997070312 748.267578125 c 1
 207.248046875 737.579101562 339.80859375 699.584960938 500.326171875 748.430664062 c 1
 535.541015625 737.71484375 668.079101562 699.576171875 828.655273438 748.267578125 c 1
 903.919921875 652.788085938 948.828125 532.263671875 948.828125 401.25 c 0
 948.828125 129.943359375 756.248046875 -96.375 500.326171875 -148.469726562 c 1
335.891601562 727.084960938 m 0
 240.107421875 727.084960938 174.219726562 751.500976562 171.455078125 751.500976562 c 0
 170.977539062 751.500976562 170.552734375 751.27734375 170.27734375 750.930664062 c 0
 94.228515625 654.811523438 48.8251953125 533.33203125 48.8251953125 401.25 c 0
 48.8251953125 128.388671875 242.5859375 -99.2138671875 500.026367188 -151.470703125 c 0
 500.133789062 -151.4921875 500.35546875 -151.525390625 500.625976562 -151.470703125 c 0
 758.06640625 -99.2138671875 951.828125 128.388671875 951.828125 401.25 c 0
 951.828125 533.33203125 906.42578125 654.811523438 830.375 750.930664062 c 0
 830.099609375 751.27734375 829.674804688 751.500976562 829.198242188 751.500976562 c 0
 826.43359375 751.500976562 760.544921875 727.084960938 664.76171875 727.084960938 c 0
 568.981445312 727.084960938 503.091796875 751.499023438 500.326171875 751.499023438 c 0
 497.551757812 751.499023438 431.6796875 727.084960938 335.891601562 727.084960938 c 0
500.326171875 -148.469726562 m 1
 244.404296875 -96.375 51.8251953125 129.943359375 51.8251953125 401.25 c 0
 51.8251953125 532.263671875 96.734375 652.788085938 171.997070312 748.267578125 c 1
 207.248046875 737.579101562 339.80859375 699.584960938 500.326171875 748.430664062 c 1
 535.541015625 737.71484375 668.079101562 699.576171875 828.655273438 748.267578125 c 1
 903.919921875 652.788085938 948.828125 532.263671875 948.828125 401.25 c 0
 948.828125 129.943359375 756.248046875 -96.375 500.326171875 -148.469726562 c 1
643.470703125 80.8974609375 m 1
 586.515625 80.8974609375 l 1
 586.515625 289.375976562 l 1
 503.231445312 80.8974609375 l 1
 419.948242188 289.375976562 l 1
 419.948242188 80.8974609375 l 1
 362.9921875 80.8974609375 l 1
 362.9921875 440.8984375 l 1
 419.948242188 440.8984375 l 1
 503.231445312 238.868164062 l 1
 586.515625 440.8984375 l 1
 643.470703125 440.8984375 l 1
 643.470703125 80.8974609375 l 1
93.5087890625 563.49609375 m 1
 112.073242188 623.766601562 140.52734375 679.607421875 176.9453125 729.059570312 c 1
 227.08984375 715.025390625 279.907226562 707.526367188 334.451171875 707.526367188 c 0
 392.108398438 707.526367188 447.8359375 715.903320312 500.515625 731.526367188 c 1
 553.1953125 715.903320312 608.922851562 707.526367188 666.579101562 707.526367188 c 0
 721.123046875 707.526367188 773.942382812 715.025390625 824.086914062 729.059570312 c 1
 860.501953125 679.607421875 888.958007812 623.766601562 907.522460938 563.49609375 c 1
 93.5087890625 563.49609375 l 1
EndSplineSet
EndChar

StartChar: S
Encoding: 83 83 13
Width: 1000
Flags: H
LayerCount: 2
Fore
SplineSet
48.8251953125 401.25 m 0
 48.8251953125 129.412109375 241.413085938 -98.9755859375 500.326171875 -151.53125 c 1
 759.2109375 -98.9814453125 951.828125 129.3828125 951.828125 401.25 c 0
 951.828125 487.20703125 931.908203125 622.604492188 829.73828125 751.734375 c 1
 769.164363443 733.245479429 712.835249481 727.093239724 664.482956401 727.093239724 c 0
 568.281507601 727.093239724 503.656189801 751.446792319 499.999550594 751.446792319 c 0
 497.819672621 751.446792319 430.687599765 727.044388538 335.703516577 727.044388538 c 0
 284.219697464 727.044388538 228.659505523 734.108745886 170.9140625 751.734375 c 1
 143.68359375 717.318359375 48.8251953125 593.043945312 48.8251953125 401.25 c 0
500.326171875 -148.469726562 m 1
 244.404296875 -96.375 51.8251953125 129.943359375 51.8251953125 401.25 c 0
 51.8251953125 532.263671875 96.734375 652.788085938 171.997070312 748.267578125 c 1
 194.121661625 741.559163245 254.578454531 724.094496785 336.220980821 724.094496785 c 0
 384.658994327 724.094496785 440.554336446 730.24201854 500.326171875 748.430664062 c 1
 522.480517123 741.689132437 583.154560557 724.093873153 665.096293754 724.093873153 c 0
 713.402839117 724.093873153 769.100704143 730.20888552 828.655273438 748.267578125 c 1
 903.919921875 652.788085938 948.828125 532.263671875 948.828125 401.25 c 0
 948.828125 129.943359375 756.248046875 -96.375 500.326171875 -148.469726562 c 1
335.891601562 727.084960938 m 0
 240.107421875 727.084960938 174.219726562 751.500976562 171.455078125 751.500976562 c 0
 170.977539062 751.500976562 170.552734375 751.27734375 170.27734375 750.930664062 c 0
 94.228515625 654.811523438 48.8251953125 533.33203125 48.8251953125 401.25 c 0
 48.8251953125 128.388671875 242.5859375 -99.2138671875 500.026367188 -151.470703125 c 0
 500.133789062 -151.4921875 500.35546875 -151.525390625 500.625976562 -151.470703125 c 0
 758.06640625 -99.2138671875 951.828125 128.388671875 951.828125 401.25 c 0
 951.828125 533.33203125 906.42578125 654.811523438 830.375 750.930664062 c 0
 830.099609375 751.27734375 829.674804688 751.500976562 829.198242188 751.500976562 c 0
 826.43359375 751.500976562 760.544921875 727.084960938 664.76171875 727.084960938 c 0
 568.981445312 727.084960938 503.091796875 751.499023438 500.326171875 751.499023438 c 0
 497.551757812 751.499023438 431.6796875 727.084960938 335.891601562 727.084960938 c 0
500.326171875 -148.469726562 m 1
 244.404296875 -96.375 51.8251953125 129.943359375 51.8251953125 401.25 c 0
 51.8251953125 532.263671875 96.734375 652.788085938 171.997070312 748.267578125 c 1
 194.121661625 741.559163245 254.578454531 724.094496785 336.220980821 724.094496785 c 0
 384.658994327 724.094496785 440.554336446 730.24201854 500.326171875 748.430664062 c 1
 522.480517123 741.689132437 583.154560557 724.093873153 665.096293754 724.093873153 c 0
 713.402839117 724.093873153 769.100704143 730.20888552 828.655273438 748.267578125 c 1
 903.919921875 652.788085938 948.828125 532.263671875 948.828125 401.25 c 0
 948.828125 129.943359375 756.248046875 -96.375 500.326171875 -148.469726562 c 1
548.0859375 354.625 m 1
 537.00390625 375.057617188 519.861328125 385.447265625 496.657226562 385.793945312 c 0
 483.150390625 385.793945312 471.895507812 381.637695312 462.890625 373.326171875 c 0
 454.220511471 365.32277315 449.885018741 355.874198991 449.885018741 344.980449401 c 0
 449.885018741 340.657911176 449.885018741 331.262447109 462.112304688 321.377929688 c 0
 470.250976562 314.797851562 483.150390625 310.122070312 500.813476562 307.3515625 c 0
 542.717773438 300.079101562 573.107421875 285.966796875 591.982421875 265.014648438 c 0
 610.856445312 244.061523438 620.293945312 220.079101562 620.293945312 193.06640625 c 0
 620.293945312 163.282226562 609.038085938 136.875 586.52734375 113.844726562 c 0
 564.016601562 90.8154296875 535.96484375 79.2998046875 502.372070312 79.2998046875 c 0
 449.038085938 79.9921875 409.384765625 107.004882812 383.41015625 160.338867188 c 1
 435.877929688 186.83203125 l 1
 452.155273438 153.239257812 474.666015625 136.442382812 503.41015625 136.442382812 c 0
 503.878831182 136.432609001 504.345716207 136.427722116 504.810811347 136.427722116 c 0
 520.842763461 136.427722116 534.747975504 142.234313302 546.52734375 153.845703125 c 0
 563.791408003 170.862184117 564.726935223 188.020400963 564.726935223 196.774614121 c 0
 564.726935223 207.134535953 560.046114359 217.413440621 550.68359375 227.611328125 c 0
 540.986328125 238.173828125 523.84375 245.70703125 499.254882812 250.208984375 c 0
 466.0078125 255.057617188 440.553710938 265.1875 422.890625 280.598632812 c 0
 396.548154783 303.58384361 396.360380253 327.739498922 396.360380253 338.661127445 c 0
 396.360380253 363.23606688 405.376680368 385.960318886 423.41015625 406.833007812 c 0
 442.111328125 428.477539062 466.874023438 439.299804688 497.696289062 439.299804688 c 0
 540.986328125 438.26171875 573.194335938 417.828125 594.3203125 378.000976562 c 1
 548.0859375 354.625 l 1
93.1806640625 563.82421875 m 1
 111.745117188 624.094726562 140.19921875 679.935546875 176.6171875 729.387695312 c 1
 226.760742188 715.353515625 279.579101562 707.854492188 334.123046875 707.854492188 c 0
 391.780273438 707.854492188 447.506835938 716.232421875 500.1875 731.854492188 c 1
 552.8671875 716.232421875 608.594726562 707.854492188 666.250976562 707.854492188 c 0
 720.794921875 707.854492188 773.614257812 715.353515625 823.7578125 729.387695312 c 1
 860.173828125 679.935546875 888.629882812 624.094726562 907.194335938 563.82421875 c 1
 93.1806640625 563.82421875 l 1
EndSplineSet
EndChar

StartChar: N
Encoding: 78 78 14
Width: 1000
Flags: H
LayerCount: 2
Fore
SplineSet
48.8251953125 401.25 m 0
 48.8251953125 129.412109375 241.413085938 -98.9755859375 500.326171875 -151.53125 c 1
 759.2109375 -98.9814453125 951.828125 129.3828125 951.828125 401.25 c 0
 951.828125 487.20703125 931.908203125 622.604492188 829.73828125 751.734375 c 1
 769.164363443 733.245479429 712.835249481 727.093239724 664.482956401 727.093239724 c 0
 568.281507601 727.093239724 503.656189801 751.446792319 499.999550594 751.446792319 c 0
 497.819672621 751.446792319 430.687599765 727.044388538 335.703516577 727.044388538 c 0
 284.219697464 727.044388538 228.659505523 734.108745886 170.9140625 751.734375 c 1
 143.68359375 717.318359375 48.8251953125 593.043945312 48.8251953125 401.25 c 0
500.326171875 -148.469726562 m 1
 244.404296875 -96.375 51.8251953125 129.943359375 51.8251953125 401.25 c 0
 51.8251953125 532.263671875 96.734375 652.788085938 171.997070312 748.267578125 c 1
 194.121661625 741.559163245 254.578454531 724.094496785 336.220980821 724.094496785 c 0
 384.658994327 724.094496785 440.554336446 730.24201854 500.326171875 748.430664062 c 1
 522.480517123 741.689132437 583.154560557 724.093873153 665.096293754 724.093873153 c 0
 713.402839117 724.093873153 769.100704143 730.20888552 828.655273438 748.267578125 c 1
 903.919921875 652.788085938 948.828125 532.263671875 948.828125 401.25 c 0
 948.828125 129.943359375 756.248046875 -96.375 500.326171875 -148.469726562 c 1
335.891601562 727.084960938 m 0
 240.107421875 727.084960938 174.219726562 751.500976562 171.455078125 751.500976562 c 0
 170.977539062 751.500976562 170.552734375 751.27734375 170.27734375 750.930664062 c 0
 94.228515625 654.811523438 48.8251953125 533.33203125 48.8251953125 401.25 c 0
 48.8251953125 128.388671875 242.5859375 -99.2138671875 500.026367188 -151.470703125 c 0
 500.133789062 -151.4921875 500.35546875 -151.525390625 500.625976562 -151.470703125 c 0
 758.06640625 -99.2138671875 951.828125 128.388671875 951.828125 401.25 c 0
 951.828125 533.33203125 906.42578125 654.811523438 830.375 750.930664062 c 0
 830.099609375 751.27734375 829.674804688 751.500976562 829.198242188 751.500976562 c 0
 826.43359375 751.500976562 760.544921875 727.084960938 664.76171875 727.084960938 c 0
 568.981445312 727.084960938 503.091796875 751.499023438 500.326171875 751.499023438 c 0
 497.551757812 751.499023438 431.6796875 727.084960938 335.891601562 727.084960938 c 0
500.326171875 -148.469726562 m 1
 244.404296875 -96.375 51.8251953125 129.943359375 51.8251953125 401.25 c 0
 51.8251953125 532.263671875 96.734375 652.788085938 171.997070312 748.267578125 c 1
 194.121661625 741.559163245 254.578454531 724.094496785 336.220980821 724.094496785 c 0
 384.658994327 724.094496785 440.554336446 730.24201854 500.326171875 748.430664062 c 1
 522.480517123 741.689132437 583.154560557 724.093873153 665.096293754 724.093873153 c 0
 713.402839117 724.093873153 769.100704143 730.20888552 828.655273438 748.267578125 c 1
 903.919921875 652.788085938 948.828125 532.263671875 948.828125 401.25 c 0
 948.828125 129.943359375 756.248046875 -96.375 500.326171875 -148.469726562 c 1
93.5087890625 562.83984375 m 1
 112.073242188 623.110351562 140.52734375 678.951171875 176.9453125 728.403320312 c 1
 227.08984375 714.369140625 279.907226562 706.870117188 334.451171875 706.870117188 c 0
 392.108398438 706.870117188 447.8359375 715.247070312 500.515625 730.870117188 c 1
 553.1953125 715.247070312 608.922851562 706.870117188 666.579101562 706.870117188 c 0
 721.123046875 706.870117188 773.942382812 714.369140625 824.086914062 728.403320312 c 1
 860.501953125 678.951171875 888.958007812 623.110351562 907.522460938 562.83984375 c 1
 93.5087890625 562.83984375 l 1
622.06640625 79.2255859375 m 1
 571.559570312 79.2255859375 l 1
 434.006835938 323.166992188 l 1
 434.006835938 79.2255859375 l 1
 377.051757812 79.2255859375 l 1
 377.051757812 439.2265625 l 1
 434.006835938 439.2265625 l 1
 565.111328125 209.255859375 l 1
 565.111328125 439.2265625 l 1
 622.06640625 439.2265625 l 1
 622.06640625 79.2255859375 l 1
EndSplineSet
EndChar

StartChar: O
Encoding: 79 79 15
Width: 1000
Flags: H
LayerCount: 2
Fore
SplineSet
48.8251953125 401.25 m 0
 48.8251953125 129.412109375 241.413085938 -98.9755859375 500.326171875 -151.53125 c 1
 759.2109375 -98.9814453125 951.828125 129.3828125 951.828125 401.25 c 0
 951.828125 487.20703125 931.908203125 622.604492188 829.73828125 751.734375 c 1
 769.164363443 733.245479429 712.835249481 727.093239724 664.482956401 727.093239724 c 0
 568.281507601 727.093239724 503.656189801 751.446792319 499.999550594 751.446792319 c 0
 497.819672621 751.446792319 430.687599765 727.044388538 335.703516577 727.044388538 c 0
 284.219697464 727.044388538 228.659505523 734.108745886 170.9140625 751.734375 c 1
 143.68359375 717.318359375 48.8251953125 593.043945312 48.8251953125 401.25 c 0
500.326171875 -148.469726562 m 1
 244.404296875 -96.375 51.8251953125 129.943359375 51.8251953125 401.25 c 0
 51.8251953125 532.263671875 96.734375 652.788085938 171.997070312 748.267578125 c 1
 194.121661625 741.559163245 254.578454531 724.094496785 336.220980821 724.094496785 c 0
 384.658994327 724.094496785 440.554336446 730.24201854 500.326171875 748.430664062 c 1
 522.480517123 741.689132437 583.154560557 724.093873153 665.096293754 724.093873153 c 0
 713.402839117 724.093873153 769.100704143 730.20888552 828.655273438 748.267578125 c 1
 903.919921875 652.788085938 948.828125 532.263671875 948.828125 401.25 c 0
 948.828125 129.943359375 756.248046875 -96.375 500.326171875 -148.469726562 c 1
335.891601562 727.084960938 m 0
 240.107421875 727.084960938 174.219726562 751.500976562 171.455078125 751.500976562 c 0
 170.977539062 751.500976562 170.552734375 751.27734375 170.27734375 750.930664062 c 0
 94.228515625 654.811523438 48.8251953125 533.33203125 48.8251953125 401.25 c 0
 48.8251953125 128.388671875 242.5859375 -99.2138671875 500.026367188 -151.470703125 c 0
 500.133789062 -151.4921875 500.35546875 -151.525390625 500.625976562 -151.470703125 c 0
 758.06640625 -99.2138671875 951.828125 128.388671875 951.828125 401.25 c 0
 951.828125 533.33203125 906.42578125 654.811523438 830.375 750.930664062 c 0
 830.099609375 751.27734375 829.674804688 751.500976562 829.198242188 751.500976562 c 0
 826.43359375 751.500976562 760.544921875 727.084960938 664.76171875 727.084960938 c 0
 568.981445312 727.084960938 503.091796875 751.499023438 500.326171875 751.499023438 c 0
 497.551757812 751.499023438 431.6796875 727.084960938 335.891601562 727.084960938 c 0
500.326171875 -148.469726562 m 1
 244.404296875 -96.375 51.8251953125 129.943359375 51.8251953125 401.25 c 0
 51.8251953125 532.263671875 96.734375 652.788085938 171.997070312 748.267578125 c 1
 194.121661625 741.559163245 254.578454531 724.094496785 336.220980821 724.094496785 c 0
 384.658994327 724.094496785 440.554336446 730.24201854 500.326171875 748.430664062 c 1
 522.480517123 741.689132437 583.154560557 724.093873153 665.096293754 724.093873153 c 0
 713.402839117 724.093873153 769.100704143 730.20888552 828.655273438 748.267578125 c 1
 903.919921875 652.788085938 948.828125 532.263671875 948.828125 401.25 c 0
 948.828125 129.943359375 756.248046875 -96.375 500.326171875 -148.469726562 c 1
499.987304688 79.9716796875 m 0
 459.0078125 79.9716796875 427.4921875 95.51171875 405.439453125 126.59375 c 0
 383.387695312 157.67578125 372.361328125 202.388671875 372.361328125 260.732421875 c 0
 372.361328125 317.686523438 383.387695312 361.96484375 405.439453125 393.568359375 c 0
 427.4921875 425.170898438 459.0078125 440.971679688 499.987304688 440.971679688 c 0
 541.662109375 440.971679688 573.350585938 425.170898438 595.056640625 393.568359375 c 0
 616.76171875 361.96484375 627.614257812 317.686523438 627.614257812 260.732421875 c 0
 627.614257812 202.388671875 616.76171875 157.67578125 595.056640625 126.59375 c 0
 573.350585938 95.51171875 541.662109375 79.9716796875 499.987304688 79.9716796875 c 0
499.987304688 385.75390625 m 0
 475.677734375 385.75390625 457.965820312 374.20703125 446.853515625 351.112304688 c 0
 435.740234375 328.018554688 430.010742188 298.23828125 429.663085938 261.774414062 c 0
 429.663085938 220.794921875 435.1328125 189.712890625 446.072265625 168.528320312 c 0
 456.835084023 147.685808305 474.404869588 137.26501731 498.781622319 137.26501731 c 0
 499.181683056 137.26501731 499.583577179 137.267824041 499.987304688 137.2734375 c 0
 526.381835938 137.967773438 544.61328125 148.907226562 554.684570312 170.091796875 c 0
 564.755859375 191.275390625 570.138671875 221.8359375 570.833007812 261.774414062 c 0
 570.138671875 300.669921875 564.322265625 330.709960938 553.3828125 351.893554688 c 0
 542.443359375 373.078125 524.64453125 384.364257812 499.987304688 385.75390625 c 0
92.8525390625 561.526367188 m 1
 111.416992188 621.796875 139.87109375 677.637695312 176.2890625 727.08984375 c 1
 226.432617188 713.055664062 279.250976562 705.556640625 333.794921875 705.556640625 c 0
 391.451171875 705.556640625 447.178710938 713.934570312 499.859375 729.556640625 c 1
 552.5390625 713.934570312 608.266601562 705.556640625 665.922851562 705.556640625 c 0
 720.466796875 705.556640625 773.286132812 713.055664062 823.4296875 727.08984375 c 1
 859.845703125 677.637695312 888.301757812 621.796875 906.866210938 561.526367188 c 1
 92.8525390625 561.526367188 l 1
EndSplineSet
EndChar

StartChar: P
Encoding: 80 80 16
Width: 1000
Flags: H
LayerCount: 2
Fore
SplineSet
48.8251953125 401.25 m 0
 48.8251953125 129.412109375 241.413085938 -98.9755859375 500.326171875 -151.53125 c 1
 759.2109375 -98.9814453125 951.828125 129.3828125 951.828125 401.25 c 0
 951.828125 487.20703125 931.908203125 622.604492188 829.73828125 751.734375 c 1
 769.164363443 733.245479429 712.835249481 727.093239724 664.482956401 727.093239724 c 0
 568.281507601 727.093239724 503.656189801 751.446792319 499.999550594 751.446792319 c 0
 497.819672621 751.446792319 430.687599765 727.044388538 335.703516577 727.044388538 c 0
 284.219697464 727.044388538 228.659505523 734.108745886 170.9140625 751.734375 c 1
 143.68359375 717.318359375 48.8251953125 593.043945312 48.8251953125 401.25 c 0
500.326171875 -148.469726562 m 1
 244.404296875 -96.375 51.8251953125 129.943359375 51.8251953125 401.25 c 0
 51.8251953125 532.263671875 96.734375 652.788085938 171.997070312 748.267578125 c 1
 194.121661625 741.559163245 254.578454531 724.094496785 336.220980821 724.094496785 c 0
 384.658994327 724.094496785 440.554336446 730.24201854 500.326171875 748.430664062 c 1
 522.480517123 741.689132437 583.154560557 724.093873153 665.096293754 724.093873153 c 0
 713.402839117 724.093873153 769.100704143 730.20888552 828.655273438 748.267578125 c 1
 903.919921875 652.788085938 948.828125 532.263671875 948.828125 401.25 c 0
 948.828125 129.943359375 756.248046875 -96.375 500.326171875 -148.469726562 c 1
335.891601562 727.084960938 m 0
 240.107421875 727.084960938 174.219726562 751.500976562 171.455078125 751.500976562 c 0
 170.977539062 751.500976562 170.552734375 751.27734375 170.27734375 750.930664062 c 0
 94.228515625 654.811523438 48.8251953125 533.33203125 48.8251953125 401.25 c 0
 48.8251953125 128.388671875 242.5859375 -99.2138671875 500.026367188 -151.470703125 c 0
 500.133789062 -151.4921875 500.35546875 -151.525390625 500.625976562 -151.470703125 c 0
 758.06640625 -99.2138671875 951.828125 128.388671875 951.828125 401.25 c 0
 951.828125 533.33203125 906.42578125 654.811523438 830.375 750.930664062 c 0
 830.099609375 751.27734375 829.674804688 751.500976562 829.198242188 751.500976562 c 0
 826.43359375 751.500976562 760.544921875 727.084960938 664.76171875 727.084960938 c 0
 568.981445312 727.084960938 503.091796875 751.499023438 500.326171875 751.499023438 c 0
 497.551757812 751.499023438 431.6796875 727.084960938 335.891601562 727.084960938 c 0
500.326171875 -148.469726562 m 1
 244.404296875 -96.375 51.8251953125 129.943359375 51.8251953125 401.25 c 0
 51.8251953125 532.263671875 96.734375 652.788085938 171.997070312 748.267578125 c 1
 194.121661625 741.559163245 254.578454531 724.094496785 336.220980821 724.094496785 c 0
 384.658994327 724.094496785 440.554336446 730.24201854 500.326171875 748.430664062 c 1
 522.480517123 741.689132437 583.154560557 724.093873153 665.096293754 724.093873153 c 0
 713.402839117 724.093873153 769.100704143 730.20888552 828.655273438 748.267578125 c 1
 903.919921875 652.788085938 948.828125 532.263671875 948.828125 401.25 c 0
 948.828125 129.943359375 756.248046875 -96.375 500.326171875 -148.469726562 c 1
93.1806640625 563.82421875 m 1
 111.745117188 624.094726562 140.19921875 679.935546875 176.6171875 729.387695312 c 1
 226.760742188 715.353515625 279.579101562 707.854492188 334.123046875 707.854492188 c 0
 391.780273438 707.854492188 447.506835938 716.232421875 500.1875 731.854492188 c 1
 552.8671875 716.232421875 608.594726562 707.854492188 666.250976562 707.854492188 c 0
 720.794921875 707.854492188 773.614257812 715.353515625 823.7578125 729.387695312 c 1
 860.173828125 679.935546875 888.629882812 624.094726562 907.194335938 563.82421875 c 1
 93.1806640625 563.82421875 l 1
510.7578125 237.255859375 m 2
 442.518554688 237.255859375 l 1
 442.518554688 80.8974609375 l 1
 385.563476562 80.8974609375 l 1
 385.563476562 440.8984375 l 1
 504.309570312 440.8984375 l 2
 530.817382812 440.8984375 552.130859375 437.047851562 568.25 429.345703125 c 0
 584.369140625 421.64453125 597.533203125 409.375976562 607.7421875 392.540039062 c 0
 617.951171875 375.704101562 623.055664062 358.15234375 623.055664062 339.8828125 c 0
 623.055664062 320.8984375 618.936523438 303.704101562 610.698242188 288.30078125 c 0
 602.458984375 272.897460938 590.010742188 260.450195312 573.354492188 250.958007812 c 0
 557.30325315 241.810203704 537.344610473 237.236301649 513.477690347 237.236301649 c 0
 512.576634932 237.236301649 511.670008999 237.242820891 510.7578125 237.255859375 c 2
565.563476562 338.80859375 m 0
 565.563476562 352.779296875 561.354492188 363.525390625 552.936523438 371.047851562 c 0
 544.518554688 378.5703125 535.115234375 382.509765625 524.727539062 382.868164062 c 2
 441.443359375 382.868164062 l 1
 441.443359375 294.211914062 l 1
 526.876953125 294.211914062 l 2
 537.623046875 294.211914062 546.7578125 298.151367188 554.280273438 306.032226562 c 0
 561.801757812 313.913085938 565.563476562 324.838867188 565.563476562 338.80859375 c 0
EndSplineSet
EndChar

StartChar: Q
Encoding: 81 81 17
Width: 1000
Flags: H
LayerCount: 2
Fore
SplineSet
48.8251953125 401.25 m 0
 48.8251953125 129.412109375 241.413085938 -98.9755859375 500.326171875 -151.53125 c 1
 759.2109375 -98.9814453125 951.828125 129.3828125 951.828125 401.25 c 0
 951.828125 487.20703125 931.908203125 622.604492188 829.73828125 751.734375 c 1
 647.094726562 695.986328125 503.04296875 752.397460938 499.888671875 751.434570312 c 0
 414.165039062 725.271484375 297.81640625 713 170.9140625 751.734375 c 1
 143.68359375 717.318359375 48.8251953125 593.043945312 48.8251953125 401.25 c 0
500.326171875 -148.469726562 m 1
 244.404296875 -96.375 51.8251953125 129.943359375 51.8251953125 401.25 c 0
 51.8251953125 532.263671875 96.734375 652.788085938 171.997070312 748.267578125 c 1
 207.248046875 737.579101562 339.80859375 699.584960938 500.326171875 748.430664062 c 1
 535.541015625 737.71484375 668.079101562 699.576171875 828.655273438 748.267578125 c 1
 903.919921875 652.788085938 948.828125 532.263671875 948.828125 401.25 c 0
 948.828125 129.943359375 756.248046875 -96.375 500.326171875 -148.469726562 c 1
335.891601562 727.084960938 m 0
 240.107421875 727.084960938 174.219726562 751.500976562 171.455078125 751.500976562 c 0
 170.977539062 751.500976562 170.552734375 751.27734375 170.27734375 750.930664062 c 0
 94.228515625 654.811523438 48.8251953125 533.33203125 48.8251953125 401.25 c 0
 48.8251953125 128.388671875 242.5859375 -99.2138671875 500.026367188 -151.470703125 c 0
 500.133789062 -151.4921875 500.35546875 -151.525390625 500.625976562 -151.470703125 c 0
 758.06640625 -99.2138671875 951.828125 128.388671875 951.828125 401.25 c 0
 951.828125 533.33203125 906.42578125 654.811523438 830.375 750.930664062 c 0
 830.099609375 751.27734375 829.674804688 751.500976562 829.198242188 751.500976562 c 0
 826.43359375 751.500976562 760.544921875 727.084960938 664.76171875 727.084960938 c 0
 568.981445312 727.084960938 503.091796875 751.499023438 500.326171875 751.499023438 c 0
 497.551757812 751.499023438 431.6796875 727.084960938 335.891601562 727.084960938 c 0
500.326171875 -148.469726562 m 1
 244.404296875 -96.375 51.8251953125 129.943359375 51.8251953125 401.25 c 0
 51.8251953125 532.263671875 96.734375 652.788085938 171.997070312 748.267578125 c 1
 207.248046875 737.579101562 339.80859375 699.584960938 500.326171875 748.430664062 c 1
 535.541015625 737.71484375 668.079101562 699.576171875 828.655273438 748.267578125 c 1
 903.919921875 652.788085938 948.828125 532.263671875 948.828125 401.25 c 0
 948.828125 129.943359375 756.248046875 -96.375 500.326171875 -148.469726562 c 1
92.8525390625 563.16796875 m 1
 111.416992188 623.438476562 139.87109375 679.279296875 176.2890625 728.731445312 c 1
 226.432617188 714.697265625 279.250976562 707.198242188 333.794921875 707.198242188 c 0
 391.451171875 707.198242188 447.178710938 715.575195312 499.859375 731.198242188 c 1
 552.5390625 715.575195312 608.266601562 707.198242188 665.922851562 707.198242188 c 0
 720.466796875 707.198242188 773.286132812 714.697265625 823.4296875 728.731445312 c 1
 859.845703125 679.279296875 888.301757812 623.438476562 906.866210938 563.16796875 c 1
 92.8525390625 563.16796875 l 1
500.259765625 80.912109375 m 0
 459.301757812 80.912109375 427.802734375 96.4443359375 405.76171875 127.509765625 c 0
 383.720703125 158.575195312 372.700195312 203.264648438 372.700195312 261.577148438 c 0
 372.700195312 318.500976562 383.720703125 362.756835938 405.76171875 394.342773438 c 0
 427.802734375 425.928710938 459.301757812 441.721679688 500.259765625 441.721679688 c 0
 541.911132812 441.721679688 573.583984375 425.928710938 595.278320312 394.342773438 c 0
 616.971679688 362.756835938 627.818359375 318.500976562 627.818359375 261.577148438 c 0
 626.77734375 194.240234375 615.669921875 146.861328125 594.497070312 119.440429688 c 1
 621.049804688 76.7470703125 l 1
 574.712890625 46.548828125 l 1
 548.6796875 88.201171875 l 1
 531.671875 83.341796875 515.532226562 80.912109375 500.259765625 80.912109375 c 0
500.259765625 386.533203125 m 0
 475.962890625 386.533203125 458.260742188 374.9921875 447.153320312 351.91015625 c 0
 436.046875 328.828125 430.319335938 299.063476562 429.971679688 262.618164062 c 0
 429.971679688 221.66015625 435.438476562 190.595703125 446.372070312 169.421875 c 0
 457.305664062 148.249023438 475.268554688 137.8359375 500.259765625 138.18359375 c 0
 507.895507812 138.18359375 514.317382812 139.3984375 519.5234375 141.828125 c 1
 488.28515625 193.372070312 l 1
 535.143554688 224.611328125 l 1
 561.17578125 183.479492188 l 1
 567.770507812 202.223632812 571.067382812 228.602539062 571.067382812 262.618164062 c 0
 570.374023438 301.494140625 564.559570312 331.517578125 553.625976562 352.690429688 c 0
 542.692382812 373.864257812 524.903320312 385.14453125 500.259765625 386.533203125 c 0
EndSplineSet
EndChar

StartChar: R
Encoding: 82 82 18
Width: 1000
Flags: H
LayerCount: 2
Fore
SplineSet
48.8251953125 401.25 m 0
 48.8251953125 129.412109375 241.413085938 -98.9755859375 500.326171875 -151.53125 c 1
 759.2109375 -98.9814453125 951.828125 129.3828125 951.828125 401.25 c 0
 951.828125 487.20703125 931.908203125 622.604492188 829.73828125 751.734375 c 1
 769.164363443 733.245479429 712.835249481 727.093239724 664.482956401 727.093239724 c 0
 568.281507601 727.093239724 503.656189801 751.446792319 499.999550594 751.446792319 c 0
 497.819672621 751.446792319 430.687599765 727.044388538 335.703516577 727.044388538 c 0
 284.219697464 727.044388538 228.659505523 734.108745886 170.9140625 751.734375 c 1
 143.68359375 717.318359375 48.8251953125 593.043945312 48.8251953125 401.25 c 0
500.326171875 -148.469726562 m 1
 244.404296875 -96.375 51.8251953125 129.943359375 51.8251953125 401.25 c 0
 51.8251953125 532.263671875 96.734375 652.788085938 171.997070312 748.267578125 c 1
 194.121661625 741.559163245 254.578454531 724.094496785 336.220980821 724.094496785 c 0
 384.658994327 724.094496785 440.554336446 730.24201854 500.326171875 748.430664062 c 1
 522.480517123 741.689132437 583.154560557 724.093873153 665.096293754 724.093873153 c 0
 713.402839117 724.093873153 769.100704143 730.20888552 828.655273438 748.267578125 c 1
 903.919921875 652.788085938 948.828125 532.263671875 948.828125 401.25 c 0
 948.828125 129.943359375 756.248046875 -96.375 500.326171875 -148.469726562 c 1
335.891601562 727.084960938 m 0
 240.107421875 727.084960938 174.219726562 751.500976562 171.455078125 751.500976562 c 0
 170.977539062 751.500976562 170.552734375 751.27734375 170.27734375 750.930664062 c 0
 94.228515625 654.811523438 48.8251953125 533.33203125 48.8251953125 401.25 c 0
 48.8251953125 128.388671875 242.5859375 -99.2138671875 500.026367188 -151.470703125 c 0
 500.133789062 -151.4921875 500.35546875 -151.525390625 500.625976562 -151.470703125 c 0
 758.06640625 -99.2138671875 951.828125 128.388671875 951.828125 401.25 c 0
 951.828125 533.33203125 906.42578125 654.811523438 830.375 750.930664062 c 0
 830.099609375 751.27734375 829.674804688 751.500976562 829.198242188 751.500976562 c 0
 826.43359375 751.500976562 760.544921875 727.084960938 664.76171875 727.084960938 c 0
 568.981445312 727.084960938 503.091796875 751.499023438 500.326171875 751.499023438 c 0
 497.551757812 751.499023438 431.6796875 727.084960938 335.891601562 727.084960938 c 0
500.326171875 -148.469726562 m 1
 244.404296875 -96.375 51.8251953125 129.943359375 51.8251953125 401.25 c 0
 51.8251953125 532.263671875 96.734375 652.788085938 171.997070312 748.267578125 c 1
 194.121661625 741.559163245 254.578454531 724.094496785 336.220980821 724.094496785 c 0
 384.658994327 724.094496785 440.554336446 730.24201854 500.326171875 748.430664062 c 1
 522.480517123 741.689132437 583.154560557 724.093873153 665.096293754 724.093873153 c 0
 713.402839117 724.093873153 769.100704143 730.20888552 828.655273438 748.267578125 c 1
 903.919921875 652.788085938 948.828125 532.263671875 948.828125 401.25 c 0
 948.828125 129.943359375 756.248046875 -96.375 500.326171875 -148.469726562 c 1
93.1806640625 563.49609375 m 1
 111.745117188 623.766601562 140.19921875 679.607421875 176.6171875 729.059570312 c 1
 226.760742188 715.025390625 279.579101562 707.526367188 334.123046875 707.526367188 c 0
 391.780273438 707.526367188 447.506835938 715.903320312 500.1875 731.526367188 c 1
 552.8671875 715.903320312 608.594726562 707.526367188 666.250976562 707.526367188 c 0
 720.794921875 707.526367188 773.614257812 715.025390625 823.7578125 729.059570312 c 1
 860.173828125 679.607421875 888.629882812 623.766601562 907.194335938 563.49609375 c 1
 93.1806640625 563.49609375 l 1
635.11328125 79.2255859375 m 1
 573.321289062 79.2255859375 l 1
 515.291992188 235.584960938 l 1
 447.052734375 235.584960938 l 1
 447.052734375 79.2255859375 l 1
 390.09765625 79.2255859375 l 1
 390.09765625 439.2265625 l 1
 532.485351562 439.2265625 l 2
 561.859375 438.868164062 585.052734375 428.211914062 602.068359375 407.256835938 c 0
 619.083007812 386.30078125 627.590820312 363.286132812 627.590820312 338.211914062 c 0
 627.590820312 319.2265625 622.396484375 301.2265625 612.0078125 284.2109375 c 0
 601.620117188 267.196289062 588.1875 254.927734375 571.709960938 247.405273438 c 1
 635.11328125 79.2255859375 l 1
571.172851562 336.599609375 m 0
 571.172851562 350.569335938 566.963867188 361.31640625 558.545898438 368.838867188 c 0
 550.126953125 376.360351562 540.724609375 380.30078125 530.336914062 380.659179688 c 2
 447.052734375 380.659179688 l 1
 447.052734375 292.002929688 l 1
 532.485351562 292.002929688 l 2
 543.232421875 292.002929688 552.366210938 295.942382812 559.888671875 303.823242188 c 0
 567.411132812 311.704101562 571.172851562 322.629882812 571.172851562 336.599609375 c 0
EndSplineSet
EndChar

StartChar: T
Encoding: 84 84 19
Width: 1000
Flags: H
LayerCount: 2
Fore
SplineSet
48.8251953125 401.25 m 0
 48.8251953125 129.412109375 241.413085938 -98.9755859375 500.326171875 -151.53125 c 1
 759.2109375 -98.9814453125 951.828125 129.3828125 951.828125 401.25 c 0
 951.828125 487.20703125 931.908203125 622.604492188 829.73828125 751.734375 c 1
 769.164363443 733.245479429 712.835249481 727.093239724 664.482956401 727.093239724 c 0
 568.281507601 727.093239724 503.656189801 751.446792319 499.999550594 751.446792319 c 0
 497.819672621 751.446792319 430.687599765 727.044388538 335.703516577 727.044388538 c 0
 284.219697464 727.044388538 228.659505523 734.108745886 170.9140625 751.734375 c 1
 143.68359375 717.318359375 48.8251953125 593.043945312 48.8251953125 401.25 c 0
500.326171875 -148.469726562 m 1
 244.404296875 -96.375 51.8251953125 129.943359375 51.8251953125 401.25 c 0
 51.8251953125 532.263671875 96.734375 652.788085938 171.997070312 748.267578125 c 1
 194.121661625 741.559163245 254.578454531 724.094496785 336.220980821 724.094496785 c 0
 384.658994327 724.094496785 440.554336446 730.24201854 500.326171875 748.430664062 c 1
 522.480517123 741.689132437 583.154560557 724.093873153 665.096293754 724.093873153 c 0
 713.402839117 724.093873153 769.100704143 730.20888552 828.655273438 748.267578125 c 1
 903.919921875 652.788085938 948.828125 532.263671875 948.828125 401.25 c 0
 948.828125 129.943359375 756.248046875 -96.375 500.326171875 -148.469726562 c 1
335.891601562 727.084960938 m 0
 240.107421875 727.084960938 174.219726562 751.500976562 171.455078125 751.500976562 c 0
 170.977539062 751.500976562 170.552734375 751.27734375 170.27734375 750.930664062 c 0
 94.228515625 654.811523438 48.8251953125 533.33203125 48.8251953125 401.25 c 0
 48.8251953125 128.388671875 242.5859375 -99.2138671875 500.026367188 -151.470703125 c 0
 500.133789062 -151.4921875 500.35546875 -151.525390625 500.625976562 -151.470703125 c 0
 758.06640625 -99.2138671875 951.828125 128.388671875 951.828125 401.25 c 0
 951.828125 533.33203125 906.42578125 654.811523438 830.375 750.930664062 c 0
 830.099609375 751.27734375 829.674804688 751.500976562 829.198242188 751.500976562 c 0
 826.43359375 751.500976562 760.544921875 727.084960938 664.76171875 727.084960938 c 0
 568.981445312 727.084960938 503.091796875 751.499023438 500.326171875 751.499023438 c 0
 497.551757812 751.499023438 431.6796875 727.084960938 335.891601562 727.084960938 c 0
500.326171875 -148.469726562 m 1
 244.404296875 -96.375 51.8251953125 129.943359375 51.8251953125 401.25 c 0
 51.8251953125 532.263671875 96.734375 652.788085938 171.997070312 748.267578125 c 1
 194.121661625 741.559163245 254.578454531 724.094496785 336.220980821 724.094496785 c 0
 384.658994327 724.094496785 440.554336446 730.24201854 500.326171875 748.430664062 c 1
 522.480517123 741.689132437 583.154560557 724.093873153 665.096293754 724.093873153 c 0
 713.402839117 724.093873153 769.100704143 730.20888552 828.655273438 748.267578125 c 1
 903.919921875 652.788085938 948.828125 532.263671875 948.828125 401.25 c 0
 948.828125 129.943359375 756.248046875 -96.375 500.326171875 -148.469726562 c 1
94.1953125 562.83984375 m 1
 112.759765625 623.110351562 141.21484375 678.951171875 177.631835938 728.403320312 c 1
 227.776367188 714.369140625 280.59375 706.870117188 335.138671875 706.870117188 c 0
 392.794921875 706.870117188 448.522460938 715.247070312 501.202148438 730.870117188 c 1
 553.8828125 715.247070312 609.609375 706.870117188 667.266601562 706.870117188 c 0
 721.810546875 706.870117188 774.62890625 714.369140625 824.7734375 728.403320312 c 1
 861.189453125 678.951171875 889.64453125 623.110351562 908.208984375 562.83984375 c 1
 94.1953125 562.83984375 l 1
611.66015625 390.0625 m 1
 528.375976562 390.0625 l 1
 528.375976562 80.5693359375 l 1
 471.420898438 80.5693359375 l 1
 471.420898438 390.0625 l 1
 389.211914062 390.0625 l 1
 389.211914062 440.5703125 l 1
 611.66015625 440.5703125 l 1
 611.66015625 390.0625 l 1
EndSplineSet
EndChar

StartChar: U
Encoding: 85 85 20
Width: 1000
Flags: H
LayerCount: 2
Fore
SplineSet
48.8251953125 401.25 m 0
 48.8251953125 129.412109375 241.413085938 -98.9755859375 500.326171875 -151.53125 c 1
 759.2109375 -98.9814453125 951.828125 129.3828125 951.828125 401.25 c 0
 951.828125 487.20703125 931.908203125 622.604492188 829.73828125 751.734375 c 1
 769.164363443 733.245479429 712.835249481 727.093239724 664.482956401 727.093239724 c 0
 568.281507601 727.093239724 503.656189801 751.446792319 499.999550594 751.446792319 c 0
 497.819672621 751.446792319 430.687599765 727.044388538 335.703516577 727.044388538 c 0
 284.219697464 727.044388538 228.659505523 734.108745886 170.9140625 751.734375 c 1
 143.68359375 717.318359375 48.8251953125 593.043945312 48.8251953125 401.25 c 0
500.326171875 -148.469726562 m 1
 244.404296875 -96.375 51.8251953125 129.943359375 51.8251953125 401.25 c 0
 51.8251953125 532.263671875 96.734375 652.788085938 171.997070312 748.267578125 c 1
 194.121661625 741.559163245 254.578454531 724.094496785 336.220980821 724.094496785 c 0
 384.658994327 724.094496785 440.554336446 730.24201854 500.326171875 748.430664062 c 1
 522.480517123 741.689132437 583.154560557 724.093873153 665.096293754 724.093873153 c 0
 713.402839117 724.093873153 769.100704143 730.20888552 828.655273438 748.267578125 c 1
 903.919921875 652.788085938 948.828125 532.263671875 948.828125 401.25 c 0
 948.828125 129.943359375 756.248046875 -96.375 500.326171875 -148.469726562 c 1
335.891601562 727.084960938 m 0
 240.107421875 727.084960938 174.219726562 751.500976562 171.455078125 751.500976562 c 0
 170.977539062 751.500976562 170.552734375 751.27734375 170.27734375 750.930664062 c 0
 94.228515625 654.811523438 48.8251953125 533.33203125 48.8251953125 401.25 c 0
 48.8251953125 128.388671875 242.5859375 -99.2138671875 500.026367188 -151.470703125 c 0
 500.133789062 -151.4921875 500.35546875 -151.525390625 500.625976562 -151.470703125 c 0
 758.06640625 -99.2138671875 951.828125 128.388671875 951.828125 401.25 c 0
 951.828125 533.33203125 906.42578125 654.811523438 830.375 750.930664062 c 0
 830.099609375 751.27734375 829.674804688 751.500976562 829.198242188 751.500976562 c 0
 826.43359375 751.500976562 760.544921875 727.084960938 664.76171875 727.084960938 c 0
 568.981445312 727.084960938 503.091796875 751.499023438 500.326171875 751.499023438 c 0
 497.551757812 751.499023438 431.6796875 727.084960938 335.891601562 727.084960938 c 0
500.326171875 -148.469726562 m 1
 244.404296875 -96.375 51.8251953125 129.943359375 51.8251953125 401.25 c 0
 51.8251953125 532.263671875 96.734375 652.788085938 171.997070312 748.267578125 c 1
 194.121661625 741.559163245 254.578454531 724.094496785 336.220980821 724.094496785 c 0
 384.658994327 724.094496785 440.554336446 730.24201854 500.326171875 748.430664062 c 1
 522.480517123 741.689132437 583.154560557 724.093873153 665.096293754 724.093873153 c 0
 713.402839117 724.093873153 769.100704143 730.20888552 828.655273438 748.267578125 c 1
 903.919921875 652.788085938 948.828125 532.263671875 948.828125 401.25 c 0
 948.828125 129.943359375 756.248046875 -96.375 500.326171875 -148.469726562 c 1
93.1806640625 563.82421875 m 1
 111.745117188 624.094726562 140.19921875 679.935546875 176.6171875 729.387695312 c 1
 226.760742188 715.353515625 279.579101562 707.854492188 334.123046875 707.854492188 c 0
 391.780273438 707.854492188 447.506835938 716.232421875 500.1875 731.854492188 c 1
 552.8671875 716.232421875 608.594726562 707.854492188 666.250976562 707.854492188 c 0
 720.794921875 707.854492188 773.614257812 715.353515625 823.7578125 729.387695312 c 1
 860.173828125 679.935546875 888.629882812 624.094726562 907.194335938 563.82421875 c 1
 93.1806640625 563.82421875 l 1
622.442382812 213.704101562 m 2
 622.442382812 185.903320312 616.98828125 161.4453125 606.079101562 140.331054688 c 0
 597.28125 122.736328125 583.205078125 108.395507812 563.850585938 97.310546875 c 0
 544.495117188 86.2255859375 523.909179688 80.6826171875 502.090820312 80.6826171875 c 0
 480.272460938 80.6826171875 459.686523438 86.2255859375 440.331054688 97.310546875 c 0
 420.975585938 108.395507812 406.723632812 122.736328125 397.57421875 140.331054688 c 0
 387.017578125 161.4453125 381.73828125 185.903320312 381.73828125 213.704101562 c 2
 381.73828125 440.68359375 l 1
 437.69140625 440.68359375 l 1
 437.69140625 213.704101562 l 2
 437.69140625 190.830078125 443.5859375 172.442382812 455.375 158.541992188 c 0
 467.1640625 144.642578125 482.735351562 137.69140625 502.090820312 137.69140625 c 0
 521.4453125 137.69140625 537.017578125 144.642578125 548.806640625 158.541992188 c 0
 560.594726562 172.442382812 566.489257812 190.830078125 566.489257812 213.704101562 c 2
 566.489257812 440.68359375 l 1
 622.442382812 440.68359375 l 1
 622.442382812 213.704101562 l 2
EndSplineSet
EndChar

StartChar: V
Encoding: 86 86 21
Width: 1000
Flags: H
LayerCount: 2
Fore
SplineSet
48.8251953125 401.25 m 0
 48.8251953125 129.412109375 241.413085938 -98.9755859375 500.326171875 -151.53125 c 1
 759.2109375 -98.9814453125 951.828125 129.3828125 951.828125 401.25 c 0
 951.828125 487.20703125 931.908203125 622.604492188 829.73828125 751.734375 c 1
 769.164363443 733.245479429 712.835249481 727.093239724 664.482956401 727.093239724 c 0
 568.281507601 727.093239724 503.656189801 751.446792319 499.999550594 751.446792319 c 0
 497.819672621 751.446792319 430.687599765 727.044388538 335.703516577 727.044388538 c 0
 284.219697464 727.044388538 228.659505523 734.108745886 170.9140625 751.734375 c 1
 143.68359375 717.318359375 48.8251953125 593.043945312 48.8251953125 401.25 c 0
500.326171875 -148.469726562 m 1
 244.404296875 -96.375 51.8251953125 129.943359375 51.8251953125 401.25 c 0
 51.8251953125 532.263671875 96.734375 652.788085938 171.997070312 748.267578125 c 1
 194.121661625 741.559163245 254.578454531 724.094496785 336.220980821 724.094496785 c 0
 384.658994327 724.094496785 440.554336446 730.24201854 500.326171875 748.430664062 c 1
 522.480517123 741.689132437 583.154560557 724.093873153 665.096293754 724.093873153 c 0
 713.402839117 724.093873153 769.100704143 730.20888552 828.655273438 748.267578125 c 1
 903.919921875 652.788085938 948.828125 532.263671875 948.828125 401.25 c 0
 948.828125 129.943359375 756.248046875 -96.375 500.326171875 -148.469726562 c 1
335.891601562 727.084960938 m 0
 240.107421875 727.084960938 174.219726562 751.500976562 171.455078125 751.500976562 c 0
 170.977539062 751.500976562 170.552734375 751.27734375 170.27734375 750.930664062 c 0
 94.228515625 654.811523438 48.8251953125 533.33203125 48.8251953125 401.25 c 0
 48.8251953125 128.388671875 242.5859375 -99.2138671875 500.026367188 -151.470703125 c 0
 500.133789062 -151.4921875 500.35546875 -151.525390625 500.625976562 -151.470703125 c 0
 758.06640625 -99.2138671875 951.828125 128.388671875 951.828125 401.25 c 0
 951.828125 533.33203125 906.42578125 654.811523438 830.375 750.930664062 c 0
 830.099609375 751.27734375 829.674804688 751.500976562 829.198242188 751.500976562 c 0
 826.43359375 751.500976562 760.544921875 727.084960938 664.76171875 727.084960938 c 0
 568.981445312 727.084960938 503.091796875 751.499023438 500.326171875 751.499023438 c 0
 497.551757812 751.499023438 431.6796875 727.084960938 335.891601562 727.084960938 c 0
500.326171875 -148.469726562 m 1
 244.404296875 -96.375 51.8251953125 129.943359375 51.8251953125 401.25 c 0
 51.8251953125 532.263671875 96.734375 652.788085938 171.997070312 748.267578125 c 1
 194.121661625 741.559163245 254.578454531 724.094496785 336.220980821 724.094496785 c 0
 384.658994327 724.094496785 440.554336446 730.24201854 500.326171875 748.430664062 c 1
 522.480517123 741.689132437 583.154560557 724.093873153 665.096293754 724.093873153 c 0
 713.402839117 724.093873153 769.100704143 730.20888552 828.655273438 748.267578125 c 1
 903.919921875 652.788085938 948.828125 532.263671875 948.828125 401.25 c 0
 948.828125 129.943359375 756.248046875 -96.375 500.326171875 -148.469726562 c 1
93.5087890625 564.15234375 m 1
 112.073242188 624.422851562 140.52734375 680.263671875 176.9453125 729.715820312 c 1
 227.08984375 715.681640625 279.907226562 708.182617188 334.451171875 708.182617188 c 0
 392.108398438 708.182617188 447.8359375 716.560546875 500.515625 732.182617188 c 1
 553.1953125 716.560546875 608.922851562 708.182617188 666.579101562 708.182617188 c 0
 721.123046875 708.182617188 773.942382812 715.681640625 824.086914062 729.715820312 c 1
 860.501953125 680.263671875 888.958007812 624.422851562 907.522460938 564.15234375 c 1
 93.5087890625 564.15234375 l 1
638.428710938 439.5546875 m 1
 527.205078125 79.5546875 l 1
 475.0859375 79.5546875 l 1
 365.473632812 439.5546875 l 1
 425.115234375 439.5546875 l 1
 501.951171875 199.375 l 1
 577.712890625 439.5546875 l 1
 638.428710938 439.5546875 l 1
EndSplineSet
EndChar

StartChar: W
Encoding: 87 87 22
Width: 1000
Flags: H
LayerCount: 2
Fore
SplineSet
48.8251953125 401.25 m 0
 48.8251953125 129.412109375 241.413085938 -98.9755859375 500.326171875 -151.53125 c 1
 759.2109375 -98.9814453125 951.828125 129.3828125 951.828125 401.25 c 0
 951.828125 487.20703125 931.908203125 622.604492188 829.73828125 751.734375 c 1
 647.094726562 695.986328125 503.04296875 752.397460938 499.888671875 751.434570312 c 0
 414.165039062 725.271484375 297.81640625 713 170.9140625 751.734375 c 1
 143.68359375 717.318359375 48.8251953125 593.043945312 48.8251953125 401.25 c 0
500.326171875 -148.469726562 m 1
 244.404296875 -96.375 51.8251953125 129.943359375 51.8251953125 401.25 c 0
 51.8251953125 532.263671875 96.734375 652.788085938 171.997070312 748.267578125 c 1
 207.248046875 737.579101562 339.80859375 699.584960938 500.326171875 748.430664062 c 1
 535.541015625 737.71484375 668.079101562 699.576171875 828.655273438 748.267578125 c 1
 903.919921875 652.788085938 948.828125 532.263671875 948.828125 401.25 c 0
 948.828125 129.943359375 756.248046875 -96.375 500.326171875 -148.469726562 c 1
335.891601562 727.084960938 m 0
 240.107421875 727.084960938 174.219726562 751.500976562 171.455078125 751.500976562 c 0
 170.977539062 751.500976562 170.552734375 751.27734375 170.27734375 750.930664062 c 0
 94.228515625 654.811523438 48.8251953125 533.33203125 48.8251953125 401.25 c 0
 48.8251953125 128.388671875 242.5859375 -99.2138671875 500.026367188 -151.470703125 c 0
 500.133789062 -151.4921875 500.35546875 -151.525390625 500.625976562 -151.470703125 c 0
 758.06640625 -99.2138671875 951.828125 128.388671875 951.828125 401.25 c 0
 951.828125 533.33203125 906.42578125 654.811523438 830.375 750.930664062 c 0
 830.099609375 751.27734375 829.674804688 751.500976562 829.198242188 751.500976562 c 0
 826.43359375 751.500976562 760.544921875 727.084960938 664.76171875 727.084960938 c 0
 568.981445312 727.084960938 503.091796875 751.499023438 500.326171875 751.499023438 c 0
 497.551757812 751.499023438 431.6796875 727.084960938 335.891601562 727.084960938 c 0
500.326171875 -148.469726562 m 1
 244.404296875 -96.375 51.8251953125 129.943359375 51.8251953125 401.25 c 0
 51.8251953125 532.263671875 96.734375 652.788085938 171.997070312 748.267578125 c 1
 207.248046875 737.579101562 339.80859375 699.584960938 500.326171875 748.430664062 c 1
 535.541015625 737.71484375 668.079101562 699.576171875 828.655273438 748.267578125 c 1
 903.919921875 652.788085938 948.828125 532.263671875 948.828125 401.25 c 0
 948.828125 129.943359375 756.248046875 -96.375 500.326171875 -148.469726562 c 1
93.1806640625 563.854492188 m 1
 111.745117188 624.125976562 140.19921875 679.965820312 176.6171875 729.418945312 c 1
 226.760742188 715.383789062 279.579101562 707.884765625 334.123046875 707.884765625 c 0
 391.780273438 707.884765625 447.506835938 716.262695312 500.1875 731.884765625 c 1
 552.8671875 716.262695312 608.594726562 707.884765625 666.250976562 707.884765625 c 0
 720.794921875 707.884765625 773.614257812 715.383789062 823.7578125 729.418945312 c 1
 860.173828125 679.965820312 888.629882812 624.125976562 907.194335938 563.854492188 c 1
 93.1806640625 563.854492188 l 1
662.036132812 440.8984375 m 1
 608.841796875 80.8974609375 l 1
 558.334960938 80.8974609375 l 1
 501.37890625 311.943359375 l 1
 446.036132812 80.8974609375 l 1
 395.528320312 80.8974609375 l 1
 342.333984375 440.8984375 l 1
 400.364257812 440.8984375 l 1
 428.3046875 251.2265625 l 1
 473.9765625 440.8984375 l 1
 529.319335938 440.8984375 l 1
 576.065429688 251.2265625 l 1
 604.005859375 440.8984375 l 1
 662.036132812 440.8984375 l 1
EndSplineSet
EndChar

StartChar: X
Encoding: 88 88 23
Width: 1000
Flags: H
LayerCount: 2
Fore
SplineSet
48.8251953125 401.25 m 0
 48.8251953125 129.412109375 241.413085938 -98.9755859375 500.326171875 -151.53125 c 1
 759.2109375 -98.9814453125 951.828125 129.3828125 951.828125 401.25 c 0
 951.828125 487.20703125 931.908203125 622.604492188 829.73828125 751.734375 c 1
 769.164363443 733.245479429 712.835249481 727.093239724 664.482956401 727.093239724 c 0
 568.281507601 727.093239724 503.656189801 751.446792319 499.999550594 751.446792319 c 0
 497.819672621 751.446792319 430.687599765 727.044388538 335.703516577 727.044388538 c 0
 284.219697464 727.044388538 228.659505523 734.108745886 170.9140625 751.734375 c 1
 143.68359375 717.318359375 48.8251953125 593.043945312 48.8251953125 401.25 c 0
500.326171875 -148.469726562 m 1
 244.404296875 -96.375 51.8251953125 129.943359375 51.8251953125 401.25 c 0
 51.8251953125 532.263671875 96.734375 652.788085938 171.997070312 748.267578125 c 1
 194.121661625 741.559163245 254.578454531 724.094496785 336.220980821 724.094496785 c 0
 384.658994327 724.094496785 440.554336446 730.24201854 500.326171875 748.430664062 c 1
 522.480517123 741.689132437 583.154560557 724.093873153 665.096293754 724.093873153 c 0
 713.402839117 724.093873153 769.100704143 730.20888552 828.655273438 748.267578125 c 1
 903.919921875 652.788085938 948.828125 532.263671875 948.828125 401.25 c 0
 948.828125 129.943359375 756.248046875 -96.375 500.326171875 -148.469726562 c 1
335.891601562 727.084960938 m 0
 240.107421875 727.084960938 174.219726562 751.500976562 171.455078125 751.500976562 c 0
 170.977539062 751.500976562 170.552734375 751.27734375 170.27734375 750.930664062 c 0
 94.228515625 654.811523438 48.8251953125 533.33203125 48.8251953125 401.25 c 0
 48.8251953125 128.388671875 242.5859375 -99.2138671875 500.026367188 -151.470703125 c 0
 500.133789062 -151.4921875 500.35546875 -151.525390625 500.625976562 -151.470703125 c 0
 758.06640625 -99.2138671875 951.828125 128.388671875 951.828125 401.25 c 0
 951.828125 533.33203125 906.42578125 654.811523438 830.375 750.930664062 c 0
 830.099609375 751.27734375 829.674804688 751.500976562 829.198242188 751.500976562 c 0
 826.43359375 751.500976562 760.544921875 727.084960938 664.76171875 727.084960938 c 0
 568.981445312 727.084960938 503.091796875 751.499023438 500.326171875 751.499023438 c 0
 497.551757812 751.499023438 431.6796875 727.084960938 335.891601562 727.084960938 c 0
500.326171875 -148.469726562 m 1
 244.404296875 -96.375 51.8251953125 129.943359375 51.8251953125 401.25 c 0
 51.8251953125 532.263671875 96.734375 652.788085938 171.997070312 748.267578125 c 1
 194.121661625 741.559163245 254.578454531 724.094496785 336.220980821 724.094496785 c 0
 384.658994327 724.094496785 440.554336446 730.24201854 500.326171875 748.430664062 c 1
 522.480517123 741.689132437 583.154560557 724.093873153 665.096293754 724.093873153 c 0
 713.402839117 724.093873153 769.100704143 730.20888552 828.655273438 748.267578125 c 1
 903.919921875 652.788085938 948.828125 532.263671875 948.828125 401.25 c 0
 948.828125 129.943359375 756.248046875 -96.375 500.326171875 -148.469726562 c 1
92.8525390625 563.16796875 m 1
 111.416992188 623.438476562 139.87109375 679.279296875 176.2890625 728.731445312 c 1
 226.432617188 714.697265625 279.250976562 707.198242188 333.794921875 707.198242188 c 0
 391.451171875 707.198242188 447.178710938 715.575195312 499.859375 731.198242188 c 1
 552.5390625 715.575195312 608.266601562 707.198242188 665.922851562 707.198242188 c 0
 720.466796875 707.198242188 773.286132812 714.697265625 823.4296875 728.731445312 c 1
 859.845703125 679.279296875 888.301757812 623.438476562 906.866210938 563.16796875 c 1
 92.8525390625 563.16796875 l 1
621.73828125 82.5693359375 m 1
 557.260742188 82.5693359375 l 1
 499.231445312 202.390625 l 1
 441.201171875 82.5693359375 l 1
 376.723632812 82.5693359375 l 1
 466.455078125 267.943359375 l 1
 383.170898438 442.5703125 l 1
 447.111328125 442.5703125 l 1
 499.231445312 335.107421875 l 1
 550.813476562 442.5703125 l 1
 615.291015625 442.5703125 l 1
 530.932617188 267.943359375 l 1
 621.73828125 82.5693359375 l 1
EndSplineSet
EndChar

StartChar: Y
Encoding: 89 89 24
Width: 1000
Flags: H
LayerCount: 2
Fore
SplineSet
48.8251953125 401.25 m 0
 48.8251953125 129.412109375 241.413085938 -98.9755859375 500.326171875 -151.53125 c 1
 759.2109375 -98.9814453125 951.828125 129.3828125 951.828125 401.25 c 0
 951.828125 487.20703125 931.908203125 622.604492188 829.73828125 751.734375 c 1
 769.164363443 733.245479429 712.835249481 727.093239724 664.482956401 727.093239724 c 0
 568.281507601 727.093239724 503.656189801 751.446792319 499.999550594 751.446792319 c 0
 497.819672621 751.446792319 430.687599765 727.044388538 335.703516577 727.044388538 c 0
 284.219697464 727.044388538 228.659505523 734.108745886 170.9140625 751.734375 c 1
 143.68359375 717.318359375 48.8251953125 593.043945312 48.8251953125 401.25 c 0
500.326171875 -148.469726562 m 1
 244.404296875 -96.375 51.8251953125 129.943359375 51.8251953125 401.25 c 0
 51.8251953125 532.263671875 96.734375 652.788085938 171.997070312 748.267578125 c 1
 194.121661625 741.559163245 254.578454531 724.094496785 336.220980821 724.094496785 c 0
 384.658994327 724.094496785 440.554336446 730.24201854 500.326171875 748.430664062 c 1
 522.480517123 741.689132437 583.154560557 724.093873153 665.096293754 724.093873153 c 0
 713.402839117 724.093873153 769.100704143 730.20888552 828.655273438 748.267578125 c 1
 903.919921875 652.788085938 948.828125 532.263671875 948.828125 401.25 c 0
 948.828125 129.943359375 756.248046875 -96.375 500.326171875 -148.469726562 c 1
335.891601562 727.084960938 m 0
 240.107421875 727.084960938 174.219726562 751.500976562 171.455078125 751.500976562 c 0
 170.977539062 751.500976562 170.552734375 751.27734375 170.27734375 750.930664062 c 0
 94.228515625 654.811523438 48.8251953125 533.33203125 48.8251953125 401.25 c 0
 48.8251953125 128.388671875 242.5859375 -99.2138671875 500.026367188 -151.470703125 c 0
 500.133789062 -151.4921875 500.35546875 -151.525390625 500.625976562 -151.470703125 c 0
 758.06640625 -99.2138671875 951.828125 128.388671875 951.828125 401.25 c 0
 951.828125 533.33203125 906.42578125 654.811523438 830.375 750.930664062 c 0
 830.099609375 751.27734375 829.674804688 751.500976562 829.198242188 751.500976562 c 0
 826.43359375 751.500976562 760.544921875 727.084960938 664.76171875 727.084960938 c 0
 568.981445312 727.084960938 503.091796875 751.499023438 500.326171875 751.499023438 c 0
 497.551757812 751.499023438 431.6796875 727.084960938 335.891601562 727.084960938 c 0
500.326171875 -148.469726562 m 1
 244.404296875 -96.375 51.8251953125 129.943359375 51.8251953125 401.25 c 0
 51.8251953125 532.263671875 96.734375 652.788085938 171.997070312 748.267578125 c 1
 194.121661625 741.559163245 254.578454531 724.094496785 336.220980821 724.094496785 c 0
 384.658994327 724.094496785 440.554336446 730.24201854 500.326171875 748.430664062 c 1
 522.480517123 741.689132437 583.154560557 724.093873153 665.096293754 724.093873153 c 0
 713.402839117 724.093873153 769.100704143 730.20888552 828.655273438 748.267578125 c 1
 903.919921875 652.788085938 948.828125 532.263671875 948.828125 401.25 c 0
 948.828125 129.943359375 756.248046875 -96.375 500.326171875 -148.469726562 c 1
92.8525390625 564.48046875 m 1
 111.416992188 624.750976562 139.87109375 680.591796875 176.2890625 730.043945312 c 1
 226.432617188 716.009765625 279.250976562 708.510742188 333.794921875 708.510742188 c 0
 391.451171875 708.510742188 447.178710938 716.888671875 499.859375 732.510742188 c 1
 552.5390625 716.888671875 608.266601562 708.510742188 665.922851562 708.510742188 c 0
 720.466796875 708.510742188 773.286132812 716.009765625 823.4296875 730.043945312 c 1
 859.845703125 680.591796875 888.301757812 624.750976562 906.866210938 564.48046875 c 1
 92.8525390625 564.48046875 l 1
654.791992188 440.8984375 m 1
 530.134765625 237.255859375 l 1
 530.134765625 80.8974609375 l 1
 473.1796875 80.8974609375 l 1
 473.1796875 237.255859375 l 1
 346.911132812 440.8984375 l 1
 415.150390625 440.8984375 l 1
 501.120117188 301.734375 l 1
 588.165039062 440.8984375 l 1
 654.791992188 440.8984375 l 1
EndSplineSet
EndChar

StartChar: Z
Encoding: 90 90 25
Width: 1000
Flags: H
LayerCount: 2
Fore
SplineSet
48.8251953125 401.25 m 0
 48.8251953125 129.412109375 241.413085938 -98.9755859375 500.326171875 -151.53125 c 1
 759.2109375 -98.9814453125 951.828125 129.3828125 951.828125 401.25 c 0
 951.828125 487.20703125 931.908203125 622.604492188 829.73828125 751.734375 c 1
 769.164363443 733.245479429 712.835249481 727.093239724 664.482956401 727.093239724 c 0
 568.281507601 727.093239724 503.656189801 751.446792319 499.999550594 751.446792319 c 0
 497.819672621 751.446792319 430.687599765 727.044388538 335.703516577 727.044388538 c 0
 284.219697464 727.044388538 228.659505523 734.108745886 170.9140625 751.734375 c 1
 143.68359375 717.318359375 48.8251953125 593.043945312 48.8251953125 401.25 c 0
500.326171875 -148.469726562 m 1
 244.404296875 -96.375 51.8251953125 129.943359375 51.8251953125 401.25 c 0
 51.8251953125 532.263671875 96.734375 652.788085938 171.997070312 748.267578125 c 1
 194.121661625 741.559163245 254.578454531 724.094496785 336.220980821 724.094496785 c 0
 384.658994327 724.094496785 440.554336446 730.24201854 500.326171875 748.430664062 c 1
 522.480517123 741.689132437 583.154560557 724.093873153 665.096293754 724.093873153 c 0
 713.402839117 724.093873153 769.100704143 730.20888552 828.655273438 748.267578125 c 1
 903.919921875 652.788085938 948.828125 532.263671875 948.828125 401.25 c 0
 948.828125 129.943359375 756.248046875 -96.375 500.326171875 -148.469726562 c 1
335.891601562 727.084960938 m 0
 240.107421875 727.084960938 174.219726562 751.500976562 171.455078125 751.500976562 c 0
 170.977539062 751.500976562 170.552734375 751.27734375 170.27734375 750.930664062 c 0
 94.228515625 654.811523438 48.8251953125 533.33203125 48.8251953125 401.25 c 0
 48.8251953125 128.388671875 242.5859375 -99.2138671875 500.026367188 -151.470703125 c 0
 500.133789062 -151.4921875 500.35546875 -151.525390625 500.625976562 -151.470703125 c 0
 758.06640625 -99.2138671875 951.828125 128.388671875 951.828125 401.25 c 0
 951.828125 533.33203125 906.42578125 654.811523438 830.375 750.930664062 c 0
 830.099609375 751.27734375 829.674804688 751.500976562 829.198242188 751.500976562 c 0
 826.43359375 751.500976562 760.544921875 727.084960938 664.76171875 727.084960938 c 0
 568.981445312 727.084960938 503.091796875 751.499023438 500.326171875 751.499023438 c 0
 497.551757812 751.499023438 431.6796875 727.084960938 335.891601562 727.084960938 c 0
500.326171875 -148.469726562 m 1
 244.404296875 -96.375 51.8251953125 129.943359375 51.8251953125 401.25 c 0
 51.8251953125 532.263671875 96.734375 652.788085938 171.997070312 748.267578125 c 1
 194.121661625 741.559163245 254.578454531 724.094496785 336.220980821 724.094496785 c 0
 384.658994327 724.094496785 440.554336446 730.24201854 500.326171875 748.430664062 c 1
 522.480517123 741.689132437 583.154560557 724.093873153 665.096293754 724.093873153 c 0
 713.402839117 724.093873153 769.100704143 730.20888552 828.655273438 748.267578125 c 1
 903.919921875 652.788085938 948.828125 532.263671875 948.828125 401.25 c 0
 948.828125 129.943359375 756.248046875 -96.375 500.326171875 -148.469726562 c 1
93.1806640625 563.49609375 m 1
 111.745117188 623.766601562 140.19921875 679.607421875 176.6171875 729.059570312 c 1
 226.760742188 715.025390625 279.579101562 707.526367188 334.123046875 707.526367188 c 0
 391.780273438 707.526367188 447.506835938 715.903320312 500.1875 731.526367188 c 1
 552.8671875 715.903320312 608.594726562 707.526367188 666.250976562 707.526367188 c 0
 720.794921875 707.526367188 773.614257812 715.025390625 823.7578125 729.059570312 c 1
 860.173828125 679.607421875 888.629882812 623.766601562 907.194335938 563.49609375 c 1
 93.1806640625 563.49609375 l 1
618.395507812 78.8974609375 m 1
 373.379882812 78.8974609375 l 1
 373.379882812 130.479492188 l 1
 540.484375 381.943359375 l 1
 387.349609375 381.943359375 l 1
 387.349609375 438.8984375 l 1
 618.395507812 438.8984375 l 1
 618.395507812 386.779296875 l 1
 448.603515625 136.927734375 l 1
 618.395507812 136.927734375 l 1
 618.395507812 78.8974609375 l 1
EndSplineSet
EndChar

StartChar: a
Encoding: 97 97 26
Width: 1000
Flags: H
LayerCount: 2
Fore
SplineSet
48.8251953125 401.25 m 0
 48.8251953125 129.412109375 241.413085938 -98.9755859375 500.326171875 -151.53125 c 1
 759.2109375 -98.9814453125 951.828125 129.3828125 951.828125 401.25 c 0
 951.828125 487.20703125 931.908203125 622.604492188 829.73828125 751.734375 c 1
 647.094726562 695.986328125 503.04296875 752.397460938 499.888671875 751.434570312 c 0
 414.165039062 725.271484375 297.81640625 713 170.9140625 751.734375 c 1
 143.68359375 717.318359375 48.8251953125 593.043945312 48.8251953125 401.25 c 0
500.326171875 -148.469726562 m 1
 244.404296875 -96.375 51.8251953125 129.943359375 51.8251953125 401.25 c 0
 51.8251953125 532.263671875 96.734375 652.788085938 171.997070312 748.267578125 c 1
 207.248046875 737.579101562 339.80859375 699.584960938 500.326171875 748.430664062 c 1
 535.541015625 737.71484375 668.079101562 699.576171875 828.655273438 748.267578125 c 1
 903.919921875 652.788085938 948.828125 532.263671875 948.828125 401.25 c 0
 948.828125 129.943359375 756.248046875 -96.375 500.326171875 -148.469726562 c 1
335.891601562 727.084960938 m 0
 240.107421875 727.084960938 174.219726562 751.500976562 171.455078125 751.500976562 c 0
 170.977539062 751.500976562 170.552734375 751.27734375 170.27734375 750.930664062 c 0
 94.228515625 654.811523438 48.8251953125 533.33203125 48.8251953125 401.25 c 0
 48.8251953125 128.388671875 242.5859375 -99.2138671875 500.026367188 -151.470703125 c 0
 500.133789062 -151.4921875 500.35546875 -151.525390625 500.625976562 -151.470703125 c 0
 758.06640625 -99.2138671875 951.828125 128.388671875 951.828125 401.25 c 0
 951.828125 533.33203125 906.42578125 654.811523438 830.375 750.930664062 c 0
 830.099609375 751.27734375 829.674804688 751.500976562 829.198242188 751.500976562 c 0
 826.43359375 751.500976562 760.544921875 727.084960938 664.76171875 727.084960938 c 0
 568.981445312 727.084960938 503.091796875 751.499023438 500.326171875 751.499023438 c 0
 497.551757812 751.499023438 431.6796875 727.084960938 335.891601562 727.084960938 c 0
500.326171875 -148.469726562 m 1
 244.404296875 -96.375 51.8251953125 129.943359375 51.8251953125 401.25 c 0
 51.8251953125 532.263671875 96.734375 652.788085938 171.997070312 748.267578125 c 1
 207.248046875 737.579101562 339.80859375 699.584960938 500.326171875 748.430664062 c 1
 535.541015625 737.71484375 668.079101562 699.576171875 828.655273438 748.267578125 c 1
 903.919921875 652.788085938 948.828125 532.263671875 948.828125 401.25 c 0
 948.828125 129.943359375 756.248046875 -96.375 500.326171875 -148.469726562 c 1
93.1806640625 562.15234375 m 1
 111.745117188 622.422851562 140.19921875 678.263671875 176.6171875 727.715820312 c 1
 226.760742188 713.681640625 279.579101562 706.182617188 334.123046875 706.182617188 c 0
 391.780273438 706.182617188 447.506835938 714.560546875 500.1875 730.182617188 c 1
 552.8671875 714.560546875 608.594726562 706.182617188 666.250976562 706.182617188 c 0
 720.794921875 706.182617188 773.614257812 713.681640625 823.7578125 727.715820312 c 1
 860.173828125 678.263671875 888.629882812 622.422851562 907.194335938 562.15234375 c 1
 93.1806640625 562.15234375 l 1
598.133789062 86.15234375 m 1
 544.029296875 86.15234375 l 1
 544.029296875 94.556640625 l 1
 530.37109375 84.7509765625 515.137695312 79.673828125 498.329101562 79.3232421875 c 0
 470.313476562 79.673828125 447.112304688 87.640625 428.727539062 103.224609375 c 0
 410.341796875 118.807617188 401.149414062 141.482421875 401.149414062 171.25 c 0
 401.149414062 196.814453125 409.641601562 218.263671875 426.625976562 235.59765625 c 0
 443.610351562 252.932617188 466.635742188 261.424804688 495.702148438 261.07421875 c 0
 511.811523438 261.07421875 526.869140625 259.1484375 540.876953125 255.296875 c 1
 541.577148438 280.861328125 528.62109375 294.868164062 502.005859375 297.3203125 c 0
 479.243164062 298.020507812 458.756835938 291.716796875 440.546875 278.409179688 c 1
 412.706054688 320.958007812 l 1
 437.919921875 338.818359375 467.161132812 348.2734375 500.4296875 349.32421875 c 0
 527.745117188 349.32421875 550.770507812 341.532226562 569.505859375 325.948242188 c 0
 588.241210938 310.364257812 597.784179688 287.689453125 598.133789062 257.922851562 c 2
 598.133789062 86.15234375 l 1
539.301757812 145.510742188 m 1
 539.301757812 203.29296875 l 1
 523.892578125 207.495117188 508.484375 209.595703125 493.076171875 209.595703125 c 0
 480.819335938 209.595703125 470.663085938 205.568359375 462.608398438 197.514648438 c 0
 454.5546875 189.459960938 450.702148438 180.354492188 451.052734375 170.19921875 c 0
 451.052734375 159.693359375 455.166992188 149.712890625 463.396484375 140.2578125 c 0
 471.625976562 130.801757812 482.745117188 126.07421875 496.752929688 126.07421875 c 0
 511.811523438 126.07421875 525.994140625 132.552734375 539.301757812 145.510742188 c 1
EndSplineSet
EndChar

StartChar: b
Encoding: 98 98 27
Width: 1000
Flags: H
LayerCount: 2
Fore
SplineSet
48.8251953125 401.25 m 0
 48.8251953125 129.412109375 241.413085938 -98.9755859375 500.326171875 -151.53125 c 1
 759.2109375 -98.9814453125 951.828125 129.3828125 951.828125 401.25 c 0
 951.828125 487.20703125 931.908203125 622.604492188 829.73828125 751.734375 c 1
 647.094726562 695.986328125 503.04296875 752.397460938 499.888671875 751.434570312 c 0
 414.165039062 725.271484375 297.81640625 713 170.9140625 751.734375 c 1
 143.68359375 717.318359375 48.8251953125 593.043945312 48.8251953125 401.25 c 0
500.326171875 -148.469726562 m 1
 244.404296875 -96.375 51.8251953125 129.943359375 51.8251953125 401.25 c 0
 51.8251953125 532.263671875 96.734375 652.788085938 171.997070312 748.267578125 c 1
 207.248046875 737.579101562 339.80859375 699.584960938 500.326171875 748.430664062 c 1
 535.541015625 737.71484375 668.079101562 699.576171875 828.655273438 748.267578125 c 1
 903.919921875 652.788085938 948.828125 532.263671875 948.828125 401.25 c 0
 948.828125 129.943359375 756.248046875 -96.375 500.326171875 -148.469726562 c 1
335.891601562 727.084960938 m 0
 240.107421875 727.084960938 174.219726562 751.500976562 171.455078125 751.500976562 c 0
 170.977539062 751.500976562 170.552734375 751.27734375 170.27734375 750.930664062 c 0
 94.228515625 654.811523438 48.8251953125 533.33203125 48.8251953125 401.25 c 0
 48.8251953125 128.388671875 242.5859375 -99.2138671875 500.026367188 -151.470703125 c 0
 500.133789062 -151.4921875 500.35546875 -151.525390625 500.625976562 -151.470703125 c 0
 758.06640625 -99.2138671875 951.828125 128.388671875 951.828125 401.25 c 0
 951.828125 533.33203125 906.42578125 654.811523438 830.375 750.930664062 c 0
 830.099609375 751.27734375 829.674804688 751.500976562 829.198242188 751.500976562 c 0
 826.43359375 751.500976562 760.544921875 727.084960938 664.76171875 727.084960938 c 0
 568.981445312 727.084960938 503.091796875 751.499023438 500.326171875 751.499023438 c 0
 497.551757812 751.499023438 431.6796875 727.084960938 335.891601562 727.084960938 c 0
500.326171875 -148.469726562 m 1
 244.404296875 -96.375 51.8251953125 129.943359375 51.8251953125 401.25 c 0
 51.8251953125 532.263671875 96.734375 652.788085938 171.997070312 748.267578125 c 1
 207.248046875 737.579101562 339.80859375 699.584960938 500.326171875 748.430664062 c 1
 535.541015625 737.71484375 668.079101562 699.576171875 828.655273438 748.267578125 c 1
 903.919921875 652.788085938 948.828125 532.263671875 948.828125 401.25 c 0
 948.828125 129.943359375 756.248046875 -96.375 500.326171875 -148.469726562 c 1
500.932617188 80.9716796875 m 0
 482.923828125 80.9716796875 466.647460938 85.9931640625 452.1015625 96.0361328125 c 1
 452.1015625 87.205078125 l 1
 397.036132812 87.205078125 l 1
 397.036132812 413.439453125 l 1
 452.1015625 440.971679688 l 1
 452.1015625 329.283203125 l 1
 463.18359375 341.05859375 479.114257812 347.119140625 499.893554688 347.465820312 c 0
 569.850585938 346.080078125 604.829101562 300.365234375 604.829101562 210.322265625 c 0
 604.829101562 124.087890625 570.197265625 80.9716796875 500.932617188 80.9716796875 c 0
550.802734375 210.841796875 m 0
 550.802734375 264.17578125 533.833007812 291.880859375 499.893554688 293.958984375 c 0
 478.768554688 293.958984375 463.18359375 285.473632812 453.140625 268.50390625 c 1
 453.140625 154.21875 l 1
 465.954101562 137.594726562 482.05859375 129.456054688 501.452148438 129.802734375 c 0
 534.006835938 130.149414062 550.456054688 157.162109375 550.802734375 210.841796875 c 0
94.5244140625 562.83984375 m 1
 113.087890625 623.110351562 141.54296875 678.951171875 177.959960938 728.403320312 c 1
 228.104492188 714.369140625 280.921875 706.870117188 335.466796875 706.870117188 c 0
 393.123046875 706.870117188 448.850585938 715.247070312 501.530273438 730.870117188 c 1
 554.2109375 715.247070312 609.938476562 706.870117188 667.594726562 706.870117188 c 0
 722.138671875 706.870117188 774.95703125 714.369140625 825.1015625 728.403320312 c 1
 861.517578125 678.951171875 889.97265625 623.110351562 908.537109375 562.83984375 c 1
 94.5244140625 562.83984375 l 1
EndSplineSet
EndChar

StartChar: e
Encoding: 101 101 28
Width: 1000
Flags: H
LayerCount: 2
Fore
SplineSet
48.8251953125 401.25 m 0
 48.8251953125 129.412109375 241.413085938 -98.9755859375 500.326171875 -151.53125 c 1
 759.2109375 -98.9814453125 951.828125 129.3828125 951.828125 401.25 c 0
 951.828125 487.20703125 931.908203125 622.604492188 829.73828125 751.734375 c 1
 647.094726562 695.986328125 503.04296875 752.397460938 499.888671875 751.434570312 c 0
 414.165039062 725.271484375 297.81640625 713 170.9140625 751.734375 c 1
 143.68359375 717.318359375 48.8251953125 593.043945312 48.8251953125 401.25 c 0
500.326171875 -148.469726562 m 1
 244.404296875 -96.375 51.8251953125 129.943359375 51.8251953125 401.25 c 0
 51.8251953125 532.263671875 96.734375 652.788085938 171.997070312 748.267578125 c 1
 207.248046875 737.579101562 339.80859375 699.584960938 500.326171875 748.430664062 c 1
 535.541015625 737.71484375 668.079101562 699.576171875 828.655273438 748.267578125 c 1
 903.919921875 652.788085938 948.828125 532.263671875 948.828125 401.25 c 0
 948.828125 129.943359375 756.248046875 -96.375 500.326171875 -148.469726562 c 1
335.891601562 727.084960938 m 0
 240.107421875 727.084960938 174.219726562 751.500976562 171.455078125 751.500976562 c 0
 170.977539062 751.500976562 170.552734375 751.27734375 170.27734375 750.930664062 c 0
 94.228515625 654.811523438 48.8251953125 533.33203125 48.8251953125 401.25 c 0
 48.8251953125 128.388671875 242.5859375 -99.2138671875 500.026367188 -151.470703125 c 0
 500.133789062 -151.4921875 500.35546875 -151.525390625 500.625976562 -151.470703125 c 0
 758.06640625 -99.2138671875 951.828125 128.388671875 951.828125 401.25 c 0
 951.828125 533.33203125 906.42578125 654.811523438 830.375 750.930664062 c 0
 830.099609375 751.27734375 829.674804688 751.500976562 829.198242188 751.500976562 c 0
 826.43359375 751.500976562 760.544921875 727.084960938 664.76171875 727.084960938 c 0
 568.981445312 727.084960938 503.091796875 751.499023438 500.326171875 751.499023438 c 0
 497.551757812 751.499023438 431.6796875 727.084960938 335.891601562 727.084960938 c 0
500.326171875 -148.469726562 m 1
 244.404296875 -96.375 51.8251953125 129.943359375 51.8251953125 401.25 c 0
 51.8251953125 532.263671875 96.734375 652.788085938 171.997070312 748.267578125 c 1
 207.248046875 737.579101562 339.80859375 699.584960938 500.326171875 748.430664062 c 1
 535.541015625 737.71484375 668.079101562 699.576171875 828.655273438 748.267578125 c 1
 903.919921875 652.788085938 948.828125 532.263671875 948.828125 401.25 c 0
 948.828125 129.943359375 756.248046875 -96.375 500.326171875 -148.469726562 c 1
605.534179688 192.0625 m 1
 453.955078125 192.0625 l 1
 453.955078125 175.571289062 458.340820312 161.974609375 467.11328125 151.272460938 c 0
 475.885742188 140.571289062 487.2890625 135.395507812 501.32421875 135.74609375 c 0
 520.97265625 135.044921875 536.060546875 143.641601562 546.586914062 161.536132812 c 1
 596.586914062 141.009765625 l 1
 579.043945312 101.7109375 547.639648438 81.5361328125 502.376953125 80.4833984375 c 0
 470.446289062 80.4833984375 444.745117188 92.2373046875 425.271484375 115.74609375 c 0
 405.797851562 139.255859375 396.060546875 172.939453125 396.060546875 216.798828125 c 0
 396.060546875 252.939453125 405.446289062 284.255859375 424.21875 310.747070312 c 0
 442.990234375 337.23828125 469.04296875 350.483398438 502.376953125 350.483398438 c 0
 533.604492188 350.483398438 558.604492188 338.203125 577.376953125 313.641601562 c 0
 596.1484375 289.080078125 605.534179688 248.553710938 605.534179688 192.0625 c 1
549.21875 243.641601562 m 1
 549.569335938 258.377929688 545.446289062 271.185546875 536.850585938 282.0625 c 0
 528.25390625 292.939453125 516.762695312 298.377929688 502.376953125 298.377929688 c 0
 486.938476562 298.729492188 474.657226562 293.02734375 465.534179688 281.2734375 c 0
 456.412109375 269.518554688 452.201171875 256.974609375 452.90234375 243.641601562 c 1
 549.21875 243.641601562 l 1
94.5244140625 564.182617188 m 1
 113.087890625 624.454101562 141.54296875 680.294921875 177.959960938 729.747070312 c 1
 228.104492188 715.711914062 280.921875 708.212890625 335.466796875 708.212890625 c 0
 393.123046875 708.212890625 448.850585938 716.590820312 501.530273438 732.212890625 c 1
 554.2109375 716.590820312 609.938476562 708.212890625 667.594726562 708.212890625 c 0
 722.138671875 708.212890625 774.95703125 715.711914062 825.1015625 729.747070312 c 1
 861.517578125 680.294921875 889.97265625 624.454101562 908.537109375 564.182617188 c 1
 94.5244140625 564.182617188 l 1
EndSplineSet
EndChar

StartChar: l
Encoding: 108 108 29
Width: 1000
Flags: H
LayerCount: 2
Fore
SplineSet
48.8251953125 401.25 m 0
 48.8251953125 129.412109375 241.413085938 -98.9755859375 500.326171875 -151.53125 c 1
 759.2109375 -98.9814453125 951.828125 129.3828125 951.828125 401.25 c 0
 951.828125 487.20703125 931.908203125 622.604492188 829.73828125 751.734375 c 1
 647.094726562 695.986328125 503.04296875 752.397460938 499.888671875 751.434570312 c 0
 414.165039062 725.271484375 297.81640625 713 170.9140625 751.734375 c 1
 143.68359375 717.318359375 48.8251953125 593.043945312 48.8251953125 401.25 c 0
500.326171875 -148.469726562 m 1
 244.404296875 -96.375 51.8251953125 129.943359375 51.8251953125 401.25 c 0
 51.8251953125 532.263671875 96.734375 652.788085938 171.997070312 748.267578125 c 1
 207.248046875 737.579101562 339.80859375 699.584960938 500.326171875 748.430664062 c 1
 535.541015625 737.71484375 668.079101562 699.576171875 828.655273438 748.267578125 c 1
 903.919921875 652.788085938 948.828125 532.263671875 948.828125 401.25 c 0
 948.828125 129.943359375 756.248046875 -96.375 500.326171875 -148.469726562 c 1
335.891601562 727.084960938 m 0
 240.107421875 727.084960938 174.219726562 751.500976562 171.455078125 751.500976562 c 0
 170.977539062 751.500976562 170.552734375 751.27734375 170.27734375 750.930664062 c 0
 94.228515625 654.811523438 48.8251953125 533.33203125 48.8251953125 401.25 c 0
 48.8251953125 128.388671875 242.5859375 -99.2138671875 500.026367188 -151.470703125 c 0
 500.133789062 -151.4921875 500.35546875 -151.525390625 500.625976562 -151.470703125 c 0
 758.06640625 -99.2138671875 951.828125 128.388671875 951.828125 401.25 c 0
 951.828125 533.33203125 906.42578125 654.811523438 830.375 750.930664062 c 0
 830.099609375 751.27734375 829.674804688 751.500976562 829.198242188 751.500976562 c 0
 826.43359375 751.500976562 760.544921875 727.084960938 664.76171875 727.084960938 c 0
 568.981445312 727.084960938 503.091796875 751.499023438 500.326171875 751.499023438 c 0
 497.551757812 751.499023438 431.6796875 727.084960938 335.891601562 727.084960938 c 0
500.326171875 -148.469726562 m 1
 244.404296875 -96.375 51.8251953125 129.943359375 51.8251953125 401.25 c 0
 51.8251953125 532.263671875 96.734375 652.788085938 171.997070312 748.267578125 c 1
 207.248046875 737.579101562 339.80859375 699.584960938 500.326171875 748.430664062 c 1
 535.541015625 737.71484375 668.079101562 699.576171875 828.655273438 748.267578125 c 1
 903.919921875 652.788085938 948.828125 532.263671875 948.828125 401.25 c 0
 948.828125 129.943359375 756.248046875 -96.375 500.326171875 -148.469726562 c 1
92.8525390625 562.450195312 m 1
 111.416992188 622.720703125 139.87109375 678.561523438 176.2890625 728.013671875 c 1
 226.432617188 713.979492188 279.250976562 706.48046875 333.794921875 706.48046875 c 0
 391.451171875 706.48046875 447.178710938 714.858398438 499.859375 730.48046875 c 1
 552.5390625 714.858398438 608.266601562 706.48046875 665.922851562 706.48046875 c 0
 720.466796875 706.48046875 773.286132812 713.979492188 823.4296875 728.013671875 c 1
 859.845703125 678.561523438 888.301757812 622.720703125 906.866210938 562.450195312 c 1
 92.8525390625 562.450195312 l 1
529.747070312 81.5146484375 m 1
 472.654296875 81.5146484375 l 1
 472.654296875 412.96875 l 1
 529.747070312 441.514648438 l 1
 529.747070312 81.5146484375 l 1
EndSplineSet
EndChar

StartChar: i
Encoding: 105 105 30
Width: 1000
Flags: H
LayerCount: 2
Fore
SplineSet
48.8251953125 401.25 m 0
 48.8251953125 129.412109375 241.413085938 -98.9755859375 500.326171875 -151.53125 c 1
 759.2109375 -98.9814453125 951.828125 129.3828125 951.828125 401.25 c 0
 951.828125 487.20703125 931.908203125 622.604492188 829.73828125 751.734375 c 1
 647.094726562 695.986328125 503.04296875 752.397460938 499.888671875 751.434570312 c 0
 414.165039062 725.271484375 297.81640625 713 170.9140625 751.734375 c 1
 143.68359375 717.318359375 48.8251953125 593.043945312 48.8251953125 401.25 c 0
500.326171875 -148.469726562 m 1
 244.404296875 -96.375 51.8251953125 129.943359375 51.8251953125 401.25 c 0
 51.8251953125 532.263671875 96.734375 652.788085938 171.997070312 748.267578125 c 1
 207.248046875 737.579101562 339.80859375 699.584960938 500.326171875 748.430664062 c 1
 535.541015625 737.71484375 668.079101562 699.576171875 828.655273438 748.267578125 c 1
 903.919921875 652.788085938 948.828125 532.263671875 948.828125 401.25 c 0
 948.828125 129.943359375 756.248046875 -96.375 500.326171875 -148.469726562 c 1
335.891601562 727.084960938 m 0
 240.107421875 727.084960938 174.219726562 751.500976562 171.455078125 751.500976562 c 0
 170.977539062 751.500976562 170.552734375 751.27734375 170.27734375 750.930664062 c 0
 94.228515625 654.811523438 48.8251953125 533.33203125 48.8251953125 401.25 c 0
 48.8251953125 128.388671875 242.5859375 -99.2138671875 500.026367188 -151.470703125 c 0
 500.133789062 -151.4921875 500.35546875 -151.525390625 500.625976562 -151.470703125 c 0
 758.06640625 -99.2138671875 951.828125 128.388671875 951.828125 401.25 c 0
 951.828125 533.33203125 906.42578125 654.811523438 830.375 750.930664062 c 0
 830.099609375 751.27734375 829.674804688 751.500976562 829.198242188 751.500976562 c 0
 826.43359375 751.500976562 760.544921875 727.084960938 664.76171875 727.084960938 c 0
 568.981445312 727.084960938 503.091796875 751.499023438 500.326171875 751.499023438 c 0
 497.551757812 751.499023438 431.6796875 727.084960938 335.891601562 727.084960938 c 0
500.326171875 -148.469726562 m 1
 244.404296875 -96.375 51.8251953125 129.943359375 51.8251953125 401.25 c 0
 51.8251953125 532.263671875 96.734375 652.788085938 171.997070312 748.267578125 c 1
 207.248046875 737.579101562 339.80859375 699.584960938 500.326171875 748.430664062 c 1
 535.541015625 737.71484375 668.079101562 699.576171875 828.655273438 748.267578125 c 1
 903.919921875 652.788085938 948.828125 532.263671875 948.828125 401.25 c 0
 948.828125 129.943359375 756.248046875 -96.375 500.326171875 -148.469726562 c 1
529.891601562 411.953125 m 0
 529.891601562 403.84765625 527.072265625 397.063476562 521.43359375 391.600585938 c 0
 515.794921875 386.138671875 509.098632812 383.407226562 501.345703125 383.407226562 c 0
 493.944335938 383.407226562 487.336914062 386.314453125 481.521484375 392.129882812 c 0
 475.70703125 397.944335938 472.798828125 404.552734375 472.798828125 411.953125 c 0
 472.798828125 419.354492188 475.70703125 425.961914062 481.521484375 431.77734375 c 0
 487.336914062 437.591796875 493.944335938 440.5 501.345703125 440.5 c 0
 508.74609375 440.5 515.354492188 437.591796875 521.168945312 431.77734375 c 0
 526.984375 425.961914062 529.891601562 419.354492188 529.891601562 411.953125 c 0
530.419921875 80.4990234375 m 1
 472.798828125 80.4990234375 l 1
 472.798828125 339.001953125 l 1
 530.419921875 339.001953125 l 1
 530.419921875 80.4990234375 l 1
93.1806640625 562.838867188 m 1
 111.745117188 623.110351562 140.19921875 678.951171875 176.6171875 728.403320312 c 1
 226.760742188 714.369140625 279.579101562 706.870117188 334.123046875 706.870117188 c 0
 391.780273438 706.870117188 447.506835938 715.247070312 500.1875 730.870117188 c 1
 552.8671875 715.247070312 608.594726562 706.870117188 666.250976562 706.870117188 c 0
 720.794921875 706.870117188 773.614257812 714.369140625 823.7578125 728.403320312 c 1
 860.173828125 678.951171875 888.629882812 623.110351562 907.194335938 562.838867188 c 1
 93.1806640625 562.838867188 l 1
EndSplineSet
EndChar

StartChar: j
Encoding: 106 106 31
Width: 1000
Flags: H
LayerCount: 2
Fore
SplineSet
48.8251953125 401.25 m 0
 48.8251953125 129.412109375 241.413085938 -98.9755859375 500.326171875 -151.53125 c 1
 759.2109375 -98.9814453125 951.828125 129.3828125 951.828125 401.25 c 0
 951.828125 487.20703125 931.908203125 622.604492188 829.73828125 751.734375 c 1
 647.094726562 695.986328125 503.04296875 752.397460938 499.888671875 751.434570312 c 0
 414.165039062 725.271484375 297.81640625 713 170.9140625 751.734375 c 1
 143.68359375 717.318359375 48.8251953125 593.043945312 48.8251953125 401.25 c 0
500.326171875 -148.469726562 m 1
 244.404296875 -96.375 51.8251953125 129.943359375 51.8251953125 401.25 c 0
 51.8251953125 532.263671875 96.734375 652.788085938 171.997070312 748.267578125 c 1
 207.248046875 737.579101562 339.80859375 699.584960938 500.326171875 748.430664062 c 1
 535.541015625 737.71484375 668.079101562 699.576171875 828.655273438 748.267578125 c 1
 903.919921875 652.788085938 948.828125 532.263671875 948.828125 401.25 c 0
 948.828125 129.943359375 756.248046875 -96.375 500.326171875 -148.469726562 c 1
335.891601562 727.084960938 m 0
 240.107421875 727.084960938 174.219726562 751.500976562 171.455078125 751.500976562 c 0
 170.977539062 751.500976562 170.552734375 751.27734375 170.27734375 750.930664062 c 0
 94.228515625 654.811523438 48.8251953125 533.33203125 48.8251953125 401.25 c 0
 48.8251953125 128.388671875 242.5859375 -99.2138671875 500.026367188 -151.470703125 c 0
 500.133789062 -151.4921875 500.35546875 -151.525390625 500.625976562 -151.470703125 c 0
 758.06640625 -99.2138671875 951.828125 128.388671875 951.828125 401.25 c 0
 951.828125 533.33203125 906.42578125 654.811523438 830.375 750.930664062 c 0
 830.099609375 751.27734375 829.674804688 751.500976562 829.198242188 751.500976562 c 0
 826.43359375 751.500976562 760.544921875 727.084960938 664.76171875 727.084960938 c 0
 568.981445312 727.084960938 503.091796875 751.499023438 500.326171875 751.499023438 c 0
 497.551757812 751.499023438 431.6796875 727.084960938 335.891601562 727.084960938 c 0
500.326171875 -148.469726562 m 1
 244.404296875 -96.375 51.8251953125 129.943359375 51.8251953125 401.25 c 0
 51.8251953125 532.263671875 96.734375 652.788085938 171.997070312 748.267578125 c 1
 207.248046875 737.579101562 339.80859375 699.584960938 500.326171875 748.430664062 c 1
 535.541015625 737.71484375 668.079101562 699.576171875 828.655273438 748.267578125 c 1
 903.919921875 652.788085938 948.828125 532.263671875 948.828125 401.25 c 0
 948.828125 129.943359375 756.248046875 -96.375 500.326171875 -148.469726562 c 1
541.557617188 411.829101562 m 0
 541.557617188 403.6328125 538.70703125 396.7734375 533.004882812 391.25 c 0
 527.302734375 385.7265625 520.532226562 382.96484375 512.692382812 382.96484375 c 0
 505.208984375 382.96484375 498.52734375 385.904296875 492.647460938 391.784179688 c 0
 486.767578125 397.6640625 483.828125 404.345703125 483.828125 411.829101562 c 0
 483.828125 419.3125 486.767578125 425.994140625 492.647460938 431.874023438 c 0
 498.52734375 437.75390625 505.208984375 440.694335938 512.692382812 440.694335938 c 0
 520.17578125 440.694335938 526.857421875 437.75390625 532.737304688 431.874023438 c 0
 538.6171875 425.994140625 541.557617188 419.3125 541.557617188 411.829101562 c 0
542.091796875 76.6767578125 m 1
 537.458984375 15.3837890625 513.583984375 -27.734375 470.46484375 -52.6806640625 c 1
 447.479492188 -0.830078125 l 1
 469.217773438 17.34375 481.333007812 43.1796875 483.828125 76.6767578125 c 2
 483.828125 338.063476562 l 1
 542.091796875 338.063476562 l 1
 542.091796875 76.6767578125 l 1
93.5087890625 563.49609375 m 1
 112.073242188 623.766601562 140.52734375 679.607421875 176.9453125 729.059570312 c 1
 227.08984375 715.025390625 279.907226562 707.526367188 334.451171875 707.526367188 c 0
 392.108398438 707.526367188 447.8359375 715.904296875 500.515625 731.526367188 c 1
 553.1953125 715.904296875 608.922851562 707.526367188 666.579101562 707.526367188 c 0
 721.123046875 707.526367188 773.942382812 715.025390625 824.086914062 729.059570312 c 1
 860.501953125 679.607421875 888.958007812 623.766601562 907.522460938 563.49609375 c 1
 93.5087890625 563.49609375 l 1
EndSplineSet
EndChar

StartChar: c
Encoding: 99 99 32
Width: 1000
Flags: H
LayerCount: 2
Fore
SplineSet
48.8251953125 401.25 m 0
 48.8251953125 129.412109375 241.413085938 -98.9755859375 500.326171875 -151.53125 c 1
 759.2109375 -98.9814453125 951.828125 129.3828125 951.828125 401.25 c 0
 951.828125 487.20703125 931.908203125 622.604492188 829.73828125 751.734375 c 1
 769.164363443 733.245479429 712.835249481 727.093239724 664.482956401 727.093239724 c 0
 568.281507601 727.093239724 503.656189801 751.446792319 499.999550594 751.446792319 c 0
 497.819672621 751.446792319 430.687599765 727.044388538 335.703516577 727.044388538 c 0
 284.219697464 727.044388538 228.659505523 734.108745886 170.9140625 751.734375 c 1
 143.68359375 717.318359375 48.8251953125 593.043945312 48.8251953125 401.25 c 0
500.326171875 -148.469726562 m 1
 244.404296875 -96.375 51.8251953125 129.943359375 51.8251953125 401.25 c 0
 51.8251953125 532.263671875 96.734375 652.788085938 171.997070312 748.267578125 c 1
 194.121661625 741.559163245 254.578454531 724.094496785 336.220980821 724.094496785 c 0
 384.658994327 724.094496785 440.554336446 730.24201854 500.326171875 748.430664062 c 1
 522.480517123 741.689132437 583.154560557 724.093873153 665.096293754 724.093873153 c 0
 713.402839117 724.093873153 769.100704143 730.20888552 828.655273438 748.267578125 c 1
 903.919921875 652.788085938 948.828125 532.263671875 948.828125 401.25 c 0
 948.828125 129.943359375 756.248046875 -96.375 500.326171875 -148.469726562 c 1
335.891601562 727.084960938 m 0
 240.107421875 727.084960938 174.219726562 751.500976562 171.455078125 751.500976562 c 0
 170.977539062 751.500976562 170.552734375 751.27734375 170.27734375 750.930664062 c 0
 94.228515625 654.811523438 48.8251953125 533.33203125 48.8251953125 401.25 c 0
 48.8251953125 128.388671875 242.5859375 -99.2138671875 500.026367188 -151.470703125 c 0
 500.133789062 -151.4921875 500.35546875 -151.525390625 500.625976562 -151.470703125 c 0
 758.06640625 -99.2138671875 951.828125 128.388671875 951.828125 401.25 c 0
 951.828125 533.33203125 906.42578125 654.811523438 830.375 750.930664062 c 0
 830.099609375 751.27734375 829.674804688 751.500976562 829.198242188 751.500976562 c 0
 826.43359375 751.500976562 760.544921875 727.084960938 664.76171875 727.084960938 c 0
 568.981445312 727.084960938 503.091796875 751.499023438 500.326171875 751.499023438 c 0
 497.551757812 751.499023438 431.6796875 727.084960938 335.891601562 727.084960938 c 0
500.326171875 -148.469726562 m 1
 244.404296875 -96.375 51.8251953125 129.943359375 51.8251953125 401.25 c 0
 51.8251953125 532.263671875 96.734375 652.788085938 171.997070312 748.267578125 c 1
 194.121661625 741.559163245 254.578454531 724.094496785 336.220980821 724.094496785 c 0
 384.658994327 724.094496785 440.554336446 730.24201854 500.326171875 748.430664062 c 1
 522.480517123 741.689132437 583.154560557 724.093873153 665.096293754 724.093873153 c 0
 713.402839117 724.093873153 769.100704143 730.20888552 828.655273438 748.267578125 c 1
 903.919921875 652.788085938 948.828125 532.263671875 948.828125 401.25 c 0
 948.828125 129.943359375 756.248046875 -96.375 500.326171875 -148.469726562 c 1
397.141601562 214.594726562 m 0
 397.141601562 251.091796875 404.05078125 280.677734375 417.869140625 303.35546875 c 0
 436.294921875 334.181640625 465.52734375 349.595703125 505.56640625 349.595703125 c 0
 556.944335938 349.595703125 589.897460938 327.803710938 604.424804688 284.221679688 c 1
 551.806640625 262.9609375 l 1
 544.13169648 285.289621154 528.898992519 296.453496901 506.1094609 296.453496901 c 0
 505.753206024 296.453496901 505.395104472 296.450768766 505.03515625 296.4453125 c 0
 485.901367188 296.4453125 472.08203125 286.169921875 463.578125 265.619140625 c 0
 457.5546875 251.091796875 454.54296875 234.083984375 454.54296875 214.594726562 c 0
 454.54296875 195.106445312 457.5546875 178.098632812 463.578125 163.571289062 c 0
 472.08203125 143.020507812 485.901367188 132.745117188 505.03515625 132.745117188 c 0
 505.395104707 132.739660918 505.753206491 132.736932783 506.109461598 132.736932783 c 0
 528.89899283 132.736932783 544.131696559 143.90079373 551.806640625 166.228515625 c 1
 604.424804688 144.96875 l 1
 589.897460938 101.38671875 556.944335938 79.5947265625 505.56640625 79.5947265625 c 0
 465.52734375 79.5947265625 436.294921875 95.0087890625 417.869140625 125.834960938 c 0
 404.05078125 148.512695312 397.141601562 178.098632812 397.141601562 214.594726562 c 0
93.1806640625 563.854492188 m 1
 111.745117188 624.125 140.19921875 679.965820312 176.6171875 729.418945312 c 1
 226.760742188 715.383789062 279.579101562 707.884765625 334.123046875 707.884765625 c 0
 391.780273438 707.884765625 447.506835938 716.262695312 500.1875 731.884765625 c 1
 552.8671875 716.262695312 608.594726562 707.884765625 666.250976562 707.884765625 c 0
 720.794921875 707.884765625 773.614257812 715.383789062 823.7578125 729.418945312 c 1
 860.173828125 679.965820312 888.629882812 624.125 907.194335938 563.854492188 c 1
 93.1806640625 563.854492188 l 1
EndSplineSet
EndChar

StartChar: d
Encoding: 100 100 33
Width: 1000
Flags: H
LayerCount: 2
Fore
SplineSet
48.8251953125 401.25 m 0
 48.8251953125 129.412109375 241.413085938 -98.9755859375 500.326171875 -151.53125 c 1
 759.2109375 -98.9814453125 951.828125 129.3828125 951.828125 401.25 c 0
 951.828125 487.20703125 931.908203125 622.604492188 829.73828125 751.734375 c 1
 769.164363443 733.245479429 712.835249481 727.093239724 664.482956401 727.093239724 c 0
 568.281507601 727.093239724 503.656189801 751.446792319 499.999550594 751.446792319 c 0
 497.819672621 751.446792319 430.687599765 727.044388538 335.703516577 727.044388538 c 0
 284.219697464 727.044388538 228.659505523 734.108745886 170.9140625 751.734375 c 1
 143.68359375 717.318359375 48.8251953125 593.043945312 48.8251953125 401.25 c 0
500.326171875 -148.469726562 m 1
 244.404296875 -96.375 51.8251953125 129.943359375 51.8251953125 401.25 c 0
 51.8251953125 532.263671875 96.734375 652.788085938 171.997070312 748.267578125 c 1
 194.121661625 741.559163245 254.578454531 724.094496785 336.220980821 724.094496785 c 0
 384.658994327 724.094496785 440.554336446 730.24201854 500.326171875 748.430664062 c 1
 522.480517123 741.689132437 583.154560557 724.093873153 665.096293754 724.093873153 c 0
 713.402839117 724.093873153 769.100704143 730.20888552 828.655273438 748.267578125 c 1
 903.919921875 652.788085938 948.828125 532.263671875 948.828125 401.25 c 0
 948.828125 129.943359375 756.248046875 -96.375 500.326171875 -148.469726562 c 1
335.891601562 727.084960938 m 0
 240.107421875 727.084960938 174.219726562 751.500976562 171.455078125 751.500976562 c 0
 170.977539062 751.500976562 170.552734375 751.27734375 170.27734375 750.930664062 c 0
 94.228515625 654.811523438 48.8251953125 533.33203125 48.8251953125 401.25 c 0
 48.8251953125 128.388671875 242.5859375 -99.2138671875 500.026367188 -151.470703125 c 0
 500.133789062 -151.4921875 500.35546875 -151.525390625 500.625976562 -151.470703125 c 0
 758.06640625 -99.2138671875 951.828125 128.388671875 951.828125 401.25 c 0
 951.828125 533.33203125 906.42578125 654.811523438 830.375 750.930664062 c 0
 830.099609375 751.27734375 829.674804688 751.500976562 829.198242188 751.500976562 c 0
 826.43359375 751.500976562 760.544921875 727.084960938 664.76171875 727.084960938 c 0
 568.981445312 727.084960938 503.091796875 751.499023438 500.326171875 751.499023438 c 0
 497.551757812 751.499023438 431.6796875 727.084960938 335.891601562 727.084960938 c 0
500.326171875 -148.469726562 m 1
 244.404296875 -96.375 51.8251953125 129.943359375 51.8251953125 401.25 c 0
 51.8251953125 532.263671875 96.734375 652.788085938 171.997070312 748.267578125 c 1
 194.121661625 741.559163245 254.578454531 724.094496785 336.220980821 724.094496785 c 0
 384.658994327 724.094496785 440.554336446 730.24201854 500.326171875 748.430664062 c 1
 522.480517123 741.689132437 583.154560557 724.093873153 665.096293754 724.093873153 c 0
 713.402839117 724.093873153 769.100704143 730.20888552 828.655273438 748.267578125 c 1
 903.919921875 652.788085938 948.828125 532.263671875 948.828125 401.25 c 0
 948.828125 129.943359375 756.248046875 -96.375 500.326171875 -148.469726562 c 1
93.1806640625 561.49609375 m 1
 111.745117188 621.766601562 140.19921875 677.607421875 176.6171875 727.059570312 c 1
 226.760742188 713.025390625 279.579101562 705.526367188 334.123046875 705.526367188 c 0
 391.780273438 705.526367188 447.506835938 713.904296875 500.1875 729.526367188 c 1
 552.8671875 713.904296875 608.594726562 705.526367188 666.250976562 705.526367188 c 0
 720.794921875 705.526367188 773.614257812 713.025390625 823.7578125 727.059570312 c 1
 860.173828125 677.607421875 888.629882812 621.766601562 907.194335938 561.49609375 c 1
 93.1806640625 561.49609375 l 1
500.375976562 78.2998046875 m 0
 430.149414062 78.2998046875 395.036132812 122.015625 395.036132812 209.447265625 c 0
 395.036132812 300.741210938 430.500976562 347.08984375 501.428710938 348.495117188 c 0
 522.497070312 348.143554688 538.649414062 341.999023438 549.885742188 330.060546875 c 1
 549.885742188 415.385742188 l 1
 605.71484375 443.299804688 l 1
 605.71484375 84.6201171875 l 1
 549.885742188 84.6201171875 l 1
 549.885742188 93.57421875 l 1
 535.137695312 83.3916015625 518.634765625 78.2998046875 500.375976562 78.2998046875 c 0
449.8125 209.973632812 m 0
 450.1640625 155.548828125 466.842773438 128.16015625 499.848632812 127.809570312 c 0
 500.250396656 127.802387407 500.650767534 127.798795963 501.049745464 127.798795963 c 0
 520.178475361 127.798795963 536.10529201 136.054301442 548.83203125 152.563476562 c 1
 548.83203125 268.4375 l 1
 538.649414062 285.642578125 522.848632812 294.245117188 501.428710938 294.245117188 c 0
 467.018554688 292.138671875 449.8125 264.047851562 449.8125 209.973632812 c 0
EndSplineSet
EndChar

StartChar: f
Encoding: 102 102 34
Width: 1000
Flags: H
LayerCount: 2
Fore
SplineSet
48.8251953125 401.25 m 0
 48.8251953125 129.412109375 241.413085938 -98.9755859375 500.326171875 -151.53125 c 1
 759.2109375 -98.9814453125 951.828125 129.3828125 951.828125 401.25 c 0
 951.828125 487.20703125 931.908203125 622.604492188 829.73828125 751.734375 c 1
 647.094726562 695.986328125 503.04296875 752.397460938 499.888671875 751.434570312 c 0
 414.165039062 725.271484375 297.81640625 713 170.9140625 751.734375 c 1
 143.68359375 717.318359375 48.8251953125 593.043945312 48.8251953125 401.25 c 0
500.326171875 -148.469726562 m 1
 244.404296875 -96.375 51.8251953125 129.943359375 51.8251953125 401.25 c 0
 51.8251953125 532.263671875 96.734375 652.788085938 171.997070312 748.267578125 c 1
 207.248046875 737.579101562 339.80859375 699.584960938 500.326171875 748.430664062 c 1
 535.541015625 737.71484375 668.079101562 699.576171875 828.655273438 748.267578125 c 1
 903.919921875 652.788085938 948.828125 532.263671875 948.828125 401.25 c 0
 948.828125 129.943359375 756.248046875 -96.375 500.326171875 -148.469726562 c 1
335.891601562 727.084960938 m 0
 240.107421875 727.084960938 174.219726562 751.500976562 171.455078125 751.500976562 c 0
 170.977539062 751.500976562 170.552734375 751.27734375 170.27734375 750.930664062 c 0
 94.228515625 654.811523438 48.8251953125 533.33203125 48.8251953125 401.25 c 0
 48.8251953125 128.388671875 242.5859375 -99.2138671875 500.026367188 -151.470703125 c 0
 500.133789062 -151.4921875 500.35546875 -151.525390625 500.625976562 -151.470703125 c 0
 758.06640625 -99.2138671875 951.828125 128.388671875 951.828125 401.25 c 0
 951.828125 533.33203125 906.42578125 654.811523438 830.375 750.930664062 c 0
 830.099609375 751.27734375 829.674804688 751.500976562 829.198242188 751.500976562 c 0
 826.43359375 751.500976562 760.544921875 727.084960938 664.76171875 727.084960938 c 0
 568.981445312 727.084960938 503.091796875 751.499023438 500.326171875 751.499023438 c 0
 497.551757812 751.499023438 431.6796875 727.084960938 335.891601562 727.084960938 c 0
500.326171875 -148.469726562 m 1
 244.404296875 -96.375 51.8251953125 129.943359375 51.8251953125 401.25 c 0
 51.8251953125 532.263671875 96.734375 652.788085938 171.997070312 748.267578125 c 1
 207.248046875 737.579101562 339.80859375 699.584960938 500.326171875 748.430664062 c 1
 535.541015625 737.71484375 668.079101562 699.576171875 828.655273438 748.267578125 c 1
 903.919921875 652.788085938 948.828125 532.263671875 948.828125 401.25 c 0
 948.828125 129.943359375 756.248046875 -96.375 500.326171875 -148.469726562 c 1
93.5087890625 563.82421875 m 1
 112.073242188 624.094726562 140.52734375 679.935546875 176.9453125 729.387695312 c 1
 227.08984375 715.353515625 279.907226562 707.854492188 334.451171875 707.854492188 c 0
 392.108398438 707.854492188 447.8359375 716.232421875 500.515625 731.854492188 c 1
 553.1953125 716.232421875 608.922851562 707.854492188 666.579101562 707.854492188 c 0
 721.123046875 707.854492188 773.942382812 715.353515625 824.086914062 729.387695312 c 1
 860.501953125 679.935546875 888.958007812 624.094726562 907.522460938 563.82421875 c 1
 93.5087890625 563.82421875 l 1
564.396484375 286.380859375 m 1
 526.86328125 286.380859375 l 1
 526.86328125 79.1552734375 l 1
 469.770507812 79.1552734375 l 1
 469.770507812 286.380859375 l 1
 436.466796875 286.380859375 l 1
 436.466796875 337.658203125 l 1
 469.770507812 337.658203125 l 1
 469.770507812 377.305664062 l 2
 469.770507812 392.8125 474.263671875 406.821289062 483.250976562 419.33203125 c 0
 492.237304688 431.84375 504.836914062 438.451171875 521.047851562 439.15625 c 0
 537.259765625 439.15625 551.708984375 435.984375 564.396484375 429.640625 c 1
 564.396484375 383.649414062 l 1
 556.642578125 386.821289062 549.2421875 388.583007812 542.193359375 388.935546875 c 0
 532.325195312 388.583007812 527.215820312 382.591796875 526.86328125 370.961914062 c 2
 526.86328125 337.658203125 l 1
 564.396484375 337.658203125 l 1
 564.396484375 286.380859375 l 1
EndSplineSet
EndChar

StartChar: g
Encoding: 103 103 35
Width: 1000
Flags: H
LayerCount: 2
Fore
SplineSet
48.8251953125 401.25 m 0
 48.8251953125 129.412109375 241.413085938 -98.9755859375 500.326171875 -151.53125 c 1
 759.2109375 -98.9814453125 951.828125 129.3828125 951.828125 401.25 c 0
 951.828125 487.20703125 931.908203125 622.604492188 829.73828125 751.734375 c 1
 769.164363443 733.245479429 712.835249481 727.093239724 664.482956401 727.093239724 c 0
 568.281507601 727.093239724 503.656189801 751.446792319 499.999550594 751.446792319 c 0
 497.819672621 751.446792319 430.687599765 727.044388538 335.703516577 727.044388538 c 0
 284.219697464 727.044388538 228.659505523 734.108745886 170.9140625 751.734375 c 1
 143.68359375 717.318359375 48.8251953125 593.043945312 48.8251953125 401.25 c 0
500.326171875 -148.469726562 m 1
 244.404296875 -96.375 51.8251953125 129.943359375 51.8251953125 401.25 c 0
 51.8251953125 532.263671875 96.734375 652.788085938 171.997070312 748.267578125 c 1
 194.121661625 741.559163245 254.578454531 724.094496785 336.220980821 724.094496785 c 0
 384.658994327 724.094496785 440.554336446 730.24201854 500.326171875 748.430664062 c 1
 522.480517123 741.689132437 583.154560557 724.093873153 665.096293754 724.093873153 c 0
 713.402839117 724.093873153 769.100704143 730.20888552 828.655273438 748.267578125 c 1
 903.919921875 652.788085938 948.828125 532.263671875 948.828125 401.25 c 0
 948.828125 129.943359375 756.248046875 -96.375 500.326171875 -148.469726562 c 1
335.891601562 727.084960938 m 0
 240.107421875 727.084960938 174.219726562 751.500976562 171.455078125 751.500976562 c 0
 170.977539062 751.500976562 170.552734375 751.27734375 170.27734375 750.930664062 c 0
 94.228515625 654.811523438 48.8251953125 533.33203125 48.8251953125 401.25 c 0
 48.8251953125 128.388671875 242.5859375 -99.2138671875 500.026367188 -151.470703125 c 0
 500.133789062 -151.4921875 500.35546875 -151.525390625 500.625976562 -151.470703125 c 0
 758.06640625 -99.2138671875 951.828125 128.388671875 951.828125 401.25 c 0
 951.828125 533.33203125 906.42578125 654.811523438 830.375 750.930664062 c 0
 830.099609375 751.27734375 829.674804688 751.500976562 829.198242188 751.500976562 c 0
 826.43359375 751.500976562 760.544921875 727.084960938 664.76171875 727.084960938 c 0
 568.981445312 727.084960938 503.091796875 751.499023438 500.326171875 751.499023438 c 0
 497.551757812 751.499023438 431.6796875 727.084960938 335.891601562 727.084960938 c 0
500.326171875 -148.469726562 m 1
 244.404296875 -96.375 51.8251953125 129.943359375 51.8251953125 401.25 c 0
 51.8251953125 532.263671875 96.734375 652.788085938 171.997070312 748.267578125 c 1
 194.121661625 741.559163245 254.578454531 724.094496785 336.220980821 724.094496785 c 0
 384.658994327 724.094496785 440.554336446 730.24201854 500.326171875 748.430664062 c 1
 522.480517123 741.689132437 583.154560557 724.093873153 665.096293754 724.093873153 c 0
 713.402839117 724.093873153 769.100704143 730.20888552 828.655273438 748.267578125 c 1
 903.919921875 652.788085938 948.828125 532.263671875 948.828125 401.25 c 0
 948.828125 129.943359375 756.248046875 -96.375 500.326171875 -148.469726562 c 1
501.359375 81.23046875 m 0
 431.373046875 81.23046875 396.379882812 124.796875 396.379882812 211.9296875 c 0
 396.379882812 302.912109375 431.72265625 349.103515625 502.409179688 350.502929688 c 0
 523.405273438 350.153320312 539.502929688 344.029296875 550.700195312 332.131835938 c 1
 550.700195312 348.403320312 l 1
 606.33984375 348.403320312 l 1
 606.33984375 96.4521484375 l 2
 603.889648438 27.8681640625 572.571289062 -17.4501953125 512.3828125 -39.4970703125 c 1
 489.287109375 6.6923828125 l 1
 531.279296875 23.490234375 551.75 53.4111328125 550.700195312 96.4521484375 c 1
 536.002929688 86.3046875 519.556640625 81.23046875 501.359375 81.23046875 c 0
450.969726562 212.455078125 m 0
 451.319335938 158.215820312 467.94140625 130.920898438 500.834960938 130.571289062 c 0
 501.235579708 130.564121608 501.634809477 130.560537885 502.032650227 130.560537885 c 0
 521.094629629 130.560537885 536.967821684 138.787734864 549.650390625 155.241210938 c 1
 549.650390625 270.71875 l 1
 539.502929688 287.865234375 523.755859375 296.438476562 502.409179688 296.438476562 c 0
 468.116210938 294.338867188 450.969726562 266.344726562 450.969726562 212.455078125 c 0
93.5087890625 560.510742188 m 1
 112.073242188 620.782226562 140.52734375 676.623046875 176.9453125 726.075195312 c 1
 227.08984375 712.040039062 279.907226562 704.541992188 334.451171875 704.541992188 c 0
 392.108398438 704.541992188 447.8359375 712.918945312 500.515625 728.541015625 c 1
 553.1953125 712.918945312 608.922851562 704.541992188 666.579101562 704.541992188 c 0
 721.123046875 704.541992188 773.942382812 712.040039062 824.086914062 726.075195312 c 1
 860.501953125 676.623046875 888.958007812 620.782226562 907.522460938 560.510742188 c 1
 93.5087890625 560.510742188 l 1
EndSplineSet
EndChar

StartChar: h
Encoding: 104 104 36
Width: 1000
Flags: H
LayerCount: 2
Fore
SplineSet
48.8251953125 401.25 m 0
 48.8251953125 129.412109375 241.413085938 -98.9755859375 500.326171875 -151.53125 c 1
 759.2109375 -98.9814453125 951.828125 129.3828125 951.828125 401.25 c 0
 951.828125 487.20703125 931.908203125 622.604492188 829.73828125 751.734375 c 1
 769.164363443 733.245479429 712.835249481 727.093239724 664.482956401 727.093239724 c 0
 568.281507601 727.093239724 503.656189801 751.446792319 499.999550594 751.446792319 c 0
 497.819672621 751.446792319 430.687599765 727.044388538 335.703516577 727.044388538 c 0
 284.219697464 727.044388538 228.659505523 734.108745886 170.9140625 751.734375 c 1
 143.68359375 717.318359375 48.8251953125 593.043945312 48.8251953125 401.25 c 0
500.326171875 -148.469726562 m 1
 244.404296875 -96.375 51.8251953125 129.943359375 51.8251953125 401.25 c 0
 51.8251953125 532.263671875 96.734375 652.788085938 171.997070312 748.267578125 c 1
 194.121661625 741.559163245 254.578454531 724.094496785 336.220980821 724.094496785 c 0
 384.658994327 724.094496785 440.554336446 730.24201854 500.326171875 748.430664062 c 1
 522.480517123 741.689132437 583.154560557 724.093873153 665.096293754 724.093873153 c 0
 713.402839117 724.093873153 769.100704143 730.20888552 828.655273438 748.267578125 c 1
 903.919921875 652.788085938 948.828125 532.263671875 948.828125 401.25 c 0
 948.828125 129.943359375 756.248046875 -96.375 500.326171875 -148.469726562 c 1
335.891601562 727.084960938 m 0
 240.107421875 727.084960938 174.219726562 751.500976562 171.455078125 751.500976562 c 0
 170.977539062 751.500976562 170.552734375 751.27734375 170.27734375 750.930664062 c 0
 94.228515625 654.811523438 48.8251953125 533.33203125 48.8251953125 401.25 c 0
 48.8251953125 128.388671875 242.5859375 -99.2138671875 500.026367188 -151.470703125 c 0
 500.133789062 -151.4921875 500.35546875 -151.525390625 500.625976562 -151.470703125 c 0
 758.06640625 -99.2138671875 951.828125 128.388671875 951.828125 401.25 c 0
 951.828125 533.33203125 906.42578125 654.811523438 830.375 750.930664062 c 0
 830.099609375 751.27734375 829.674804688 751.500976562 829.198242188 751.500976562 c 0
 826.43359375 751.500976562 760.544921875 727.084960938 664.76171875 727.084960938 c 0
 568.981445312 727.084960938 503.091796875 751.499023438 500.326171875 751.499023438 c 0
 497.551757812 751.499023438 431.6796875 727.084960938 335.891601562 727.084960938 c 0
500.326171875 -148.469726562 m 1
 244.404296875 -96.375 51.8251953125 129.943359375 51.8251953125 401.25 c 0
 51.8251953125 532.263671875 96.734375 652.788085938 171.997070312 748.267578125 c 1
 194.121661625 741.559163245 254.578454531 724.094496785 336.220980821 724.094496785 c 0
 384.658994327 724.094496785 440.554336446 730.24201854 500.326171875 748.430664062 c 1
 522.480517123 741.689132437 583.154560557 724.093873153 665.096293754 724.093873153 c 0
 713.402839117 724.093873153 769.100704143 730.20888552 828.655273438 748.267578125 c 1
 903.919921875 652.788085938 948.828125 532.263671875 948.828125 401.25 c 0
 948.828125 129.943359375 756.248046875 -96.375 500.326171875 -148.469726562 c 1
93.1806640625 562.510742188 m 1
 111.745117188 622.782226562 140.19921875 678.623046875 176.6171875 728.075195312 c 1
 226.760742188 714.040039062 279.579101562 706.541992188 334.123046875 706.541992188 c 0
 391.780273438 706.541992188 447.506835938 714.918945312 500.1875 730.541015625 c 1
 552.8671875 714.918945312 608.594726562 706.541992188 666.250976562 706.541992188 c 0
 720.794921875 706.541992188 773.614257812 714.040039062 823.7578125 728.075195312 c 1
 860.173828125 678.623046875 888.629882812 622.782226562 907.194335938 562.510742188 c 1
 93.1806640625 562.510742188 l 1
397.141601562 412.354492188 m 1
 452.119140625 439.84375 l 1
 452.119140625 325.129882812 l 1
 467.625976562 338.168945312 488.2421875 344.688476562 513.969726562 344.688476562 c 0
 543.92578125 344.688476562 566.3046875 334.46875 581.106445312 314.028320312 c 0
 595.908203125 293.586914062 603.30859375 269.798828125 603.30859375 242.662109375 c 2
 603.30859375 79.8427734375 l 1
 548.859375 79.8427734375 l 1
 548.859375 241.60546875 l 2
 549.564453125 254.997070312 545.159179688 267.067382812 535.643554688 277.81640625 c 0
 526.713013576 287.904508263 515.609699742 292.947751995 502.333613185 292.947751995 c 0
 501.463831136 292.947751995 500.584723095 292.926105345 499.696289062 292.8828125 c 0
 484.541992188 292.8828125 473 288.477539062 465.071289062 279.666992188 c 0
 457.141601562 270.856445312 453.176757812 258.168945312 453.176757812 241.60546875 c 2
 453.176757812 79.8427734375 l 1
 397.141601562 79.8427734375 l 1
 397.141601562 412.354492188 l 1
EndSplineSet
EndChar

StartChar: k
Encoding: 107 107 37
Width: 1000
Flags: H
LayerCount: 2
Fore
SplineSet
48.8251953125 401.25 m 0
 48.8251953125 129.412109375 241.413085938 -98.9755859375 500.326171875 -151.53125 c 1
 759.2109375 -98.9814453125 951.828125 129.3828125 951.828125 401.25 c 0
 951.828125 487.20703125 931.908203125 622.604492188 829.73828125 751.734375 c 1
 769.164363443 733.245479429 712.835249481 727.093239724 664.482956401 727.093239724 c 0
 568.281507601 727.093239724 503.656189801 751.446792319 499.999550594 751.446792319 c 0
 497.819672621 751.446792319 430.687599765 727.044388538 335.703516577 727.044388538 c 0
 284.219697464 727.044388538 228.659505523 734.108745886 170.9140625 751.734375 c 1
 143.68359375 717.318359375 48.8251953125 593.043945312 48.8251953125 401.25 c 0
500.326171875 -148.469726562 m 1
 244.404296875 -96.375 51.8251953125 129.943359375 51.8251953125 401.25 c 0
 51.8251953125 532.263671875 96.734375 652.788085938 171.997070312 748.267578125 c 1
 194.121661625 741.559163245 254.578454531 724.094496785 336.220980821 724.094496785 c 0
 384.658994327 724.094496785 440.554336446 730.24201854 500.326171875 748.430664062 c 1
 522.480517123 741.689132437 583.154560557 724.093873153 665.096293754 724.093873153 c 0
 713.402839117 724.093873153 769.100704143 730.20888552 828.655273438 748.267578125 c 1
 903.919921875 652.788085938 948.828125 532.263671875 948.828125 401.25 c 0
 948.828125 129.943359375 756.248046875 -96.375 500.326171875 -148.469726562 c 1
335.891601562 727.084960938 m 0
 240.107421875 727.084960938 174.219726562 751.500976562 171.455078125 751.500976562 c 0
 170.977539062 751.500976562 170.552734375 751.27734375 170.27734375 750.930664062 c 0
 94.228515625 654.811523438 48.8251953125 533.33203125 48.8251953125 401.25 c 0
 48.8251953125 128.388671875 242.5859375 -99.2138671875 500.026367188 -151.470703125 c 0
 500.133789062 -151.4921875 500.35546875 -151.525390625 500.625976562 -151.470703125 c 0
 758.06640625 -99.2138671875 951.828125 128.388671875 951.828125 401.25 c 0
 951.828125 533.33203125 906.42578125 654.811523438 830.375 750.930664062 c 0
 830.099609375 751.27734375 829.674804688 751.500976562 829.198242188 751.500976562 c 0
 826.43359375 751.500976562 760.544921875 727.084960938 664.76171875 727.084960938 c 0
 568.981445312 727.084960938 503.091796875 751.499023438 500.326171875 751.499023438 c 0
 497.551757812 751.499023438 431.6796875 727.084960938 335.891601562 727.084960938 c 0
500.326171875 -148.469726562 m 1
 244.404296875 -96.375 51.8251953125 129.943359375 51.8251953125 401.25 c 0
 51.8251953125 532.263671875 96.734375 652.788085938 171.997070312 748.267578125 c 1
 194.121661625 741.559163245 254.578454531 724.094496785 336.220980821 724.094496785 c 0
 384.658994327 724.094496785 440.554336446 730.24201854 500.326171875 748.430664062 c 1
 522.480517123 741.689132437 583.154560557 724.093873153 665.096293754 724.093873153 c 0
 713.402839117 724.093873153 769.100704143 730.20888552 828.655273438 748.267578125 c 1
 903.919921875 652.788085938 948.828125 532.263671875 948.828125 401.25 c 0
 948.828125 129.943359375 756.248046875 -96.375 500.326171875 -148.469726562 c 1
627.083984375 79.8427734375 m 1
 562.590820312 79.8427734375 l 1
 488.052734375 225.217773438 l 1
 455.806640625 191.384765625 l 1
 455.806640625 79.8427734375 l 1
 398.713867188 79.8427734375 l 1
 398.713867188 411.296875 l 1
 455.806640625 439.84375 l 1
 455.806640625 263.807617188 l 1
 526.643554688 338.345703125 l 1
 598.538085938 338.345703125 l 1
 530.34375 267.5078125 l 1
 627.083984375 79.8427734375 l 1
93.1806640625 561.82421875 m 1
 111.745117188 622.094726562 140.19921875 677.935546875 176.6171875 727.387695312 c 1
 226.760742188 713.353515625 279.579101562 705.854492188 334.123046875 705.854492188 c 0
 391.780273438 705.854492188 447.506835938 714.232421875 500.1875 729.854492188 c 1
 552.8671875 714.232421875 608.594726562 705.854492188 666.250976562 705.854492188 c 0
 720.794921875 705.854492188 773.614257812 713.353515625 823.7578125 727.387695312 c 1
 860.173828125 677.935546875 888.629882812 622.094726562 907.194335938 561.82421875 c 1
 93.1806640625 561.82421875 l 1
EndSplineSet
EndChar

StartChar: o
Encoding: 111 111 38
Width: 1000
Flags: H
LayerCount: 2
Fore
SplineSet
48.8251953125 401.25 m 0
 48.8251953125 129.412109375 241.413085938 -98.9755859375 500.326171875 -151.53125 c 1
 759.2109375 -98.9814453125 951.828125 129.3828125 951.828125 401.25 c 0
 951.828125 487.20703125 931.908203125 622.604492188 829.73828125 751.734375 c 1
 769.164363443 733.245479429 712.835249481 727.093239724 664.482956401 727.093239724 c 0
 568.281507601 727.093239724 503.656189801 751.446792319 499.999550594 751.446792319 c 0
 497.819672621 751.446792319 430.687599765 727.044388538 335.703516577 727.044388538 c 0
 284.219697464 727.044388538 228.659505523 734.108745886 170.9140625 751.734375 c 1
 143.68359375 717.318359375 48.8251953125 593.043945312 48.8251953125 401.25 c 0
500.326171875 -148.469726562 m 1
 244.404296875 -96.375 51.8251953125 129.943359375 51.8251953125 401.25 c 0
 51.8251953125 532.263671875 96.734375 652.788085938 171.997070312 748.267578125 c 1
 194.121661625 741.559163245 254.578454531 724.094496785 336.220980821 724.094496785 c 0
 384.658994327 724.094496785 440.554336446 730.24201854 500.326171875 748.430664062 c 1
 522.480517123 741.689132437 583.154560557 724.093873153 665.096293754 724.093873153 c 0
 713.402839117 724.093873153 769.100704143 730.20888552 828.655273438 748.267578125 c 1
 903.919921875 652.788085938 948.828125 532.263671875 948.828125 401.25 c 0
 948.828125 129.943359375 756.248046875 -96.375 500.326171875 -148.469726562 c 1
335.891601562 727.084960938 m 0
 240.107421875 727.084960938 174.219726562 751.500976562 171.455078125 751.500976562 c 0
 170.977539062 751.500976562 170.552734375 751.27734375 170.27734375 750.930664062 c 0
 94.228515625 654.811523438 48.8251953125 533.33203125 48.8251953125 401.25 c 0
 48.8251953125 128.388671875 242.5859375 -99.2138671875 500.026367188 -151.470703125 c 0
 500.133789062 -151.4921875 500.35546875 -151.525390625 500.625976562 -151.470703125 c 0
 758.06640625 -99.2138671875 951.828125 128.388671875 951.828125 401.25 c 0
 951.828125 533.33203125 906.42578125 654.811523438 830.375 750.930664062 c 0
 830.099609375 751.27734375 829.674804688 751.500976562 829.198242188 751.500976562 c 0
 826.43359375 751.500976562 760.544921875 727.084960938 664.76171875 727.084960938 c 0
 568.981445312 727.084960938 503.091796875 751.499023438 500.326171875 751.499023438 c 0
 497.551757812 751.499023438 431.6796875 727.084960938 335.891601562 727.084960938 c 0
500.326171875 -148.469726562 m 1
 244.404296875 -96.375 51.8251953125 129.943359375 51.8251953125 401.25 c 0
 51.8251953125 532.263671875 96.734375 652.788085938 171.997070312 748.267578125 c 1
 194.121661625 741.559163245 254.578454531 724.094496785 336.220980821 724.094496785 c 0
 384.658994327 724.094496785 440.554336446 730.24201854 500.326171875 748.430664062 c 1
 522.480517123 741.689132437 583.154560557 724.093873153 665.096293754 724.093873153 c 0
 713.402839117 724.093873153 769.100704143 730.20888552 828.655273438 748.267578125 c 1
 903.919921875 652.788085938 948.828125 532.263671875 948.828125 401.25 c 0
 948.828125 129.943359375 756.248046875 -96.375 500.326171875 -148.469726562 c 1
93.1806640625 562.838867188 m 1
 111.745117188 623.110351562 140.19921875 678.951171875 176.6171875 728.403320312 c 1
 226.760742188 714.369140625 279.579101562 706.870117188 334.123046875 706.870117188 c 0
 391.780273438 706.870117188 447.506835938 715.247070312 500.1875 730.870117188 c 1
 552.8671875 715.247070312 608.594726562 706.870117188 666.250976562 706.870117188 c 0
 720.794921875 706.870117188 773.614257812 714.369140625 823.7578125 728.403320312 c 1
 860.173828125 678.951171875 888.629882812 623.110351562 907.194335938 562.838867188 c 1
 93.1806640625 562.838867188 l 1
607.677734375 215.74609375 m 0
 607.327148438 180.307617188 600.309570312 151.360351562 586.625 128.904296875 c 0
 568.37890625 98.3779296875 539.607421875 82.2373046875 500.309570312 80.4833984375 c 0
 461.010742188 82.2373046875 432.239257812 98.3779296875 413.993164062 128.904296875 c 0
 400.30859375 151.360351562 393.291992188 180.307617188 392.940429688 215.74609375 c 0
 393.291992188 252.588867188 400.30859375 282.237304688 413.993164062 304.694335938 c 0
 432.58984375 334.16796875 461.361328125 349.430664062 500.309570312 350.483398438 c 0
 539.256835938 349.430664062 568.028320312 334.16796875 586.625 304.694335938 c 0
 600.309570312 282.237304688 607.327148438 252.588867188 607.677734375 215.74609375 c 0
499.783203125 136.272460938 m 0
 520.133789062 136.272460938 535.045898438 146.272460938 544.51953125 166.272460938 c 0
 550.8359375 180.307617188 553.993164062 196.624023438 553.993164062 215.220703125 c 0
 553.993164062 234.869140625 550.8359375 251.7109375 544.51953125 265.747070312 c 0
 535.397460938 285.747070312 520.484375 295.747070312 499.783203125 295.747070312 c 0
 479.783203125 295.747070312 465.220703125 285.747070312 456.098632812 265.747070312 c 0
 449.782226562 251.7109375 446.625 234.869140625 446.625 215.220703125 c 0
 446.625 196.624023438 449.782226562 180.307617188 456.098632812 166.272460938 c 0
 466.625 146.272460938 481.186523438 136.272460938 499.783203125 136.272460938 c 0
EndSplineSet
EndChar

StartChar: m
Encoding: 109 109 39
Width: 1000
Flags: H
LayerCount: 2
Fore
SplineSet
48.8251953125 401.25 m 0
 48.8251953125 129.412109375 241.413085938 -98.9755859375 500.326171875 -151.53125 c 1
 759.2109375 -98.9814453125 951.828125 129.3828125 951.828125 401.25 c 0
 951.828125 487.20703125 931.908203125 622.604492188 829.73828125 751.734375 c 1
 647.094726562 695.986328125 503.04296875 752.397460938 499.888671875 751.434570312 c 0
 414.165039062 725.271484375 297.81640625 713 170.9140625 751.734375 c 1
 143.68359375 717.318359375 48.8251953125 593.043945312 48.8251953125 401.25 c 0
500.326171875 -148.469726562 m 1
 244.404296875 -96.375 51.8251953125 129.943359375 51.8251953125 401.25 c 0
 51.8251953125 532.263671875 96.734375 652.788085938 171.997070312 748.267578125 c 1
 207.248046875 737.579101562 339.80859375 699.584960938 500.326171875 748.430664062 c 1
 535.541015625 737.71484375 668.079101562 699.576171875 828.655273438 748.267578125 c 1
 903.919921875 652.788085938 948.828125 532.263671875 948.828125 401.25 c 0
 948.828125 129.943359375 756.248046875 -96.375 500.326171875 -148.469726562 c 1
335.891601562 727.084960938 m 0
 240.107421875 727.084960938 174.219726562 751.500976562 171.455078125 751.500976562 c 0
 170.977539062 751.500976562 170.552734375 751.27734375 170.27734375 750.930664062 c 0
 94.228515625 654.811523438 48.8251953125 533.33203125 48.8251953125 401.25 c 0
 48.8251953125 128.388671875 242.5859375 -99.2138671875 500.026367188 -151.470703125 c 0
 500.133789062 -151.4921875 500.35546875 -151.525390625 500.625976562 -151.470703125 c 0
 758.06640625 -99.2138671875 951.828125 128.388671875 951.828125 401.25 c 0
 951.828125 533.33203125 906.42578125 654.811523438 830.375 750.930664062 c 0
 830.099609375 751.27734375 829.674804688 751.500976562 829.198242188 751.500976562 c 0
 826.43359375 751.500976562 760.544921875 727.084960938 664.76171875 727.084960938 c 0
 568.981445312 727.084960938 503.091796875 751.499023438 500.326171875 751.499023438 c 0
 497.551757812 751.499023438 431.6796875 727.084960938 335.891601562 727.084960938 c 0
500.326171875 -148.469726562 m 1
 244.404296875 -96.375 51.8251953125 129.943359375 51.8251953125 401.25 c 0
 51.8251953125 532.263671875 96.734375 652.788085938 171.997070312 748.267578125 c 1
 207.248046875 737.579101562 339.80859375 699.584960938 500.326171875 748.430664062 c 1
 535.541015625 737.71484375 668.079101562 699.576171875 828.655273438 748.267578125 c 1
 903.919921875 652.788085938 948.828125 532.263671875 948.828125 401.25 c 0
 948.828125 129.943359375 756.248046875 -96.375 500.326171875 -148.469726562 c 1
678.424804688 80.37890625 m 1
 622.0625 80.37890625 l 1
 622.0625 250.538085938 l 2
 622.420898438 260.915039062 618.037109375 271.204101562 608.911132812 281.40234375 c 0
 599.786132812 291.6015625 588.603515625 296.522460938 575.362304688 296.1640625 c 0
 562.479492188 296.1640625 552.012695312 291.51171875 543.9609375 282.208007812 c 0
 535.909179688 272.904296875 532.0625 262.346679688 532.419921875 250.538085938 c 2
 532.419921875 80.37890625 l 1
 471.763671875 80.37890625 l 1
 471.763671875 250.538085938 l 2
 472.122070312 261.631835938 467.828125 272.098632812 458.881835938 281.939453125 c 0
 449.934570312 291.780273438 438.841796875 296.522460938 425.600585938 296.1640625 c 0
 413.791992188 295.805664062 403.682617188 291.064453125 395.272460938 281.939453125 c 0
 386.86328125 272.814453125 382.479492188 262.346679688 382.122070312 250.538085938 c 2
 382.122070312 80.37890625 l 1
 323.076171875 80.37890625 l 1
 323.076171875 347.158203125 l 1
 381.047851562 347.158203125 l 1
 381.047851562 331.0546875 l 1
 397.151367188 343.9375 416.118164062 350.37890625 437.947265625 350.37890625 c 0
 467.6484375 350.37890625 490.909179688 338.033203125 507.728515625 313.340820312 c 1
 524.905273438 337.674804688 548.702148438 349.841796875 579.120117188 349.841796875 c 0
 605.243164062 349.841796875 628.235351562 339.822265625 648.096679688 319.782226562 c 0
 667.95703125 299.743164062 678.06640625 276.303710938 678.424804688 249.463867188 c 2
 678.424804688 80.37890625 l 1
93.1806640625 560.15234375 m 1
 111.745117188 620.422851562 140.19921875 676.263671875 176.6171875 725.715820312 c 1
 226.760742188 711.681640625 279.579101562 704.182617188 334.123046875 704.182617188 c 0
 391.780273438 704.182617188 447.506835938 712.560546875 500.1875 728.182617188 c 1
 552.8671875 712.560546875 608.594726562 704.182617188 666.250976562 704.182617188 c 0
 720.794921875 704.182617188 773.614257812 711.681640625 823.7578125 725.715820312 c 1
 860.173828125 676.263671875 888.629882812 620.422851562 907.194335938 560.15234375 c 1
 93.1806640625 560.15234375 l 1
EndSplineSet
EndChar

StartChar: n
Encoding: 110 110 40
Width: 1000
Flags: H
LayerCount: 2
Fore
SplineSet
48.8251953125 401.25 m 0
 48.8251953125 129.412109375 241.413085938 -98.9755859375 500.326171875 -151.53125 c 1
 759.2109375 -98.9814453125 951.828125 129.3828125 951.828125 401.25 c 0
 951.828125 487.20703125 931.908203125 622.604492188 829.73828125 751.734375 c 1
 647.094726562 695.986328125 503.04296875 752.397460938 499.888671875 751.434570312 c 0
 414.165039062 725.271484375 297.81640625 713 170.9140625 751.734375 c 1
 143.68359375 717.318359375 48.8251953125 593.043945312 48.8251953125 401.25 c 0
500.326171875 -148.469726562 m 1
 244.404296875 -96.375 51.8251953125 129.943359375 51.8251953125 401.25 c 0
 51.8251953125 532.263671875 96.734375 652.788085938 171.997070312 748.267578125 c 1
 207.248046875 737.579101562 339.80859375 699.584960938 500.326171875 748.430664062 c 1
 535.541015625 737.71484375 668.079101562 699.576171875 828.655273438 748.267578125 c 1
 903.919921875 652.788085938 948.828125 532.263671875 948.828125 401.25 c 0
 948.828125 129.943359375 756.248046875 -96.375 500.326171875 -148.469726562 c 1
335.891601562 727.084960938 m 0
 240.107421875 727.084960938 174.219726562 751.500976562 171.455078125 751.500976562 c 0
 170.977539062 751.500976562 170.552734375 751.27734375 170.27734375 750.930664062 c 0
 94.228515625 654.811523438 48.8251953125 533.33203125 48.8251953125 401.25 c 0
 48.8251953125 128.388671875 242.5859375 -99.2138671875 500.026367188 -151.470703125 c 0
 500.133789062 -151.4921875 500.35546875 -151.525390625 500.625976562 -151.470703125 c 0
 758.06640625 -99.2138671875 951.828125 128.388671875 951.828125 401.25 c 0
 951.828125 533.33203125 906.42578125 654.811523438 830.375 750.930664062 c 0
 830.099609375 751.27734375 829.674804688 751.500976562 829.198242188 751.500976562 c 0
 826.43359375 751.500976562 760.544921875 727.084960938 664.76171875 727.084960938 c 0
 568.981445312 727.084960938 503.091796875 751.499023438 500.326171875 751.499023438 c 0
 497.551757812 751.499023438 431.6796875 727.084960938 335.891601562 727.084960938 c 0
500.326171875 -148.469726562 m 1
 244.404296875 -96.375 51.8251953125 129.943359375 51.8251953125 401.25 c 0
 51.8251953125 532.263671875 96.734375 652.788085938 171.997070312 748.267578125 c 1
 207.248046875 737.579101562 339.80859375 699.584960938 500.326171875 748.430664062 c 1
 535.541015625 737.71484375 668.079101562 699.576171875 828.655273438 748.267578125 c 1
 903.919921875 652.788085938 948.828125 532.263671875 948.828125 401.25 c 0
 948.828125 129.943359375 756.248046875 -96.375 500.326171875 -148.469726562 c 1
393.797851562 344.44921875 m 1
 449.845703125 344.44921875 l 1
 449.845703125 327.743164062 l 1
 465.654296875 341.036132812 486.671875 347.68359375 512.899414062 347.68359375 c 0
 543.438476562 347.68359375 566.252929688 337.263671875 581.342773438 316.42578125 c 0
 596.432617188 295.586914062 603.977539062 271.3359375 603.977539062 243.670898438 c 2
 603.977539062 77.6826171875 l 1
 548.46875 77.6826171875 l 1
 548.46875 242.592773438 l 2
 549.186523438 256.24609375 544.696289062 268.551757812 534.995117188 279.509765625 c 0
 525.294921875 290.467773438 513.079101562 295.586914062 498.348632812 294.869140625 c 0
 482.899414062 294.869140625 471.1328125 290.377929688 463.048828125 281.395507812 c 0
 454.965820312 272.413085938 450.923828125 259.479492188 450.923828125 242.592773438 c 2
 450.923828125 77.6826171875 l 1
 393.797851562 77.6826171875 l 1
 393.797851562 344.44921875 l 1
94.1953125 561.82421875 m 1
 112.759765625 622.094726562 141.21484375 677.935546875 177.631835938 727.387695312 c 1
 227.776367188 713.353515625 280.59375 705.854492188 335.138671875 705.854492188 c 0
 392.794921875 705.854492188 448.522460938 714.232421875 501.202148438 729.854492188 c 1
 553.8828125 714.232421875 609.609375 705.854492188 667.266601562 705.854492188 c 0
 721.810546875 705.854492188 774.62890625 713.353515625 824.7734375 727.387695312 c 1
 861.189453125 677.935546875 889.64453125 622.094726562 908.208984375 561.82421875 c 1
 94.1953125 561.82421875 l 1
EndSplineSet
EndChar

StartChar: t
Encoding: 116 116 41
Width: 1000
Flags: H
LayerCount: 2
Fore
SplineSet
48.8251953125 401.25 m 0
 48.8251953125 129.412109375 241.413085938 -98.9755859375 500.326171875 -151.53125 c 1
 759.2109375 -98.9814453125 951.828125 129.3828125 951.828125 401.25 c 0
 951.828125 487.20703125 931.908203125 622.604492188 829.73828125 751.734375 c 1
 769.164363443 733.245479429 712.835249481 727.093239724 664.482956401 727.093239724 c 0
 568.281507601 727.093239724 503.656189801 751.446792319 499.999550594 751.446792319 c 0
 497.819672621 751.446792319 430.687599765 727.044388538 335.703516577 727.044388538 c 0
 284.219697464 727.044388538 228.659505523 734.108745886 170.9140625 751.734375 c 1
 143.68359375 717.318359375 48.8251953125 593.043945312 48.8251953125 401.25 c 0
500.326171875 -148.469726562 m 1
 244.404296875 -96.375 51.8251953125 129.943359375 51.8251953125 401.25 c 0
 51.8251953125 532.263671875 96.734375 652.788085938 171.997070312 748.267578125 c 1
 194.121661625 741.559163245 254.578454531 724.094496785 336.220980821 724.094496785 c 0
 384.658994327 724.094496785 440.554336446 730.24201854 500.326171875 748.430664062 c 1
 522.480517123 741.689132437 583.154560557 724.093873153 665.096293754 724.093873153 c 0
 713.402839117 724.093873153 769.100704143 730.20888552 828.655273438 748.267578125 c 1
 903.919921875 652.788085938 948.828125 532.263671875 948.828125 401.25 c 0
 948.828125 129.943359375 756.248046875 -96.375 500.326171875 -148.469726562 c 1
335.891601562 727.084960938 m 0
 240.107421875 727.084960938 174.219726562 751.500976562 171.455078125 751.500976562 c 0
 170.977539062 751.500976562 170.552734375 751.27734375 170.27734375 750.930664062 c 0
 94.228515625 654.811523438 48.8251953125 533.33203125 48.8251953125 401.25 c 0
 48.8251953125 128.388671875 242.5859375 -99.2138671875 500.026367188 -151.470703125 c 0
 500.133789062 -151.4921875 500.35546875 -151.525390625 500.625976562 -151.470703125 c 0
 758.06640625 -99.2138671875 951.828125 128.388671875 951.828125 401.25 c 0
 951.828125 533.33203125 906.42578125 654.811523438 830.375 750.930664062 c 0
 830.099609375 751.27734375 829.674804688 751.500976562 829.198242188 751.500976562 c 0
 826.43359375 751.500976562 760.544921875 727.084960938 664.76171875 727.084960938 c 0
 568.981445312 727.084960938 503.091796875 751.499023438 500.326171875 751.499023438 c 0
 497.551757812 751.499023438 431.6796875 727.084960938 335.891601562 727.084960938 c 0
500.326171875 -148.469726562 m 1
 244.404296875 -96.375 51.8251953125 129.943359375 51.8251953125 401.25 c 0
 51.8251953125 532.263671875 96.734375 652.788085938 171.997070312 748.267578125 c 1
 194.121661625 741.559163245 254.578454531 724.094496785 336.220980821 724.094496785 c 0
 384.658994327 724.094496785 440.554336446 730.24201854 500.326171875 748.430664062 c 1
 522.480517123 741.689132437 583.154560557 724.093873153 665.096293754 724.093873153 c 0
 713.402839117 724.093873153 769.100704143 730.20888552 828.655273438 748.267578125 c 1
 903.919921875 652.788085938 948.828125 532.263671875 948.828125 401.25 c 0
 948.828125 129.943359375 756.248046875 -96.375 500.326171875 -148.469726562 c 1
92.8525390625 563.16796875 m 1
 111.416992188 623.438476562 139.87109375 679.279296875 176.2890625 728.731445312 c 1
 226.432617188 714.697265625 279.250976562 707.198242188 333.794921875 707.198242188 c 0
 391.451171875 707.198242188 447.178710938 715.575195312 499.859375 731.198242188 c 1
 552.5390625 715.575195312 608.266601562 707.198242188 665.922851562 707.198242188 c 0
 720.466796875 707.198242188 773.286132812 714.697265625 823.4296875 728.731445312 c 1
 859.845703125 679.279296875 888.301757812 623.438476562 906.866210938 563.16796875 c 1
 92.8525390625 563.16796875 l 1
551.4296875 144.461914062 m 1
 536.365234375 89.396484375 l 1
 527.70703125 84.89453125 517.6640625 82.6435546875 506.235351562 82.6435546875 c 0
 493.075195312 82.6435546875 481.126953125 88.7041015625 470.390625 100.825195312 c 0
 459.655273438 112.946289062 454.287109375 129.223632812 454.287109375 149.65625 c 2
 454.287109375 291.474609375 l 1
 417.403320312 291.474609375 l 1
 417.403320312 342.903320312 l 1
 454.287109375 342.903320312 l 1
 454.287109375 416.150390625 l 1
 507.793945312 442.643554688 l 1
 507.793945312 342.903320312 l 1
 551.94921875 342.903320312 l 1
 551.94921875 292.513671875 l 1
 507.793945312 292.513671875 l 1
 507.793945312 155.889648438 l 2
 507.793945312 142.037109375 512.98828125 134.764648438 523.377929688 134.072265625 c 0
 532.036132812 133.725585938 541.38671875 137.188476562 551.4296875 144.461914062 c 1
EndSplineSet
EndChar

StartChar: p
Encoding: 112 112 42
Width: 1000
Flags: H
LayerCount: 2
Fore
SplineSet
48.8251953125 401.25 m 0
 48.8251953125 129.412109375 241.413085938 -98.9755859375 500.326171875 -151.53125 c 1
 759.2109375 -98.9814453125 951.828125 129.3828125 951.828125 401.25 c 0
 951.828125 487.20703125 931.908203125 622.604492188 829.73828125 751.734375 c 1
 769.164363443 733.245479429 712.835249481 727.093239724 664.482956401 727.093239724 c 0
 568.281507601 727.093239724 503.656189801 751.446792319 499.999550594 751.446792319 c 0
 497.819672621 751.446792319 430.687599765 727.044388538 335.703516577 727.044388538 c 0
 284.219697464 727.044388538 228.659505523 734.108745886 170.9140625 751.734375 c 1
 143.68359375 717.318359375 48.8251953125 593.043945312 48.8251953125 401.25 c 0
500.326171875 -148.469726562 m 1
 244.404296875 -96.375 51.8251953125 129.943359375 51.8251953125 401.25 c 0
 51.8251953125 532.263671875 96.734375 652.788085938 171.997070312 748.267578125 c 1
 194.121661625 741.559163245 254.578454531 724.094496785 336.220980821 724.094496785 c 0
 384.658994327 724.094496785 440.554336446 730.24201854 500.326171875 748.430664062 c 1
 522.480517123 741.689132437 583.154560557 724.093873153 665.096293754 724.093873153 c 0
 713.402839117 724.093873153 769.100704143 730.20888552 828.655273438 748.267578125 c 1
 903.919921875 652.788085938 948.828125 532.263671875 948.828125 401.25 c 0
 948.828125 129.943359375 756.248046875 -96.375 500.326171875 -148.469726562 c 1
335.891601562 727.084960938 m 0
 240.107421875 727.084960938 174.219726562 751.500976562 171.455078125 751.500976562 c 0
 170.977539062 751.500976562 170.552734375 751.27734375 170.27734375 750.930664062 c 0
 94.228515625 654.811523438 48.8251953125 533.33203125 48.8251953125 401.25 c 0
 48.8251953125 128.388671875 242.5859375 -99.2138671875 500.026367188 -151.470703125 c 0
 500.133789062 -151.4921875 500.35546875 -151.525390625 500.625976562 -151.470703125 c 0
 758.06640625 -99.2138671875 951.828125 128.388671875 951.828125 401.25 c 0
 951.828125 533.33203125 906.42578125 654.811523438 830.375 750.930664062 c 0
 830.099609375 751.27734375 829.674804688 751.500976562 829.198242188 751.500976562 c 0
 826.43359375 751.500976562 760.544921875 727.084960938 664.76171875 727.084960938 c 0
 568.981445312 727.084960938 503.091796875 751.499023438 500.326171875 751.499023438 c 0
 497.551757812 751.499023438 431.6796875 727.084960938 335.891601562 727.084960938 c 0
500.326171875 -148.469726562 m 1
 244.404296875 -96.375 51.8251953125 129.943359375 51.8251953125 401.25 c 0
 51.8251953125 532.263671875 96.734375 652.788085938 171.997070312 748.267578125 c 1
 194.121661625 741.559163245 254.578454531 724.094496785 336.220980821 724.094496785 c 0
 384.658994327 724.094496785 440.554336446 730.24201854 500.326171875 748.430664062 c 1
 522.480517123 741.689132437 583.154560557 724.093873153 665.096293754 724.093873153 c 0
 713.402839117 724.093873153 769.100704143 730.20888552 828.655273438 748.267578125 c 1
 903.919921875 652.788085938 948.828125 532.263671875 948.828125 401.25 c 0
 948.828125 129.943359375 756.248046875 -96.375 500.326171875 -148.469726562 c 1
515.61328125 80.44140625 m 0
 497.377929688 80.44140625 480.896484375 85.5263671875 466.16796875 95.6962890625 c 1
 466.16796875 -12.6650390625 l 1
 410.411132812 -40.54296875 l 1
 410.411132812 348.18359375 l 1
 466.16796875 348.18359375 l 1
 466.16796875 331.876953125 l 1
 477.389648438 343.799804688 493.521484375 349.936523438 514.561523438 350.287109375 c 0
 585.3984375 348.884765625 620.81640625 302.594726562 620.81640625 211.418945312 c 0
 620.81640625 124.100585938 585.749023438 80.44140625 515.61328125 80.44140625 c 0
566.111328125 211.9453125 m 0
 566.111328125 265.950195312 548.927734375 294.00390625 514.561523438 296.107421875 c 0
 493.169921875 296.107421875 477.389648438 287.516601562 467.220703125 270.333007812 c 1
 467.220703125 154.609375 l 1
 479.930599488 138.12075738 495.837951295 129.875989569 514.941840547 129.875989569 c 0
 515.339723262 129.875989569 515.738992562 129.87956596 516.139648438 129.88671875 c 0
 549.103515625 130.23828125 565.759765625 157.590820312 566.111328125 211.9453125 c 0
93.5087890625 563.49609375 m 1
 112.073242188 623.766601562 140.52734375 679.607421875 176.9453125 729.059570312 c 1
 227.08984375 715.025390625 279.907226562 707.526367188 334.451171875 707.526367188 c 0
 392.108398438 707.526367188 447.8359375 715.904296875 500.515625 731.526367188 c 1
 553.1953125 715.904296875 608.922851562 707.526367188 666.579101562 707.526367188 c 0
 721.123046875 707.526367188 773.942382812 715.025390625 824.086914062 729.059570312 c 1
 860.501953125 679.607421875 888.958007812 623.766601562 907.522460938 563.49609375 c 1
 93.5087890625 563.49609375 l 1
EndSplineSet
EndChar

StartChar: q
Encoding: 113 113 43
Width: 1000
Flags: H
LayerCount: 2
Fore
SplineSet
48.8251953125 401.25 m 0
 48.8251953125 129.412109375 241.413085938 -98.9755859375 500.326171875 -151.53125 c 1
 759.2109375 -98.9814453125 951.828125 129.3828125 951.828125 401.25 c 0
 951.828125 487.20703125 931.908203125 622.604492188 829.73828125 751.734375 c 1
 769.164363443 733.245479429 712.835249481 727.093239724 664.482956401 727.093239724 c 0
 568.281507601 727.093239724 503.656189801 751.446792319 499.999550594 751.446792319 c 0
 497.819672621 751.446792319 430.687599765 727.044388538 335.703516577 727.044388538 c 0
 284.219697464 727.044388538 228.659505523 734.108745886 170.9140625 751.734375 c 1
 143.68359375 717.318359375 48.8251953125 593.043945312 48.8251953125 401.25 c 0
500.326171875 -148.469726562 m 1
 244.404296875 -96.375 51.8251953125 129.943359375 51.8251953125 401.25 c 0
 51.8251953125 532.263671875 96.734375 652.788085938 171.997070312 748.267578125 c 1
 194.121661625 741.559163245 254.578454531 724.094496785 336.220980821 724.094496785 c 0
 384.658994327 724.094496785 440.554336446 730.24201854 500.326171875 748.430664062 c 1
 522.480517123 741.689132437 583.154560557 724.093873153 665.096293754 724.093873153 c 0
 713.402839117 724.093873153 769.100704143 730.20888552 828.655273438 748.267578125 c 1
 903.919921875 652.788085938 948.828125 532.263671875 948.828125 401.25 c 0
 948.828125 129.943359375 756.248046875 -96.375 500.326171875 -148.469726562 c 1
335.891601562 727.084960938 m 0
 240.107421875 727.084960938 174.219726562 751.500976562 171.455078125 751.500976562 c 0
 170.977539062 751.500976562 170.552734375 751.27734375 170.27734375 750.930664062 c 0
 94.228515625 654.811523438 48.8251953125 533.33203125 48.8251953125 401.25 c 0
 48.8251953125 128.388671875 242.5859375 -99.2138671875 500.026367188 -151.470703125 c 0
 500.133789062 -151.4921875 500.35546875 -151.525390625 500.625976562 -151.470703125 c 0
 758.06640625 -99.2138671875 951.828125 128.388671875 951.828125 401.25 c 0
 951.828125 533.33203125 906.42578125 654.811523438 830.375 750.930664062 c 0
 830.099609375 751.27734375 829.674804688 751.500976562 829.198242188 751.500976562 c 0
 826.43359375 751.500976562 760.544921875 727.084960938 664.76171875 727.084960938 c 0
 568.981445312 727.084960938 503.091796875 751.499023438 500.326171875 751.499023438 c 0
 497.551757812 751.499023438 431.6796875 727.084960938 335.891601562 727.084960938 c 0
500.326171875 -148.469726562 m 1
 244.404296875 -96.375 51.8251953125 129.943359375 51.8251953125 401.25 c 0
 51.8251953125 532.263671875 96.734375 652.788085938 171.997070312 748.267578125 c 1
 194.121661625 741.559163245 254.578454531 724.094496785 336.220980821 724.094496785 c 0
 384.658994327 724.094496785 440.554336446 730.24201854 500.326171875 748.430664062 c 1
 522.480517123 741.689132437 583.154560557 724.093873153 665.096293754 724.093873153 c 0
 713.402839117 724.093873153 769.100704143 730.20888552 828.655273438 748.267578125 c 1
 903.919921875 652.788085938 948.828125 532.263671875 948.828125 401.25 c 0
 948.828125 129.943359375 756.248046875 -96.375 500.326171875 -148.469726562 c 1
92.8525390625 562.182617188 m 1
 111.416992188 622.454101562 139.87109375 678.293945312 176.2890625 727.747070312 c 1
 226.432617188 713.711914062 279.250976562 706.213867188 333.794921875 706.213867188 c 0
 391.451171875 706.213867188 447.178710938 714.590820312 499.859375 730.212890625 c 1
 552.5390625 714.590820312 608.266601562 706.213867188 665.922851562 706.213867188 c 0
 720.466796875 706.213867188 773.286132812 713.711914062 823.4296875 727.747070312 c 1
 859.845703125 678.293945312 888.301757812 622.454101562 906.866210938 562.182617188 c 1
 92.8525390625 562.182617188 l 1
495.73828125 79.1884765625 m 0
 425.776367188 79.1884765625 390.794921875 122.740234375 390.794921875 209.842773438 c 0
 390.794921875 300.79296875 426.125976562 346.967773438 496.788085938 348.3671875 c 0
 517.776367188 348.017578125 533.868164062 341.896484375 545.061523438 330.002929688 c 1
 545.061523438 346.268554688 l 1
 600.681640625 346.268554688 l 1
 600.681640625 -13.6875 l 1
 545.061523438 -41.4970703125 l 1
 545.061523438 94.4052734375 l 1
 530.369140625 84.2607421875 513.928710938 79.1884765625 495.73828125 79.1884765625 c 0
445.365234375 210.3671875 m 0
 445.715820312 156.147460938 462.331054688 128.862304688 495.213867188 128.51171875 c 0
 495.613412222 128.50458793 496.011575133 128.50102252 496.408355902 128.50102252 c 0
 515.464916087 128.50102252 531.333315715 136.725291055 544.01171875 153.173828125 c 1
 544.01171875 268.611328125 l 1
 533.868164062 285.751953125 518.125976562 294.322265625 496.788085938 294.322265625 c 0
 462.506835938 292.22265625 445.365234375 264.23828125 445.365234375 210.3671875 c 0
EndSplineSet
EndChar

StartChar: space
Encoding: 32 32 44
Width: 1000
LayerCount: 2
Fore
SplineSet
495 -134 m 1024
EndSplineSet
Validated: 1
EndChar

